<ttFont>
          <CharString index="0">
            rmoveto
            11 10 5 10 11 hvcurveto
            210 199 214 -204 rlineto
            -8 9 8 -3 8 hhcurveto
            11 10 7 10 13 hvcurveto
            53 43 rlineto
            12 10 5 11 11 vvcurveto
            10 -5 11 -8 11 vhcurveto
            -190 240 rlineto
            31 -25 -25 16 -37 hhcurveto
            -102 hlineto
            -35 -30 -19 -26 -21 hvcurveto
            -198 -243 rlineto
            -7 -8 -6 -13 -11 vvcurveto
            -10 3 -7 15 -12 vhcurveto
            56 -48 rlineto
            -8 9 10 -5 11 hhcurveto
            endchar
          </CharString>
          <CharString index="1">
            rmoveto
            10 10 3 5 8 hvcurveto
            363 221 30 18 9 25 1 19 rlinecurve
            12 -4 11 -8 10 vhcurveto
            -75 95 rlineto
            12 -9 -16 10 -21 hhcurveto
            -15 -19 -6 -17 -19 hvcurveto
            -309 -281 rlineto
            -12 -11 -8 -11 -13 vvcurveto
            -7 3 -7 4 -6 vhcurveto
            49 -68 rlineto
            -9 6 10 -5 12 hhcurveto
            endchar
          </CharString>
          <CharString index="2">
            rmoveto
            409 138 rlineto
            33 12 10 21 19 vvcurveto
            10 -4 12 -4 8 vhcurveto
            -54 115 -16 35 -48 -5 -32 -20 rlinecurve
            -367 -211 -18 -11 -5 -20 8 -16 rlinecurve
            31 -67 12 -24 26 -3 19 7 rlinecurve
            endchar
          </CharString>
          <CharString index="3">
            rmoveto
            -59 45 -49 53 -7 vhcurveto
            -3 -37 -41 -82 -11 -20 rrcurveto
            -6 -10 -8 -14 -15 vvcurveto
            -12 5 -12 16 -8 vhcurveto
            33 -16 rlineto
            -5 10 9 -2 9 hhcurveto
            38 28 29 28 19 hvcurveto
            61 87 43 80 92 vvcurveto
            91 -74 59 -80 -69 -77 -35 -83 vhcurveto
            return
          </CharString>
          <CharString index="4">
            212 hintmask 00000000
            hintmask 10110101
            22 callgsubr
            185 126 92 113 62 vhcurveto
            7 -35 7 -45 4 -30 rrcurveto
            -36 5 -5 -34 59 hhcurveto
            97 hlineto
            45 7 28 25 hvcurveto
            -2 104 -39 142 -48 136 rrcurveto
            hintmask 01110101
            21 100 12 74 83 vvcurveto
            207 -98 146 -156 67 vhcurveto
            29 -68 -73 12 -72 hhcurveto
            -110 -135 -22 -56 -92 hvcurveto
            -39 -24 -27 -28 -31 vvcurveto
            -6 9 -37 18 -37 vhcurveto
            -25 12 15 -28 30 36 84 80 165 hhcurveto
            179 110 -89 -182 -22 -1 -23 -2 -23 hvcurveto
            86 -102 -121 17 -89 hhcurveto
            -98 -99 -25 -54 -77 hvcurveto
            hintmask 10110101
            -88 callgsubr
            hintmask 00001010
            return
          </CharString>
          <CharString index="5">
            169 58 rmoveto
            -60 81 127 -23 115 hhcurveto
            297 134 168 189 181 -125 74 -142 61 hvcurveto
            -157 68 -114 28 92 vvcurveto
            82 85 29 63 94 44 -22 -28 59 vhcurveto
            -11 20 18 -5 16 hhcurveto
            25 19 14 32 14 hvcurveto
            14 32 13 32 28 vvcurveto
            26 -11 23 -29 17 vhcurveto
            46 -79 -101 22 -111 hhcurveto
            -197 -201 -103 -214 -176 98 -81 139 -69 hvcurveto
            127 -63 185 -23 -115 vvcurveto
            -97 -74 -32 -118 -83 -88 32 54 -67 vhcurveto
            11 -14 -16 5 -15 hhcurveto
            -24 -21 -13 -23 -13 hvcurveto
            -23 -44 -17 -33 -30 vvcurveto
            -27 14 -25 39 -29 vhcurveto
            return
          </CharString>
          <CharString index="6">
            14 53 17 75 4 25 24 -76 68 -251 44 -191 rrcurveto
            -133 31 64 -57 113 hhcurveto
            71 63 42 60 47 hvcurveto
            121 156 66 213 43 180 34 146 26 148 1 135 rrcurveto
            35 -17 25 -48 vhcurveto
            -115 hlineto
            -26 -38 -14 -52 -1 hvcurveto
            -8 -297 -66 -327 -103 -184 rrcurveto
            -17 -9 -11 -19 -17 hhcurveto
            -10 -7 8 21 -5 hvcurveto
            -59 258 -75 310 -80 219 rrcurveto
            76 -28 -45 0 -66 hhcurveto
            -6 -23 -1 -1 -6 hvcurveto
            -44 -3 -20 -21 -6 -34 -7 -42 rcurveline
            -38 -232 -96 -351 -86 -170 rrcurveto
            -18 -9 -15 -18 -15 hhcurveto
            -11 -11 10 27 -6 hvcurveto
            -55 260 -55 265 -78 272 rrcurveto
            60 -17 -36 15 -29 hhcurveto
            -118 hlineto
            -49 -19 -27 -34 -13 2 -13 5 -14 hvcurveto
            return
          </CharString>
          <CharString index="7">
            115 779 rmoveto
            -432 272 -372 461 442 304 355 447 442 -258 339 -480 -443 -298 -328 -451 vhcurveto
            271 -1 rmoveto
            324 178 227 290 313 156 -257 -294 -312 -150 -261 -320 -324 -143 282 291 vhcurveto
            return
          </CharString>
          <CharString index="8">
            -358 rmoveto
            -28 -29 -20 -31 -30 vvcurveto
            -37 32 -26 26 -20 vhcurveto
            -19 25 25 -17 29 hhcurveto
            54 37 56 28 23 hvcurveto
            230 287 181 366 132 381 rrcurveto
            58 169 80 268 77 vvcurveto
            40 -23 23 -41 vhcurveto
            -115 hlineto
            -28 -36 -9 -56 -11 hvcurveto
            -48 -248 -55 -230 -77 -224 rrcurveto
            -60 -21 -28 -71 -13 hhcurveto
            -9 -6 33 34 -8 hvcurveto
            -6 25 -4 25 -54 180 -55 180 -67 205 -55 136 rrcurveto
            42 -17 -15 38 -49 hhcurveto
            -126 hlineto
            -45 -26 -23 -33 -31 75 -155 45 -107 hvcurveto
            88 -210 158 -411 52 -154 -58 -109 -95 -138 -111 -115 rrcurveto
            return
          </CharString>
          <CharString index="9">
            120 566 rmoveto
            -345 222 -246 342 317 247 236 355 353 -195 234 -369 -317 -247 -234 -353 vhcurveto
            250 -14 rmoveto
            197 87 196 226 235 80 -207 -177 -209 -87 -170 -223 -216 -102 181 189 vhcurveto
            return
          </CharString>
          <CharString index="10">
            139 783 rmoveto
            -506 281 -302 408 437 133 242 135 148 -80 79 -83 38 vhcurveto
            146 hlineto
            31 25 18 26 hvcurveto
            109 vlineto
            33 -18 16 -38 vhcurveto
            -468 hlineto
            -30 -25 -22 -27 hvcurveto
            -35 vlineto
            -55 40 -28 43 -11 vhcurveto
            163 -41 49 -113 -82 vvcurveto
            -107 -81 -99 -231 -315 -118 285 299 317 142 241 299 234 66 -110 -67 8 vhcurveto
            -43 5 4 -36 46 hhcurveto
            86 hlineto
            107 0 82 36 141 -162 214 -385 -427 -292 -294 -481 hvcurveto
            return
          </CharString>
          <CharString index="11">
            -110 -5 -82 -27 -208 vhcurveto
            -35 -275 -95 -368 -54 -143 rrcurveto
            -14 -5 -7 -3 -6 hhcurveto
            -6 -7 3 13 -3 hvcurveto
            -154 624 -23 93 -61 243 -65 207 rlinecurve
            71 -22 -42 26 -60 hhcurveto
            -100 hlineto
            -76 -34 -38 -59 -13 hvcurveto
            -45 -196 -34 -192 -45 -191 -46 -192 -45 -202 -69 -176 rrcurveto
            -20 -8 -8 -3 -6 hhcurveto
            -14 0 16 10 -2 hvcurveto
            -12 76 -73 358 -14 63 -164 730 rcurveline
            42 -9 -23 19 -29 hhcurveto
            -143 hlineto
            -37 -22 -28 -42 -11 1 -11 3 -12 hvcurveto
            return
          </CharString>
          <CharString index="12">
            rmoveto
            -5 8 10 -3 10 hhcurveto
            12 10 5 9 6 hvcurveto
            49 68 rlineto
            4 6 3 7 7 vvcurveto
            13 -8 11 -12 11 vhcurveto
            -309 281 rlineto
            17 -19 -19 6 -15 hhcurveto
            -21 -16 -10 -12 -9 hvcurveto
            -75 -95 rlineto
            -8 -10 -4 -11 -12 vvcurveto
            1 -19 9 -25 30 -18 rrcurveto
            endchar
          </CharString>
          <CharString index="13">
            rmoveto
            206 134 156 160 24 -19 16 -30 2 hvcurveto
            -93 5 rlineto
            -26 -18 -7 -29 -3 hvcurveto
            -123 -13 -62 -35 -75 hhcurveto
            -78 -64 39 124 -10 hvcurveto
            26 -2 -19 5 -19 -8 -8 -1 -7 hhcurveto
            -80 -4 rlineto
            -47 -3 -6 -20 -14 vvcurveto
            -93 37 -74 53 -58 vhcurveto
            -65 60 93 -31 104 hhcurveto
            endchar
          </CharString>
          <CharString index="14">
            rmoveto
            206 138 129 153 24 -19 16 -30 2 hvcurveto
            -94 5 -23 1 -27 -9 -3 -28 rlinecurve
            -119 -13 -85 -4 -49 hhcurveto
            -47 -87 16 112 -9 hvcurveto
            -2 26 -19 6 -19 -1 -108 -5 rcurveline
            -47 -2 -6 -21 -14 vvcurveto
            -167 158 -120 185 vhcurveto
            endchar
          </CharString>
          <CharString index="15">
            121 570 rmoveto
            -356 208 -239 339 150 263 82 119 12 -4 14 -11 19 vhcurveto
            -22 37 rlineto
            23 -14 -20 10 -21 -54 -90 -102 -159 hhcurveto
            -230 -82 174 215 171 81 200 204 107 87 -52 -133 -47 19 -34 63 hvcurveto
            24 hlineto
            70 54 29 92 169 -113 180 -307 -313 -229 -216 -367 hvcurveto
            return
          </CharString>
          <CharString index="16">
            -60 9 50 -27 43 hhcurveto
            881 hlineto
            25 36 15 38 hvcurveto
            104 vlineto
            55 -29 11 -51 vhcurveto
            -536 hlineto
            -51 -65 -19 -26 hhcurveto
            -8 -5 2 4 3 2 7 11 14 hvcurveto
            73 93 605 933 rlineto
            27 41 23 39 59 vvcurveto
            47 vlineto
            77 -65 10 -37 vhcurveto
            -831 hlineto
            -47 -19 -11 -39 hvcurveto
            -95 vlineto
            -62 26 -14 55 vhcurveto
            465 hlineto
            51 47 10 48 hhcurveto
            8 5 -2 -4 -3 -2 -3 -4 -5 hvcurveto
            -80 -106 -606 -940 rlineto
            -15 -24 -19 -30 -51 vvcurveto
            -24 2 -21 4 -22 vhcurveto
            return
          </CharString>
          <CharString index="17">
            87 111 rmoveto
            -74 48 -37 50 vhcurveto
            655 hlineto
            75 25 14 70 hvcurveto
            72 vlineto
            28 -25 22 -31 vhcurveto
            -368 hlineto
            -44 -39 -10 -38 hhcurveto
            -4 -3 2 3 3 1 2 3 4 hvcurveto
            94 110 367 554 rlineto
            25 38 42 45 66 vvcurveto
            54 -30 51 -59 vhcurveto
            -680 hlineto
            -30 -25 -23 -26 hvcurveto
            -65 vlineto
            -76 25 -16 61 vhcurveto
            285 hlineto
            51 47 10 48 hhcurveto
            8 5 -2 -4 -3 -2 -3 -4 -5 hvcurveto
            -82 -110 -394 -566 rlineto
            -39 -56 -18 -30 -42 vvcurveto
            return
          </CharString>
          <CharString index="18">
            210 282 rmoveto
            -202 116 -97 169 155 185 81 74 8 -1 8 -12 28 vhcurveto
            -23 52 rlineto
            23 -10 -14 10 -17 hhcurveto
            -27 -24 -21 -18 -36 hvcurveto
            -18 -36 -43 -20 -41 hhcurveto
            -53 -48 24 78 hvcurveto
            628 282 -34 callgsubr
            -282 226 hlineto
            38 -23 28 -30 vhcurveto
            -83 hlineto
            -29 -19 -28 -38 -6 hvcurveto
            -38 -235 -100 -29 rlineto
            -46 -9 -13 -16 -31 vvcurveto
            -57 vlineto
            -32 16 -25 47 vhcurveto
            84 hlineto
            return
          </CharString>
          <CharString index="19">
            rmoveto
            19 -7 26 3 12 24 31 67 rcurveline
            8 16 -5 20 -18 11 -367 211 rcurveline
            -32 20 -48 5 -16 -35 -54 -115 rcurveline
            -4 -8 -4 -12 -10 vvcurveto
            -19 10 -21 33 -12 vhcurveto
            endchar
          </CharString>
          <CharString index="20">
            35 -25 29 -30 vhcurveto
            -140 hlineto
            -31 -25 -29 -35 hvcurveto
            return
          </CharString>
          <CharString index="21">
            -51 callsubr
            556 vlineto
            183 159 139 139 127 61 -85 -171 vhcurveto
            -622 -26 callgsubr
            621 vlineto
            267 -79 199 -288 -156 -148 -78 -147 -79 vhcurveto
            return
          </CharString>
          <CharString index="22">
            rmoveto
            -9 8 11 -4 11 hhcurveto
            11 10 4 8 9 hvcurveto
            262 239 rlineto
            21 19 20 26 24 vvcurveto
            12 -5 11 -11 11 vhcurveto
            -66 62 rlineto
            15 -17 -18 11 -18 hhcurveto
            -19 -18 -11 -19 -15 hvcurveto
            -224 -282 rlineto
            -9 -11 -8 -14 -14 vvcurveto
            -8 2 -7 7 -7 vhcurveto
            -347 -68 rmoveto
            12 12 5 9 9 hvcurveto
            242 250 rlineto
            19 19 13 23 21 vvcurveto
            15 -6 14 -16 13 vhcurveto
            -68 54 rlineto
            11 -14 -15 7 -15 hhcurveto
            -21 -20 -13 -22 -15 hvcurveto
            -194 -287 rlineto
            -8 -11 -6 -13 -13 vvcurveto
            -10 4 -9 9 -8 vhcurveto
            48 -43 rlineto
            -8 9 11 -4 10 hhcurveto
            endchar
          </CharString>
          <CharString index="23">
            rmoveto
            -92 callgsubr
            return
          </CharString>
          <CharString index="24">
            256 -1021 rlineto
            -121 31 65 -54 95 hhcurveto
            79 hlineto
            101 42 54 144 55 hvcurveto
            63 163 100 336 50 264 rrcurveto
            40 213 9 175 72 vvcurveto
            68 -16 44 -71 vhcurveto
            -91 hlineto
            -82 -4 -62 -60 hvcurveto
            return
          </CharString>
          <CharString index="25">
            2 -7 -7 1 -6 hhcurveto
            -33 -12 -35 -32 -9 hvcurveto
            -30 -8 -30 -45 -35 -71 -72 121 -124 hhcurveto
            -119 -85 -123 -96 -24 hvcurveto
            -8 -32 14 -22 25 -6 rrcurveto
            endchar
          </CharString>
          <CharString index="26">
            129 72 rmoveto
            -40 -4 24 -32 32 hhcurveto
            138 hlineto
            24 27 21 21 2 hvcurveto
            45 599 rlineto
            13 174 4 108 151 vvcurveto
            162 vlineto
            3 1 1 1 2 hhcurveto
            1 1 0 -3 1 hvcurveto
            45 -138 22 -67 26 -63 27 -64 rlinecurve
            334 -783 rlineto
            -20 9 15 -20 26 hhcurveto
            157 hlineto
            20 23 21 20 7 hvcurveto
            190 518 62 168 54 129 37 134 rlinecurve
            45 164 rlineto
            3 1 1 0 1 hhcurveto
            2 1 -1 -3 hvcurveto
            10 -142 11 -159 6 -144 17 -150 rlinecurve
            69 -598 rlineto
            -24 3 21 -18 25 hhcurveto
            166 hlineto
            26 9 23 27 7 -1 7 -1 7 hvcurveto
            -173 1325 rlineto
            81 -11 -6 56 -94 hhcurveto
            -113 hlineto
            -73 -22 -52 -47 -17 hvcurveto
            -377 -1051 -431 1050 rlineto
            93 -38 -32 7 -59 hhcurveto
            -108 hlineto
            -87 -8 -45 -100 -9 hvcurveto
            return
          </CharString>
          <CharString index="27">
            21 -81 -6 0 -5 hhcurveto
            -36 -12 -33 -33 -9 hvcurveto
            -30 -8 -30 -45 -35 -71 -72 121 -124 hhcurveto
            -127 -103 -156 -79 -22 13 -15 20 -7 hvcurveto
            return
          </CharString>
          <CharString index="28">
            396 -398 rlineto
            -12 11 15 -6 18 hhcurveto
            16 17 6 13 12 hvcurveto
            63 69 rlineto
            18 19 6 18 15 vvcurveto
            18 -10 15 -11 11 vhcurveto
            -319 312 327 315 rlineto
            17 16 9 21 20 vvcurveto
            16 -6 15 -13 13 vhcurveto
            -71 68 rlineto
            12 -13 -16 6 -16 hhcurveto
            -20 -19 -13 -17 -17 hvcurveto
            -392 -393 rlineto
            -25 -25 -13 -29 -28 vvcurveto
            -26 12 -27 24 -24 vhcurveto
            return
          </CharString>
          <CharString index="29">
            vlineto
            -87 callsubr
            return
          </CharString>
          <CharString index="30">
            rmoveto
            518 hlineto
            24 20 16 21 hvcurveto
            130 vlineto
            22 -20 16 -24 vhcurveto
            -518 hlineto
            -23 -20 -16 -21 hvcurveto
            -130 vlineto
            -22 20 -16 23 vhcurveto
            endchar
          </CharString>
          <CharString index="31">
            -72 callsubr
            738 -21 callgsubr
            110 -41 callsubr
            -542 1246 hlineto
            -87 callsubr
            return
          </CharString>
          <CharString index="32">
            16 126 rlineto
            80 10 -138 5 -49 hhcurveto
            -135 -106 -91 -175 -26 hvcurveto
            -2 -3 0 2 vvcurveto
            -9 63 -21 89 -18 41 rrcurveto
            31 -14 -21 17 -43 hhcurveto
            -54 hlineto
            -43 -20 -31 -41 -8 1 -8 2 -9 hvcurveto
            18 -93 2 -94 -89 vvcurveto
            return
          </CharString>
          <CharString index="33">
            -42 callgsubr
            1251 374 vlineto
            35 19 25 31 hvcurveto
            105 -41 callsubr
            -988 hlineto
            -35 -28 -25 -31 hvcurveto
            -105 vlineto
            -32 28 -25 35 vhcurveto
            361 hlineto
            return
          </CharString>
          <CharString index="34">
            rmoveto
            -77 callgsubr
            return
          </CharString>
          <CharString index="35">
            64 -73 callsubr
            return
          </CharString>
          <CharString index="36">
            241 0 218 438 209 448 -36 callsubr
            -581 -146 vlineto
            -23 -20 -16 -21 hvcurveto
            -134 vlineto
            -22 20 -16 23 vhcurveto
            146 hlineto
            251 -435 rmoveto
            435 294 vlineto
            24 20 16 32 hvcurveto
            123 vlineto
            22 -20 16 -24 vhcurveto
            -294 445 hlineto
            -16 callgsubr
          </CharString>
          <CharString index="37">
            -315 -168 -281 -318 hvcurveto
            256 -8 rmoveto
            183 69 216 201 172 147 -148 -249 -206 -156 -160 -156 -191 -86 186 178 vhcurveto
            return
          </CharString>
          <CharString index="38">
            75 90 41 57 40 -10 23 -8 31 hvcurveto
            33 -9 -21 6 -25 -13 -14 -2 -13 hhcurveto
            -27 -25 5 14 -26 hvcurveto
            -64 34 -77 82 -70 87 -100 124 -92 141 -39 59 89 145 230 270 132 128 42 42 54 31 3 39 2 20 -13 23 -36 27 -33 25 rcurveline
            21 -27 -28 10 -22 hhcurveto
            -26 -25 -14 -26 -30 hvcurveto
            -84 -72 -88 -106 -89 -119 -114 -153 -107 -174 -68 -132 rrcurveto
            hintmask 01011000
            91 -163 93 -159 108 -142 rrcurveto
            -587 -215 -73 callsubr
            return
          </CharString>
          <CharString index="39">
            20 -4 -14 27 -26 -2 -2 -1 -3 hhcurveto
            0 -54 -15 -23 -72 -113 211 166 -97 vhcurveto
            110 137 130 128 115 109 rrcurveto
            20 18 7 19 16 vvcurveto
            -1 27 -21 25 -12 14 -45 50 rcurveline
            20 -18 -20 12 -23 hhcurveto
            -18 -22 -8 -23 -21 hvcurveto
            -198 -215 -159 -218 -142 -256 rrcurveto
            -19 -10 -9 -7 -4 hhcurveto
            -4 -1 3 5 hvcurveto
            4 vlineto
            14 121 26 202 122 vvcurveto
            -3 843 rlineto
            36 -23 27 -30 vhcurveto
            -138 29 callsubr
            -36 hvcurveto
            return
          </CharString>
          <CharString index="40">
            rmoveto
            106 hlineto
            29 24 26 35 hvcurveto
            859 vlineto
            56 -33 33 -50 -40 -22 -15 -23 -33 vhcurveto
            -74 -51 -79 -28 -83 -18 -62 -15 -2 -28 11 -48 rrcurveto
            -45 11 9 -25 46 hhcurveto
            51 103 33 22 42 hvcurveto
            -5 -73 rlineto
            -634 vlineto
            -35 21 -26 30 vhcurveto
            return
          </CharString>
          <CharString index="41">
            -48 -26 45 -42 hhcurveto
            -28 -14 -28 -31 -9 hvcurveto
            -15 -50 -3 -15 -13 vvcurveto
            -25 10 -17 27 -22 vhcurveto
            -25 32 49 -27 105 hhcurveto
            return
          </CharString>
          <CharString index="42">
            190 65 rmoveto
            -37 24 -28 29 vhcurveto
            80 hlineto
            41 13 29 36 9 hvcurveto
            28 113 105 147 75 99 59 -101 73 -141 44 -62 rrcurveto
            -97 67 70 -40 104 hhcurveto
            86 71 42 61 5 0 5 -1 5 hvcurveto
            -14 72 rlineto
            return
          </CharString>
          <CharString index="43">
            rmoveto
            641 hlineto
            37 20 10 37 hvcurveto
            86 vlineto
            34 -7 25 -43 -2 vhcurveto
            -436 -16 30 16 rlineto
            151 91 272 163 256 vvcurveto
            241 -215 70 -152 -166 -208 -96 -177 -39 16 -19 52 -10 vhcurveto
            -3 13 23 -3 12 hhcurveto
            24 22 10 42 16 hvcurveto
            82 31 79 37 77 hhcurveto
            70 95 -32 -120 -178 -320 -218 -151 -78 hvcurveto
            -36 -18 -4 -11 -54 vvcurveto
            -76 vlineto
            -38 22 -12 35 vhcurveto
            return
          </CharString>
          <CharString index="44">
            238 212 93 238 231 -172 125 -240 -189 -124 -67 -123 -86 hvcurveto
            -43 63 -58 54 -71 31 rrcurveto
            29 -68 -67 12 -72 hhcurveto
            -110 -135 -22 -56 -92 hvcurveto
            -39 -24 -27 -28 -31 vvcurveto
            -6 9 -37 18 -37 vhcurveto
            -25 12 15 -28 30 36 84 80 165 hhcurveto
            179 110 -89 -182 -22 -1 -23 -2 -23 hvcurveto
            86 -102 -121 17 -89 hhcurveto
            -98 -99 -25 -54 -77 hvcurveto
            return
          </CharString>
          <CharString index="45">
            -10 11 12 -5 10 hhcurveto
            35 35 37 28 21 hvcurveto
            72 95 66 144 113 vvcurveto
            return
          </CharString>
          <CharString index="46">
            -97 77 -79 95 93 77 79 97 96 -77 78 -93 return
          </CharString>
          <CharString index="47">
            297 rmoveto
            -58 51 -41 40 vhcurveto
            476 -138 hlineto
            -34 21 -26 28 vhcurveto
            92 hlineto
            27 25 26 33 hvcurveto
            140 81 vlineto
            44 14 26 28 hvcurveto
            45 vlineto
            31 -12 14 -40 7 vhcurveto
            -86 16 rlineto
            534 vlineto
            110 -53 1 -50 vhcurveto
            -33 hlineto
            -34 -34 -5 -60 -52 hvcurveto
            -470 -565 rlineto
            -26 -29 -9 -28 -27 vvcurveto
            241 79 rmoveto
            274 322 55 76 -1 -82 rlineto
            -316 vlineto
            return
          </CharString>
          <CharString index="48">
            -138 78 136 -67 148 hhcurveto
            271 208 243 384 304 -134 246 -305 -119 -139 -30 -146 -108 hvcurveto
            731 vlineto
            36 -24 29 -30 vhcurveto
            -136 hlineto
            -30 -23 -29 -36 hvcurveto
            228 -1139 rmoveto
            204 123 172 192 175 77 -146 -227 -191 -66 -199 -205 -173 -123 192 195 vhcurveto
            return
          </CharString>
          <CharString index="49">
            229 62 rmoveto
            -32 19 -30 46 vhcurveto
            118 hlineto
            53 15 33 29 hvcurveto
            390 vlineto
            -8 63 57 -7 83 hhcurveto
            338 278 208 357 351 -229 180 -366 hvcurveto
            -396 hlineto
            -56 -23 -41 -47 hvcurveto
            251 -783 rmoveto
            654 213 vlineto
            208 136 -110 -205 -255 -184 -97 -213 -58 -45 6 7 -57 hvcurveto
            return
          </CharString>
          <CharString index="50">
            -97 -4 callgsubr
            284 185 293 210 return
          </CharString>
          <CharString index="51">
            221 432 221 438 221 return
          </CharString>
          <CharString index="52">
            -21 1533 -20 return
          </CharString>
          <CharString index="53">
            22 callgsubr
            193 160 104 119 59 vhcurveto
            -146 83 166 -77 194 hhcurveto
            150 260 67 119 12 -2 12 -7 12 hvcurveto
            -29 58 rlineto
            22 -12 -17 8 -21 -44 -84 -103 -174 hhcurveto
            -211 -142 130 198 10 hvcurveto
            -19 67 111 -24 106 hhcurveto
            return
          </CharString>
          <CharString index="54">
            121 49 119 138 144 45 -125 -109 -129 -49 -101 -137 return
          </CharString>
          <CharString index="55">
            72 -4 callgsubr
            -161 -21 1128 -20 return
          </CharString>
          <CharString index="56">
            210 -5 callgsubr
            47 vhcurveto
            103 hlineto
            47 -12 callgsubr
            return
          </CharString>
          <CharString index="57">
            921 0 208 -208 219 -198 -21 1196 292 45 -20 return
          </CharString>
          <CharString index="58">
            484 802 rmoveto
            -48 callsubr
            -8 callgsubr
            hvcurveto
            2 174 rmoveto
            -132 -58 107 117 -53 callsubr
            hvcurveto
            return
          </CharString>
          <CharString index="59">
            217 171 163 244 242 -134 162 -254 -219 -171 -162 -242 return
          </CharString>
          <CharString index="60">
            vlineto
            35 -25 29 -30 vhcurveto
            return
          </CharString>
          <CharString index="61">
            444 -77 rmoveto
            37 -2 133 -8 80 vhcurveto
            -115 63 117 -83 157 hhcurveto
            300 178 297 328 314 -150 239 -307 -103 -172 -34 -184 -106 hvcurveto
            -9 59 -14 47 -18 39 rrcurveto
            31 -14 -21 17 -43 hhcurveto
            -61 hlineto
            -39 -27 -27 -45 hvcurveto
            return
          </CharString>
          <CharString index="62">
            rmoveto
            -85 59 -59 67 -20 vhcurveto
            -6 -64 -30 -109 -89 -98 rrcurveto
            -10 -10 -12 -17 -19 vvcurveto
            -11 5 -14 13 -11 vhcurveto
            36 -31 rlineto
            -12 14 11 -5 14 hhcurveto
            39 37 44 30 24 hvcurveto
            87 111 81 157 172 vvcurveto
            115 -63 102 -114 -93 -70 -77 -89 vhcurveto
            endchar
          </CharString>
          <CharString index="63">
            rmoveto
            988 17 callgsubr
            84 vlineto
            31 -25 22 -31 vhcurveto
            -988 hlineto
            -57 callgsubr
            endchar
          </CharString>
          <CharString index="64">
            -61 callgsubr
            46 -38 vhcurveto
            -18 -61 -25 -45 hhcurveto
            -52 -34 24 45 return
          </CharString>
          <CharString index="65">
            -9 -25 -6 -9 -14 vvcurveto
            -65 122 -44 105 171 99 100 126 return
          </CharString>
          <CharString index="66">
            vlineto
            32 -18 -37 callgsubr
            return
          </CharString>
          <CharString index="67">
            48 68 rlineto
            13 18 5 16 14 vvcurveto
            29 -28 22 -31 19 vhcurveto
            45 -76 -89 18 -88 hhcurveto
            -261 -139 -172 -184 -129 32 -83 36 -99 hvcurveto
            -52 callgsubr
            endchar
          </CharString>
          <CharString index="68">
            417 -25 230 1124 229 return
          </CharString>
          <CharString index="69">
            1282 vlineto
            34 -23 29 -30 vhcurveto
            -139 hlineto
            -30 -24 -29 -34 hvcurveto
            -723 vlineto
            137 -99 -128 29 -110 hhcurveto
            return
          </CharString>
          <CharString index="70">
            234 -72 callsubr
            return
          </CharString>
          <CharString index="71">
            220 hstem
            238 251 674 267 vstem
            238 88 rmoveto
            -47 33 -41 56 vhcurveto
            299 hlineto
            503 301 302 498 455 -246 278 -540 hvcurveto
            -317 hlineto
            -56 -33 -40 -47 hvcurveto
            return
          </CharString>
          <CharString index="72">
            43 25 29 42 hvcurveto
            849 244 -34 callgsubr
            -269 hlineto
            return
          </CharString>
          <CharString index="73">
            -99 -568 205 332 184 791 209 return
          </CharString>
          <CharString index="74">
            17 callgsubr
            89 vlineto
            31 -25 22 -31 vhcurveto
            return
          </CharString>
          <CharString index="75">
            406 -28 callgsubr
            return
          </CharString>
          <CharString index="76">
            -1292 endchar
          </CharString>
          <CharString index="77">
            108 vlineto
            return
          </CharString>
          <CharString index="78">
            10 -11 -12 5 -10 hhcurveto
            -35 -35 -37 -28 -21 hvcurveto
            -72 -95 -66 -144 -113 vvcurveto
            return
          </CharString>
          <CharString index="79">
            29 37 hvcurveto
            534 vlineto
            204 140 140 139 127 58 -84 -171 vhcurveto
            -623 -26 callgsubr
            return
          </CharString>
          <CharString index="80">
            hlineto
            -20 -17 -14 -18 hvcurveto
            -106 vlineto
            -18 17 -15 20 vhcurveto
            return
          </CharString>
          <CharString index="81">
            -8 callsubr
            -100 vlineto
            -27 25 -22 30 vhcurveto
            return
          </CharString>
          <CharString index="82">
            241 -25 224 418 202 522 217 return
          </CharString>
          <CharString index="83">
            hstemhm
            189 243 return
          </CharString>
          <CharString index="84">
            90 -279 91 -284 67 -285 rrcurveto
            return
          </CharString>
          <CharString index="85">
            224 1335 -20 return
          </CharString>
          <CharString index="86">
            21 -21 944 209 return
          </CharString>
          <CharString index="87">
            -700 -339 rmoveto
            113 108 56 92 122 126 -55 -111 10 vhcurveto
            -79 -108 -100 -145 -118 -87 61 115 vhcurveto
            return
          </CharString>
          <CharString index="88">
            -99 0 204 -204 223 1089 221 return
          </CharString>
          <CharString index="89">
            rmoveto
            -42 26 -29 47 vhcurveto
            98 hlineto
            return
          </CharString>
          <CharString index="90">
            238 86 rmoveto
            -46 22 -40 55 vhcurveto
            489 hlineto
            317 266 126 334 232 -185 107 -184 8 hvcurveto
            4 vlineto
            return
          </CharString>
          <CharString index="91">
            -268 -25 205 767 206 return
          </CharString>
          <CharString index="92">
            hstemhm
            109 219 -215 228 return
          </CharString>
          <CharString index="93">
            31 25 22 33 hvcurveto
            return
          </CharString>
          <CharString index="94">
            -27 75 7 -2 7 hhcurveto
            endchar
          </CharString>
          <CharString index="95">
            438 527 rmoveto
            227 670 rlineto
            7 2 5 3 5 hhcurveto
            5 6 -4 -6 2 hvcurveto
            170 -670 rlineto
            return
          </CharString>
          <CharString index="96">
            73 3 rlineto
            2 56 53 3 57 hhcurveto
            180 215 -25 -207 1 hvcurveto
            -191 -158 -52 -161 vhcurveto
            return
          </CharString>
          <CharString index="97">
            -99 -25 214 760 204 return
          </CharString>
          <CharString index="98">
            -98 -25 232 1121 230 return
          </CharString>
          <CharString index="99">
            hlineto
            -30 -25 -22 -26 hvcurveto
            return
          </CharString>
          <CharString index="100">
            194 -75 196 hstemhm
            return
          </CharString>
          <CharString index="101">
            hstemhm
            115 271 return
          </CharString>
          <CharString index="102">
            hstemhm
            120 250 return
          </CharString>
          <CharString index="103">
            582 -25 196 -196 207 285 179 -130 187 236 214 -206 207 return
          </CharString>
          <CharString index="104">
            36 -23 27 -30 vhcurveto
            -137 29 callsubr
            -36 hvcurveto
            return
          </CharString>
          <CharString index="105">
            vhcurveto
            -110 hlineto
            return
          </CharString>
          <CharString index="106">
            325 hstemhm
            return
          </CharString>
          <CharString index="107">
            -269 0 206 716 206 return
          </CharString>
          <CharString index="108">
            hstemhm
            68 1401 return
          </CharString>
          <CharString index="109">
            226 11 callgsubr
            return
          </CharString>
          <CharString index="110">
            108 -66 77 -97 vhcurveto
            return
          </CharString>
          <CharString index="111">
            581 0 221 147 216 94 221 355 279 -221 221 return
          </CharString>
          <CharString index="112">
            280 71 -18 callsubr
            return
          </CharString>
          <CharString index="113">
            hstemhm
            210 243 return
          </CharString>
          <CharString index="114">
            350 -329 -21 return
          </CharString>
          <CharString index="115">
            hstemhm
            98 247 return
          </CharString>
          <CharString index="116">
            5 callsubr
            43 25 29 42 hvcurveto
            849 return
          </CharString>
          <CharString index="117">
            -439 21 -21 916 237 -25 -20 return
          </CharString>
          <CharString index="118">
            94 -54 -112 61 -140 hhcurveto
            -170 -133 -93 -133 -82 hvcurveto
            return
          </CharString>
          <CharString index="119">
            -50 callgsubr
            46 -38 vhcurveto
            -18 return
          </CharString>
          <CharString index="120">
            165 90 -166 -172 -189 -60 -235 -211 hvcurveto
            return
          </CharString>
          <CharString index="121">
            -47 callsubr
            -102 hlineto
            -31 -25 -29 -35 hvcurveto
            endchar
          </CharString>
          <CharString index="122">
            -12 callgsubr
            556 vlineto
            183 return
          </CharString>
          <CharString index="123">
            -20 142 327 hstemhm
            return
          </CharString>
          <CharString index="124">
            97 -77 79 -95 -93 -77 -79 -97 -96 77 -78 93 vhcurveto
            return
          </CharString>
          <CharString index="125">
            vlineto
            34 -25 30 -30 vhcurveto
            -101 hlineto
            -32 -25 -29 -35 hvcurveto
            return
          </CharString>
          <CharString index="126">
            229 0 213 475 193 441 211 return
          </CharString>
          <CharString index="127">
            134 -1 callsubr
            return
          </CharString>
          <CharString index="128">
            -21 944 209 -25 -20 6 callsubr
            return
          </CharString>
          <CharString index="129">
            -119 -1492 rmoveto
            -78 -11 -111 -92 vhcurveto
            return
          </CharString>
          <CharString index="130">
            -438 -321 177 1863 178 hstem
            return
          </CharString>
          <CharString index="131">
            161 232 161 return
          </CharString>
          <CharString index="132">
            -102 21 -21 593 221 497 222 return
          </CharString>
          <CharString index="133">
            -29 1642 -1633 174 464 return
          </CharString>
          <CharString index="134">
            231 -210 -21 return
          </CharString>
          <CharString index="135">
            53 26 40 43 51 return
          </CharString>
          <CharString index="136">
            hlineto
            -29 -24 -27 return
          </CharString>
          <CharString index="137">
            -22 -26 hvcurveto
            -86 vlineto
            -27 24 -18 30 vhcurveto
            return
          </CharString>
        <CharString name=".notdef">
          411 0 346 846 341 -336 336 hstemhm
          222 207 849 203 hintmask 00000000
          hintmask 10111000
          222 78 rmoveto
          -49 25 -29 44 vhcurveto
          1114 hlineto
          51 25 29 47 hvcurveto
          1381 vlineto
          47 -25 29 -51 vhcurveto
          -1117 hlineto
          -41 -25 -29 -50 hvcurveto
          223 -1033 rmoveto
          -22 22 1 28 18 17 285 285 rcurveline
          -287 289 -17 16 -5 26 22 22 rlinecurve
          61 58 21 21 25 -7 15 -15 rlinecurve
          287 -288 281 282 15 16 26 8 23 -24 rlinecurve
          67 -69 19 -18 -5 -25 -23 -22 rlinecurve
          -275 -276 rlineto
          hintmask 11011000
          284 -284 21 -20 3 -26 -24 -24 rlinecurve
          -52 -52 -22 -22 -27 2 -24 25 rlinecurve
          -281 279 -276 -277 -26 -27 -28 -1 -25 26 rlinecurve
          endchar
        </CharString>
        <CharString name=".null">
          -31 callsubr
        </CharString>
        <CharString name="A">
          -41 callgsubr
          1 callsubr
          hintmask 00000000
          hintmask 11011000
          68 57 rmoveto
          -27 21 -30 38 vhcurveto
          129 hlineto
          35 18 19 24 8 hvcurveto
          115 325 rlineto
          657 hlineto
          124 -325 rlineto
          -23 9 14 -20 41 hhcurveto
          140 hlineto
          37 15 28 24 7 -1 7 -2 5 hvcurveto
          -543 1362 rlineto
          76 -30 -38 24 -91 hhcurveto
          -17 hlineto
          -95 -42 -13 -90 -34 hvcurveto
          -505 -1358 rlineto
          hintmask 11101000
          -2 -5 -1 -5 -5 vvcurveto
          442 527 rmoveto
          232 650 rlineto
          7 2 4 3 5 hhcurveto
          5 6 -4 -6 2 hvcurveto
          239 -650 rlineto
          endchar
        </CharString>
        <CharString name="AE">
          4 callsubr
          hstemhm
          66 1672 hintmask 00000000
          hintmask 11101100
          -69 callgsubr
          hintmask 11110100
          -12 callsubr
          endchar
        </CharString>
        <CharString name="AEacute">
          4 callsubr
          95 364 hstemhm
          66 1672 -772 544 hintmask 00000000
          hintmask 11101010
          -69 callgsubr
          hintmask 11110010
          -12 callsubr
          hintmask 00000101
          132 1047 -105 callsubr
        </CharString>
        <CharString name="Aacute">
          -41 callgsubr
          115 364 1 callsubr
          -911 544 -101 callgsubr
          hintmask 00001010
          -355 1047 -105 callsubr
        </CharString>
        <CharString name="Abreve">
          -41 callgsubr
          149 170 1 callsubr
          -1088 687 -101 callgsubr
          hintmask 00001010
          -281 1078 -93 callsubr
        </CharString>
        <CharString name="Acircumflex">
          -41 callgsubr
          142 327 1 callsubr
          -1092 719 -101 callgsubr
          hintmask 00001010
          -538 1071 -107 callgsubr
        </CharString>
        <CharString name="Adieresis">
          -41 callgsubr
          155 304 1 callsubr
          -1141 4 callgsubr
          -101 callgsubr
          hintmask 00001011
          -22 1084 -85 callgsubr
        </CharString>
        <CharString name="Agrave">
          -41 callgsubr
          115 364 1 callsubr
          -1097 544 -101 callgsubr
          hintmask 00001010
          -181 1047 -88 callsubr
        </CharString>
        <CharString name="Amacron">
          -41 callgsubr
          201 217 1 callsubr
          -1040 605 -101 callgsubr
          hintmask 00001010
          -533 1130 -76 callgsubr
        </CharString>
        <CharString name="Aogonek">
          244 -480 176 325 -21 368 216 650 299 0 -20 hstemhm
          1063 191 hintmask 00000000
          hintmask 11101100
          68 57 rmoveto
          -27 21 -30 38 vhcurveto
          129 hlineto
          35 18 19 24 8 hvcurveto
          115 325 rlineto
          657 hlineto
          124 -325 6 -17 10 -16 21 -7 rlinecurve
          -91 -56 -96 -96 -124 vvcurveto
          -61 callgsubr
          46 -38 vhcurveto
          -18 -51 -25 -45 hhcurveto
          -55 -42 21 53 103 121 85 75 52 hvcurveto
          13 11 6 16 15 vvcurveto
          7 -1 7 -2 5 vhcurveto
          -543 1362 rlineto
          76 -30 -38 24 -91 hhcurveto
          -17 hlineto
          -95 -42 -13 -90 -34 hvcurveto
          -505 -1358 rlineto
          hintmask 11110100
          -2 -5 -1 -5 -5 vvcurveto
          442 527 rmoveto
          232 650 rlineto
          7 2 4 3 5 hhcurveto
          5 6 -4 -6 2 hvcurveto
          239 -650 rlineto
          endchar
        </CharString>
        <CharString name="Aring">
          -56 callgsubr
          -107 161 -54 -20 306 161 1 callsubr
          -1015 3 callgsubr
          hintmask 0000000000000000
          hintmask 1100101000000000
          68 57 rmoveto
          -27 21 -30 38 vhcurveto
          129 hlineto
          35 18 19 24 8 hvcurveto
          115 325 rlineto
          657 hlineto
          124 -325 rlineto
          -23 9 14 -20 41 hhcurveto
          140 hlineto
          37 15 28 24 7 -1 7 -2 5 hvcurveto
          -543 1362 rlineto
          76 -30 -38 24 -91 hhcurveto
          -17 hlineto
          -95 -42 -13 -90 -34 hvcurveto
          -505 -1358 rlineto
          hintmask 1110001000000000
          -2 -5 -1 -5 -5 vvcurveto
          442 527 rmoveto
          232 650 rlineto
          7 2 4 3 5 hhcurveto
          5 6 -4 -6 2 hvcurveto
          239 -650 rlineto
          hintmask 0001010110000000
          -266 842 -86 callgsubr
        </CharString>
        <CharString name="Atilde">
          -41 callgsubr
          142 194 1 callsubr
          -1114 761 -101 callgsubr
          hintmask 00000000
          -549 1082 -81 callgsubr
          hintmask 00001010
          -82 callsubr
        </CharString>
        <CharString name="B">
          19 callsubr
          hstemhm
          238 248 541 255 -161 266 hintmask 00000000
          hintmask 11110100
          -17 callsubr
          hintmask 11111000
          -46 callgsubr
          hintmask 11110100
          -11 callsubr
          endchar
        </CharString>
        <CharString name="C">
          -15 callgsubr
          hstem
          111 271 vstem
          -95 callgsubr
          endchar
        </CharString>
        <CharString name="CR">
          -783 endchar
        </CharString>
        <CharString name="Cacute">
          -15 callgsubr
          67 364 hstemhm
          111 271 264 544 hintmask 11010000
          -95 callgsubr
          hintmask 00101000
          224 1293 -105 callsubr
        </CharString>
        <CharString name="Ccaron">
          -15 callgsubr
          98 334 hstemhm
          111 271 29 728 hintmask 11010000
          -95 callgsubr
          hintmask 00101000
          167 1321 -104 callgsubr
        </CharString>
        <CharString name="Ccedilla">
          239 -477 175 278 220 -199 -21 1367 217 hstemhm
          111 271 429 193 hintmask 00000000
          hintmask 10111100
          522 -320 rmoveto
          -42 callsubr
          98 -58 75 -61 54 vhcurveto
          84 4 71 11 68 21 rrcurveto
          75 22 115 48 91 vvcurveto
          15 -7 20 -15 29 vhcurveto
          43 -22 -15 9 -25 hhcurveto
          -30 -38 -19 -19 -38 hvcurveto
          -40 -84 -79 -15 -89 hhcurveto
          -133 -121 45 96 -88 hvcurveto
          -108 120 -24 173 152 vvcurveto
          293 112 268 317 vhcurveto
          hintmask 11011100
          121 127 -45 -135 7 hvcurveto
          -43 2 25 -36 42 hhcurveto
          69 hlineto
          92 18 62 62 251 -272 101 -218 -452 -261 -316 -462 -418 206 -321 377 -58 hvcurveto
          46 -44 71 -66 -78 vvcurveto
          -39 callgsubr
          endchar
        </CharString>
        <CharString name="Ccircumflex">
          -15 callgsubr
          95 327 hstemhm
          111 271 49 719 hintmask 11010000
          -95 callgsubr
          hintmask 00101000
          7 1318 -107 callgsubr
        </CharString>
        <CharString name="Cdotaccent">
          -15 callgsubr
          107 -1 callsubr
          111 271 243 327 hintmask 11010000
          -95 callgsubr
          hintmask 00101000
          275 1330 -96 callgsubr
          endchar
        </CharString>
        <CharString name="D">
          241 0 218 1095 220 hstem
          238 251 674 267 vstem
          -72 callgsubr
          endchar
        </CharString>
        <CharString name="Dcaron">
          241 0 218 1095 220 125 334 hstemhm
          238 251 -115 728 61 267 hintmask 11010100
          -72 callgsubr
          hintmask 00101000
          155 1437 -104 callgsubr
        </CharString>
        <CharString name="Dcroat">
          -71 callsubr
        </CharString>
        <CharString name="Delta">
          244 0 217 1024 292 hstem
          56 1424 vstem
          56 57 rmoveto
          -27 21 -30 38 vhcurveto
          1313 hlineto
          37 15 28 24 7 -1 7 -2 5 hvcurveto
          -576 1362 rlineto
          98 -42 -22 2 -97 hhcurveto
          -101 -26 -13 -90 -34 hvcurveto
          -520 -1358 rlineto
          -2 -5 -1 -5 -5 vvcurveto
          312 160 rmoveto
          356 1024 rlineto
          7 2 7 3 6 hhcurveto
          7 6 -3 -7 3 hvcurveto
          401 -1024 rlineto
          endchar
        </CharString>
        <CharString name="E">
          70 0 -56 callsubr
          hstem
          234 251 vstem
          -99 callgsubr
          endchar
        </CharString>
        <CharString name="Eacute">
          70 0 -56 callsubr
          95 364 1 callgsubr
          73 544 hintmask 11101000
          -99 callgsubr
          hintmask 00010100
          416 162 -105 callsubr
        </CharString>
        <CharString name="Ebreve">
          70 0 -56 callsubr
          129 170 1 callgsubr
          -95 687 hintmask 11101000
          -99 callgsubr
          hintmask 00010100
          499 193 -93 callsubr
        </CharString>
        <CharString name="Ecaron">
          70 0 -56 callsubr
          125 334 1 callgsubr
          -115 728 hintmask 11101000
          -99 callgsubr
          hintmask 00010100
          406 189 -104 callgsubr
        </CharString>
        <CharString name="Ecircumflex">
          70 0 -56 callsubr
          122 327 1 callgsubr
          -119 719 hintmask 11101000
          -99 callgsubr
          hintmask 00010100
          222 186 -107 callgsubr
        </CharString>
        <CharString name="Edieresis">
          70 0 -56 callsubr
          135 304 1 callgsubr
          -155 4 callgsubr
          hintmask 11101000
          -99 callgsubr
          hintmask 00010110
          751 199 -85 callgsubr
        </CharString>
        <CharString name="Edotaccent">
          70 0 -56 callsubr
          134 325 1 callgsubr
          92 327 hintmask 11101000
          -99 callgsubr
          hintmask 00010100
          507 198 -96 callgsubr
          endchar
        </CharString>
        <CharString name="Egrave">
          70 0 -56 callsubr
          95 364 1 callgsubr
          -138 544 hintmask 11101000
          -99 callgsubr
          hintmask 00010100
          565 162 -88 callsubr
        </CharString>
        <CharString name="Emacron">
          70 0 -56 callsubr
          181 217 1 callgsubr
          -55 605 hintmask 11101000
          -99 callgsubr
          hintmask 00010100
          239 245 -76 callgsubr
        </CharString>
        <CharString name="Eng">
          409 -568 207 382 -55 callsubr
          hstemhm
          241 237 753 239 -238 237 hintmask 10001000
          844 -456 rmoveto
          -70 118 -42 140 201 167 128 311 vhcurveto
          318 vlineto
          -239 -149 rlineto
          -114 vlineto
          -158 -39 -129 -137 vhcurveto
          -81 -52 33 -11 hhcurveto
          -26 -41 -56 -72 hvcurveto
          hintmask 01110100
          -603 517 -100 callgsubr
          endchar
        </CharString>
        <CharString name="Eogonek">
          70 -480 176 304 -56 callsubr
          hstem
          234 251 303 192 vstem
          -37 callsubr
          693 hlineto
          -99 -57 -95 -95 -121 vvcurveto
          -152 145 -55 94 88 73 12 callsubr
          -53 -25 -45 hhcurveto
          -52 -34 24 45 101 154 113 69 28 hvcurveto
          17 7 7 21 21 vvcurveto
          108 -41 callsubr
          -689 432 544 -90 callgsubr
          -544 438 684 -90 callgsubr
          -879 hlineto
          -31 -25 -29 -35 hvcurveto
          endchar
        </CharString>
        <CharString name="Eth">
          -71 callsubr
        </CharString>
        <CharString name="Euro">
          71 -25 209 272 171 161 171 284 209 hstem
          248 238 vstem
          103 456 rmoveto
          176 hlineto
          -286 58 224 -195 291 hhcurveto
          238 180 107 92 12 -3 15 -22 34 hvcurveto
          -14 21 rlineto
          22 -14 -21 8 -17 hhcurveto
          -26 -22 -14 -14 -20 hvcurveto
          -33 -48 -60 -41 -130 hhcurveto
          -169 -137 116 156 -45 hvcurveto
          455 hlineto
          -18 callgsubr
          -488 hlineto
          -3 31 0 32 35 vvcurveto
          9 0 16 4 38 vhcurveto
          517 hlineto
          -18 callgsubr
          -497 hlineto
          153 40 115 131 185 hhcurveto
          101 73 -46 -39 63 hvcurveto
          -12 19 19 -7 17 hhcurveto
          25 23 15 30 23 hvcurveto
          24 32 rlineto
          15 21 5 20 15 vvcurveto
          24 -13 17 -14 12 vhcurveto
          45 -52 -130 82 -191 hhcurveto
          -292 -220 -190 -303 -72 hvcurveto
          -150 -27 callsubr
          127 hlineto
          -2 -25 0 -19 -14 vvcurveto
          -36 1 -34 3 -33 vhcurveto
          -149 -27 callsubr
          endchar
        </CharString>
        <CharString name="F">
          25 callsubr
          hstem
          236 250 vstem
          -44 callgsubr
          endchar
        </CharString>
        <CharString name="G">
          -25 callsubr
          hstem
          139 269 745 245 vstem
          -97 callsubr
          endchar
        </CharString>
        <CharString name="Gbreve">
          -25 callsubr
          104 170 hstemhm
          139 269 38 687 20 245 hintmask 11101010
          -97 callsubr
          hintmask 00010100
          650 879 -93 callsubr
        </CharString>
        <CharString name="Gcircumflex">
          -25 callsubr
          97 327 hstemhm
          139 269 35 719 -9 245 hintmask 11101010
          -97 callsubr
          hintmask 00010100
          394 872 -107 callgsubr
        </CharString>
        <CharString name="Gcommaaccent">
          241 -547 -21 543 224 418 202 522 217 hstemhm
          139 269 278 300 167 245 hintmask 01111010
          -97 callsubr
          hintmask 10000100
          547 -1003 -104 callsubr
          endchar
        </CharString>
        <CharString name="Gdotaccent">
          -25 callsubr
          109 -1 callsubr
          139 269 274 327 144 245 hintmask 11101010
          -97 callsubr
          hintmask 00010100
          707 884 -96 callgsubr
          endchar
        </CharString>
        <CharString name="H">
          10 callgsubr
          662 -20 hstemhm
          226 251 745 6 callgsubr
          hintmask 10111100
          2 callsubr
          hintmask 01111100
          -35 callgsubr
          hintmask 10111100
          -87 callsubr
          endchar
        </CharString>
        <CharString name="Hbar">
          10 callgsubr
          228 193 241 -20 hstemhm
          226 251 745 6 callgsubr
          hintmask 10111110
          2 callsubr
          hintmask 01111110
          31 25 29 35 hvcurveto
          586 745 -585 vlineto
          -33 callgsubr
          1034 75 vlineto
          24 20 16 21 hvcurveto
          118 vlineto
          22 -20 16 -24 vhcurveto
          -75 177 hlineto
          -87 callsubr
          -177 -745 177 -78 callsubr
          -177 -93 vlineto
          -23 -20 -16 -21 hvcurveto
          hintmask 10111110
          -118 vlineto
          -22 20 -16 23 vhcurveto
          93 hlineto
          251 -228 rmoveto
          228 vlineto
          hintmask 01111110
          745 -228 hlineto
          endchar
        </CharString>
        <CharString name="Hcircumflex">
          10 callgsubr
          662 16 callsubr
          226 251 23 719 3 6 callgsubr
          hintmask 10110101
          2 callsubr
          hintmask 01110101
          -35 callgsubr
          hintmask 10110101
          -87 callsubr
          hintmask 00001010
          364 186 -107 callgsubr
        </CharString>
        <CharString name="I">
          -55 callgsubr
          hstem
          216 251 vstem
          -87 callgsubr
          endchar
        </CharString>
        <CharString name="IJ">
          241 -26 207 -160 -55 callsubr
          hstemhm
          216 251 634 249 hintmask 01110000
          -87 callgsubr
          hintmask 10101000
          498 -1383 -68 callgsubr
          endchar
        </CharString>
        <CharString name="Iacute">
          -55 callgsubr
          115 364 hstemhm
          170 544 -498 251 hintmask 11001000
          -87 callgsubr
          hintmask 00110000
          46 162 -105 callsubr
        </CharString>
        <CharString name="Ibreve">
          -55 callgsubr
          148 170 hstemhm
          0 687 -471 251 hintmask 11001000
          -87 callgsubr
          hintmask 00110000
          127 192 -93 callsubr
        </CharString>
        <CharString name="Icircumflex">
          21 -21 1533 16 callsubr
          -16 719 -487 251 hintmask 11001000
          -87 callgsubr
          hintmask 00110000
          -142 186 -107 callgsubr
        </CharString>
        <CharString name="Idieresis">
          -55 callgsubr
          155 304 hstemhm
          -60 298 -22 251 -21 298 hintmask 11001000
          -87 callgsubr
          hintmask 00110100
          379 199 -85 callgsubr
        </CharString>
        <CharString name="Idotaccent">
          -55 callgsubr
          154 -1 callsubr
          177 327 -288 251 hintmask 11001000
          -87 callgsubr
          hintmask 00110000
          125 198 -96 callgsubr
          endchar
        </CharString>
        <CharString name="Igrave">
          -55 callgsubr
          115 364 hstemhm
          -12 544 -316 251 hintmask 11001000
          -87 callgsubr
          hintmask 00110000
          224 162 -88 callsubr
        </CharString>
        <CharString name="Imacron">
          -55 callgsubr
          201 217 hstemhm
          38 605 -427 251 hintmask 11001000
          -87 callgsubr
          hintmask 00110000
          -135 245 -76 callgsubr
        </CharString>
        <CharString name="Iogonek">
          -480 176 325 -55 callsubr
          hstemhm
          125 188 -97 6 callgsubr
          hintmask 11101000
          216 64 rmoveto
          -28 15 -36 50 vhcurveto
          -95 -62 -61 -96 -109 vvcurveto
          -134 116 -79 122 88 81 12 callsubr
          -61 -25 -45 hhcurveto
          hintmask 11110000
          -60 -29 39 52 65 48 89 81 66 hvcurveto
          16 12 9 21 24 vvcurveto
          1405 -78 callsubr
          endchar
        </CharString>
        <CharString name="Itilde">
          25 callgsubr
          -48 761 -497 251 hintmask 11001000
          -87 callgsubr
          hintmask 00000000
          -163 197 -81 callgsubr
          hintmask 00110000
          -82 callsubr
        </CharString>
        <CharString name="J">
          -442 -26 207 1352 -20 hstem
          418 249 vstem
          31 86 -68 callgsubr
          endchar
        </CharString>
        <CharString name="Jcircumflex">
          -442 -26 207 1352 16 callsubr
          175 719 -476 249 hintmask 11001000
          31 86 -68 callgsubr
          hintmask 00110000
          234 1569 -107 callgsubr
        </CharString>
        <CharString name="K">
          72 -17 229 -191 -55 callsubr
          26 -20 hstemhm
          216 6 callgsubr
          hintmask 01011000
          803 279 27 callgsubr
          hintmask 10011000
          -69 callsubr
          hintmask 01101000
          -11 callgsubr
        </CharString>
        <CharString name="Kcommaaccent">
          72 -547 -21 551 229 -191 -21 1539 -20 hstemhm
          216 251 121 300 hintmask 10000100
          588 -220 -104 callsubr
          hintmask 00000000
          215 499 27 callgsubr
          hintmask 00111000
          -69 callsubr
          hintmask 00111000
          -11 callgsubr
        </CharString>
        <CharString name="L">
          -97 0 223 1310 -20 hstem
          239 251 vstem
          239 -76 callsubr
          endchar
        </CharString>
        <CharString name="Lacute">
          -97 0 223 1310 -20 115 364 hstemhm
          239 251 -215 544 hintmask 11010000
          239 -76 callsubr
          hintmask 00101000
          128 162 -105 callsubr
        </CharString>
        <CharString name="Lcaron">
          -97 0 223 793 531 -14 -20 hstemhm
          239 251 288 276 hintmask 10110000
          239 -76 callsubr
          hintmask 01001000
          623 -453 -83 callgsubr
        </CharString>
        <CharString name="Lcommaaccent">
          -97 -547 -21 568 223 1310 -20 hstemhm
          239 251 31 300 hintmask 01110000
          239 -76 callsubr
          hintmask 10001000
          282 -1689 -104 callsubr
          endchar
        </CharString>
        <CharString name="Ldot">
          -97 0 223 390 325 595 -20 hstemhm
          240 251 292 327 hintmask 10110000
          240 -76 callsubr
          hintmask 01001000
          707 -856 -96 callgsubr
          endchar
        </CharString>
        <CharString name="Lslash">
          -97 0 223 157 658 495 -20 hstemhm
          70 774 -605 251 hintmask 01010000
          134 380 rmoveto
          8 8 2 7 9 hvcurveto
          657 442 rlineto
          17 13 11 22 22 vvcurveto
          5 vlineto
          -9 89 rlineto
          35 -4 -21 21 -27 hhcurveto
          -13 -15 -5 -12 -15 hvcurveto
          -641 -442 rlineto
          -15 -12 -14 -18 -24 vvcurveto
          -4 0 -4 1 -4 vhcurveto
          19 -90 rlineto
          -25 5 18 -18 21 hhcurveto
          hintmask 10101000
          105 -316 -73 callsubr
          738 -21 callgsubr
          110 -41 callsubr
          -542 1246 hlineto
          -87 callsubr
          endchar
        </CharString>
        <CharString name="M">
          747 -55 callgsubr
          hstem
          129 1780 vstem
          -81 callsubr
          endchar
        </CharString>
        <CharString name="N">
          409 -55 callgsubr
          hstem
          241 237 754 237 vstem
          241 61 -100 callgsubr
          endchar
        </CharString>
        <CharString name="Nacute">
          409 -55 callgsubr
          115 364 hstemhm
          241 237 219 544 -9 237 hintmask 11010100
          241 61 -100 callgsubr
          hintmask 00101000
          548 222 -105 callsubr
        </CharString>
        <CharString name="Ncaron">
          409 -55 callgsubr
          135 334 hstemhm
          241 237 35 728 -9 237 hintmask 11010100
          241 61 -100 callgsubr
          hintmask 00101000
          542 239 -104 callgsubr
        </CharString>
        <CharString name="Ncommaaccent">
          409 -547 -21 589 -55 callsubr
          hstemhm
          241 237 230 300 224 237 hintmask 01110100
          241 61 -100 callgsubr
          hintmask 10001000
          467 -1629 -104 callsubr
          endchar
        </CharString>
        <CharString name="Ntilde">
          409 25 callgsubr
          241 237 32 761 -39 237 hintmask 11010100
          241 61 -100 callgsubr
          hintmask 00000000
          370 257 -81 callgsubr
          hintmask 00101000
          -82 callsubr
        </CharString>
        <CharString name="O">
          -39 callsubr
          hstem
          115 271 937 271 vstem
          -100 callsubr
          endchar
        </CharString>
        <CharString name="OE">
          921 -25 217 -192 -56 callsubr
          -192 217 -6 callsubr
          700 6 callgsubr
          hintmask 01110110
          115 782 rmoveto
          -432 275 -375 459 99 97 11 14 92 vhcurveto
          889 -90 callgsubr
          -689 432 544 -90 callgsubr
          -544 438 684 -21 callgsubr
          hintmask 10101110
          108 -41 callsubr
          -881 hlineto
          hintmask 01110110
          18 -94 -102 7 -88 hhcurveto
          hintmask 10101110
          -443 -298 -325 -451 hvcurveto
          734 -590 rmoveto
          -323 15 -140 281 293 vvcurveto
          324 178 236 290 70 86 -10 -20 76 vhcurveto
          -1091 vlineto
          -80 -19 -80 -13 -77 4 rrcurveto
          endchar
        </CharString>
        <CharString name="Oacute">
          -39 callsubr
          70 364 -6 callsubr
          293 544 100 271 hintmask 11010100
          -100 callsubr
          hintmask 00101000
          385 853 -105 callsubr
        </CharString>
        <CharString name="Obreve">
          -39 callsubr
          104 170 -6 callsubr
          119 687 131 271 hintmask 11010100
          -100 callsubr
          hintmask 00101000
          462 884 -93 callsubr
        </CharString>
        <CharString name="Ocircumflex">
          -39 callsubr
          97 327 -6 callsubr
          107 719 111 271 hintmask 11010100
          -100 callsubr
          hintmask 00101000
          197 877 -107 callgsubr
        </CharString>
        <CharString name="Odieresis">
          -39 callsubr
          110 304 -6 callsubr
          63 4 callgsubr
          70 271 hintmask 11010010
          -100 callsubr
          hintmask 00101100
          718 890 -85 callgsubr
        </CharString>
        <CharString name="Ograve">
          -39 callsubr
          70 364 -6 callsubr
          117 544 276 271 hintmask 11010100
          -100 callsubr
          hintmask 00101000
          569 853 -88 callsubr
        </CharString>
        <CharString name="Ohungarumlaut">
          -39 callsubr
          71 362 -6 callsubr
          149 925 -137 271 hintmask 11010100
          -100 callsubr
          hintmask 00101000
          660 870 -78 callgsubr
        </CharString>
        <CharString name="Omacron">
          -39 callsubr
          156 217 -6 callsubr
          164 605 168 271 hintmask 11010100
          -100 callsubr
          hintmask 00101000
          207 936 -76 callgsubr
        </CharString>
        <CharString name="Omega">
          582 0 200 -200 218 1115 227 hstemhm
          190 271 943 271 hintmask 00000000
          hintmask 01111000
          155 57 rmoveto
          -32 28 -25 35 vhcurveto
          523 hlineto
          35 19 25 31 hvcurveto
          90 vlineto
          57 -58 12 -35 26 vhcurveto
          -158 115 -83 219 206 vvcurveto
          334 158 218 310 326 159 -221 -334 -10 vhcurveto
          -5 -172 -46 -174 -108 -112 -23 -25 -28 -29 -29 -25 rrcurveto
          -44 -37 -46 -10 -49 vvcurveto
          -88 vlineto
          -32 28 -25 35 vhcurveto
          542 hlineto
          35 19 25 31 hvcurveto
          105 -41 callsubr
          -233 hlineto
          -19 -102 -18 -7 hhcurveto
          -4 -2 2 3 2 1 2 2 1 hvcurveto
          206 126 152 219 283 vvcurveto
          hintmask 10111000
          431 -299 291 -445 -443 -298 -288 -431 -286 133 -232 218 -113 vhcurveto
          hintmask 01111000
          2 -1 1 -1 -2 vvcurveto
          -3 -2 -2 -3 vhcurveto
          0 -108 17 -46 vhcurveto
          -167 hlineto
          -35 -28 -25 -31 hvcurveto
          endchar
        </CharString>
        <CharString name="Oslash">
          417 -25 214 1159 212 hstem
          115 257 965 257 vstem
          273 22 rmoveto
          -15 7 -13 13 -9 vhcurveto
          84 -54 rlineto
          -5 7 7 -2 7 hhcurveto
          17 17 12 18 11 hvcurveto
          63 102 rlineto
          -52 98 114 -29 130 hhcurveto
          442 304 355 447 255 -86 222 -166 141 hvcurveto
          77 123 rlineto
          5 9 3 9 9 vvcurveto
          15 -9 16 -23 13 vhcurveto
          -71 39 rlineto
          5 -8 -9 2 -8 hhcurveto
          -18 -16 -11 -18 -11 hvcurveto
          -70 -111 rlineto
          42 -94 -110 23 -124 hhcurveto
          -443 -298 -330 -451 -241 84 -222 155 -150 hvcurveto
          -73 -117 rlineto
          -5 -9 -3 -9 -9 vvcurveto
          212 353 rmoveto
          -77 109 -36 146 148 vvcurveto
          334 183 236 299 80 70 -17 -29 60 vhcurveto
          -439 -1057 rmoveto
          585 939 rlineto
          85 -106 42 -145 -155 vvcurveto
          -321 -157 -268 -327 -89 -76 20 36 -63 vhcurveto
          endchar
        </CharString>
        <CharString name="Otilde">
          -39 callsubr
          97 194 -6 callsubr
          86 761 90 271 hintmask 11010100
          -100 callsubr
          hintmask 00000000
          187 888 -81 callgsubr
          hintmask 00101000
          -82 callsubr
        </CharString>
        <CharString name="P">
          26 callgsubr
          hstem
          229 251 557 262 vstem
          -58 callsubr
          endchar
        </CharString>
        <CharString name="Q">
          411 -313 244 1398 229 hstem
          115 271 937 271 vstem
          761 -20 rmoveto
          -237 214 348 -56 190 hhcurveto
          91 39 20 82 17 hvcurveto
          11 51 1 13 11 vvcurveto
          38 -16 29 -45 -88 -74 -24 8 -97 vhcurveto
          -115 10 -114 33 -102 53 rrcurveto
          367 60 206 323 383 vvcurveto
          442 -258 339 -480 -443 -298 -328 -451 -404 238 -351 408 -44 vhcurveto
          -375 798 rmoveto
          324 178 227 290 313 156 -257 -294 -322 -147 -261 -323 -324 -143 282 301 vhcurveto
          endchar
        </CharString>
        <CharString name="R">
          241 -17 -24 callgsubr
          hstemhm
          234 249 620 6 callgsubr
          hintmask 01111100
          -59 callgsubr
          hintmask 10111100
          -89 callgsubr
          endchar
        </CharString>
        <CharString name="Racute">
          241 -17 -24 callgsubr
          95 364 hstemhm
          234 249 109 544 -33 6 callgsubr
          hintmask 01110101
          -59 callgsubr
          hintmask 10110101
          -89 callgsubr
          hintmask 00001010
          201 864 -105 callsubr
        </CharString>
        <CharString name="Rcaron">
          241 -17 -24 callgsubr
          125 334 hstemhm
          234 249 -99 728 -9 6 callgsubr
          hintmask 01110101
          -59 callgsubr
          hintmask 10110101
          -89 callgsubr
          hintmask 00001010
          171 891 -104 callgsubr
        </CharString>
        <CharString name="Rcommaaccent">
          241 -547 -21 551 -24 callgsubr
          hstemhm
          234 249 112 300 208 6 callgsubr
          hintmask 00111101
          -59 callgsubr
          hintmask 01011101
          -89 callgsubr
          hintmask 10000010
          112 -987 -104 callsubr
          endchar
        </CharString>
        <CharString name="S">
          -9 callsubr
          hstem
          127 257 460 250 vstem
          -105 callgsubr
          endchar
        </CharString>
        <CharString name="Sacute">
          -9 callsubr
          70 364 hstemhm
          127 257 49 544 -133 250 hintmask 11010100
          -105 callgsubr
          hintmask 00101000
          415 1469 -105 callsubr
        </CharString>
        <CharString name="Scaron">
          -9 callsubr
          100 334 hstemhm
          127 257 -142 728 -126 250 hintmask 11010100
          -105 callgsubr
          hintmask 00101000
          402 1496 -104 callgsubr
        </CharString>
        <CharString name="Scedilla">
          -98 -477 175 303 -21 22 -21 1347 230 hstemhm
          127 257 223 193 44 250 hintmask 00000000
          hintmask 10111110
          110 162 rmoveto
          -60 141 -63 72 -23 vhcurveto
          53 -16 58 -12 60 -7 rrcurveto
          46 -43 67 -65 -76 vvcurveto
          -39 callgsubr
          -42 callsubr
          100 -60 76 -63 55 vhcurveto
          214 29 203 160 257 vvcurveto
          272 -226 122 -209 81 vhcurveto
          -128 50 -147 57 139 vvcurveto
          124 94 57 126 116 100 -50 -56 85 vhcurveto
          -9 13 12 -3 11 hhcurveto
          26 19 21 61 32 hvcurveto
          18 34 12 23 22 vvcurveto
          67 -138 65 -49 18 vhcurveto
          hintmask 11011110
          25 -69 -81 12 -94 hhcurveto
          -244 -246 -146 -260 -254 210 -147 207 -78 hvcurveto
          153 -58 147 -72 -130 vvcurveto
          -136 -100 -70 -148 -137 -121 63 48 -84 vhcurveto
          6 -11 -10 2 -9 hhcurveto
          -37 -24 -39 -36 -18 hvcurveto
          hintmask 10111110
          -22 -43 -13 -25 -21 vvcurveto
          endchar
        </CharString>
        <CharString name="Scircumflex">
          -9 callsubr
          97 327 hstemhm
          127 257 -131 719 -128 250 hintmask 11010100
          -105 callgsubr
          hintmask 00101000
          233 1493 -107 callgsubr
        </CharString>
        <CharString name="Scommaaccent">
          -98 -547 -21 543 232 1121 230 hstemhm
          127 257 73 300 87 250 hintmask 01110100
          -105 callgsubr
          hintmask 10001000
          347 -382 -104 callsubr
          endchar
        </CharString>
        <CharString name="T">
          -100 21 -21 1315 218 hstem
          468 252 vstem
          -74 callsubr
          endchar
        </CharString>
        <CharString name="Tbar">
          -100 21 -21 616 208 491 218 hstem
          468 252 vstem
          -42 callgsubr
          552 201 vlineto
          24 20 16 21 hvcurveto
          133 vlineto
          22 -20 16 -24 vhcurveto
          -201 491 374 hlineto
          35 19 25 31 hvcurveto
          105 -41 callsubr
          -988 hlineto
          -35 -28 -25 -31 hvcurveto
          -105 vlineto
          -32 28 -25 35 vhcurveto
          361 -491 -198 hlineto
          -23 -20 -16 -21 hvcurveto
          -133 vlineto
          -22 20 -16 23 vhcurveto
          198 hlineto
          endchar
        </CharString>
        <CharString name="Tcaron">
          -100 21 -21 1315 218 125 334 hstemhm
          237 728 -497 252 hintmask 11001000
          -74 callsubr
          hintmask 00110000
          39 343 -104 callgsubr
        </CharString>
        <CharString name="Tcommaaccent">
          -100 -547 -21 589 -21 1315 218 hstemhm
          448 300 -280 252 hintmask 01101000
          -74 callsubr
          hintmask 10010000
          -20 -1535 -104 callsubr
          endchar
        </CharString>
        <CharString name="Thorn">
          68 21 -21 251 212 617 217 236 -20 hstem
          239 251 547 262 vstem
          239 62 rmoveto
          -32 21 -30 34 vhcurveto
          140 hlineto
          36 20 34 30 hvcurveto
          202 vlineto
          -8 63 57 -7 83 hhcurveto
          344 262 185 344 359 -227 158 -358 hvcurveto
          -224 172 hlineto
          -87 callsubr
          251 -993 rmoveto
          604 230 vlineto
          130 187 -44 -250 -270 -178 -53 -209 -58 -54 5 8 -48 hvcurveto
          endchar
        </CharString>
        <CharString name="U">
          237 -28 callgsubr
          hstem
          155 248 722 248 vstem
          155 -103 callgsubr
          endchar
        </CharString>
        <CharString name="Uacute">
          -32 callsubr
          115 364 -14 callgsubr
          191 544 -13 248 hintmask 11010100
          240 -103 callgsubr
          hintmask 00101000
          531 162 -105 callsubr
        </CharString>
        <CharString name="Ubreve">
          -32 callsubr
          149 170 -14 callgsubr
          17 687 18 248 hintmask 11010100
          240 -103 callgsubr
          hintmask 00101000
          608 193 -93 callsubr
        </CharString>
        <CharString name="Ucircumflex">
          -32 callsubr
          142 327 -14 callgsubr
          6 719 -3 248 hintmask 11010100
          240 -103 callgsubr
          hintmask 00101000
          344 186 -107 callgsubr
        </CharString>
        <CharString name="Udieresis">
          -32 callsubr
          155 304 -14 callgsubr
          -39 4 callgsubr
          -43 248 hintmask 11010010
          240 -103 callgsubr
          hintmask 00101100
          864 199 -85 callgsubr
        </CharString>
        <CharString name="Ugrave">
          -32 callsubr
          115 364 -14 callgsubr
          -12 544 190 248 hintmask 11010100
          240 -103 callgsubr
          hintmask 00101000
          688 162 -88 callsubr
        </CharString>
        <CharString name="Uhungarumlaut">
          -32 callsubr
          116 362 -14 callgsubr
          27 925 -230 248 hintmask 11010100
          240 -103 callgsubr
          hintmask 00101000
          786 179 -78 callgsubr
        </CharString>
        <CharString name="Umacron">
          -32 callsubr
          201 217 -14 callgsubr
          65 605 52 248 hintmask 11010100
          240 -103 callgsubr
          hintmask 00101000
          356 245 -76 callgsubr
        </CharString>
        <CharString name="Uogonek">
          406 -480 176 278 -22 callsubr
          -14 callgsubr
          174 192 356 248 hintmask 01110100
          240 -103 callgsubr
          hintmask 10001000
          422 -1742 -45 callgsubr
        </CharString>
        <CharString name="Uring">
          406 -26 224 1228 161 -54 -20 306 161 -14 callgsubr
          77 3 callgsubr
          77 248 hintmask 10101001
          240 -103 callgsubr
          hintmask 01010110
          610 -43 -86 callgsubr
        </CharString>
        <CharString name="Utilde">
          -32 callsubr
          142 194 -14 callgsubr
          -12 761 -27 248 hintmask 11010100
          240 -103 callgsubr
          hintmask 00000000
          337 197 -81 callgsubr
          hintmask 00101000
          -82 callsubr
        </CharString>
        <CharString name="V">
          72 0 231 -210 -55 callsubr
          hstemhm
          25 1305 hintmask 00000000
          hintmask 01110000
          486 111 rmoveto
          -90 31 46 -21 95 hhcurveto
          53 hlineto
          114 20 40 59 29 hvcurveto
          125 253 293 752 37 347 rrcurveto
          1 6 0 7 6 vvcurveto
          37 -25 26 -49 vhcurveto
          -111 hlineto
          -26 -40 -14 -52 -9 hvcurveto
          -75 -429 -145 -423 -147 -378 rrcurveto
          -4 -2 -6 -2 -6 hhcurveto
          -6 -5 2 3 -1 hvcurveto
          -381 1252 rlineto
          24 -7 -20 21 -27 hhcurveto
          hintmask 10110000
          -171 hlineto
          -31 -15 -27 -27 -8 2 -8 2 -7 hvcurveto
          endchar
        </CharString>
        <CharString name="W">
          -50 callsubr
          hstemhm
          1846 264 hintmask 00000000
          hintmask 00111100
          -82 callgsubr
          hintmask 10011100
          -83 callsubr
          hintmask 01011100
          -96 callsubr
          endchar
        </CharString>
        <CharString name="Wacute">
          -50 callsubr
          115 364 hstemhm
          908 544 394 264 hintmask 00000000
          hintmask 00111001
          -82 callgsubr
          hintmask 10011001
          -83 callsubr
          hintmask 01011001
          -96 callsubr
          hintmask 00000110
          898 202 -105 callsubr
        </CharString>
        <CharString name="Wcircumflex">
          -50 callsubr
          142 327 hstemhm
          771 719 356 264 hintmask 00000000
          hintmask 00111001
          -82 callgsubr
          hintmask 10011001
          -83 callsubr
          hintmask 01011001
          -96 callsubr
          hintmask 00000110
          759 226 -107 callgsubr
        </CharString>
        <CharString name="Wdieresis">
          -50 callsubr
          155 304 hstemhm
          714 4 callgsubr
          328 264 hintmask 0000000000000000
          hintmask 0011100010000000
          -82 callgsubr
          hintmask 1001100010000000
          -83 callsubr
          hintmask 0101100010000000
          -96 callsubr
          hintmask 0000011100000000
          1267 239 -85 callgsubr
        </CharString>
        <CharString name="Wgrave">
          -50 callsubr
          115 364 hstemhm
          765 544 537 264 hintmask 00000000
          hintmask 00111001
          -82 callgsubr
          hintmask 10011001
          -83 callsubr
          hintmask 01011001
          -96 callsubr
          hintmask 00000110
          1115 202 -88 callsubr
        </CharString>
        <CharString name="X">
          71 -55 callgsubr
          hstem
          64 1240 vstem
          83 48 rmoveto
          -27 17 -21 29 vhcurveto
          138 hlineto
          48 16 27 21 13 hvcurveto
          330 546 354 -546 rlineto
          -21 13 17 -27 45 hhcurveto
          155 hlineto
          29 17 22 27 13 -4 14 -9 14 hvcurveto
          -159 237 -159 225 -158 235 421 658 rcurveline
          8 13 4 14 13 vvcurveto
          27 -18 21 -29 vhcurveto
          -149 hlineto
          -48 -15 -27 -21 -12 hvcurveto
          -309 -522 -327 522 rlineto
          21 -13 -16 27 -48 hhcurveto
          -153 hlineto
          -29 -18 -22 -27 -13 5 -15 9 -13 hvcurveto
          449 -662 -431 -691 rlineto
          -9 -14 -4 -14 -14 vvcurveto
          endchar
        </CharString>
        <CharString name="Y">
          63 -55 callgsubr
          hstem
          569 249 vstem
          -94 callgsubr
          endchar
        </CharString>
        <CharString name="Yacute">
          63 -55 callgsubr
          115 364 hstemhm
          524 544 -499 249 hintmask 11001000
          -94 callgsubr
          hintmask 00110000
          47 1116 -105 callsubr
        </CharString>
        <CharString name="Ycircumflex">
          63 21 -21 1533 16 callsubr
          335 719 -485 249 hintmask 11001000
          -94 callgsubr
          hintmask 00110000
          -144 1140 -107 callgsubr
        </CharString>
        <CharString name="Ydieresis">
          63 -55 callgsubr
          155 304 hstemhm
          294 298 -23 249 -18 298 hintmask 11001000
          -94 callgsubr
          hintmask 00110100
          380 1153 -85 callgsubr
        </CharString>
        <CharString name="Ygrave">
          63 -55 callgsubr
          115 364 hstemhm
          385 544 -360 249 hintmask 11001000
          -94 callgsubr
          hintmask 00110000
          268 1116 -88 callsubr
        </CharString>
        <CharString name="Z">
          -19 callsubr
          hstemhm
          74 1050 hintmask 00000000
          hintmask 01110000
          80 87 rmoveto
          hintmask 10110000
          -91 callsubr
          endchar
        </CharString>
        <CharString name="Zacute">
          -19 callsubr
          95 364 hstemhm
          74 1050 -706 544 hintmask 00000000
          hintmask 01101000
          80 87 rmoveto
          hintmask 10101000
          -91 callsubr
          hintmask 00010100
          430 1544 -105 callsubr
        </CharString>
        <CharString name="Zcaron">
          -19 callsubr
          125 334 hstemhm
          74 1050 -864 728 hintmask 00000000
          hintmask 01101000
          80 87 rmoveto
          hintmask 10101000
          -91 callsubr
          hintmask 00010100
          450 1571 -104 callgsubr
        </CharString>
        <CharString name="Zdotaccent">
          -19 callsubr
          20 callsubr
          74 1050 -686 327 hintmask 00000000
          hintmask 01101000
          80 87 rmoveto
          hintmask 10101000
          -91 callsubr
          hintmask 00010100
          522 1580 -96 callgsubr
          endchar
        </CharString>
        <CharString name="a">
          -65 callgsubr
          8 callsubr
          478 212 hintmask 00000000
          hintmask 10111100
          22 callgsubr
          185 126 92 113 62 vhcurveto
          7 -35 7 -45 4 -30 rrcurveto
          -36 5 -5 -34 59 hhcurveto
          97 hlineto
          45 7 28 25 hvcurveto
          -2 104 -39 142 -48 136 rrcurveto
          hintmask 01111100
          21 100 12 74 83 vvcurveto
          207 -98 146 -156 67 vhcurveto
          29 -68 -73 12 -72 hhcurveto
          -110 -135 -22 -56 -92 hvcurveto
          -39 -24 -27 -28 -31 vvcurveto
          -6 9 -37 18 -37 vhcurveto
          -25 12 15 -28 30 36 84 80 165 hhcurveto
          179 110 -89 -182 -22 -1 -23 -2 -23 hvcurveto
          86 -102 -121 17 -89 hhcurveto
          -98 -99 -25 -54 -77 hvcurveto
          hintmask 10111100
          -88 callgsubr
          endchar
        </CharString>
        <CharString name="aacute">
          -65 callgsubr
          128 441 8 callsubr
          102 515 -139 -103 callsubr
          186 934 -106 callsubr
        </CharString>
        <CharString name="abreve">
          -65 callgsubr
          136 169 8 callsubr
          -103 687 -106 -103 callsubr
          244 942 -94 callsubr
        </CharString>
        <CharString name="acircumflex">
          -65 callgsubr
          133 411 8 callsubr
          -102 689 -109 -103 callsubr
          2 940 -107 callsubr
        </CharString>
        <CharString name="acute">
          -605 1281 441 hstem
          174 515 vstem
          258 1281 -106 callsubr
        </CharString>
        <CharString name="acute.cap">
          -779 1628 364 hstem
          85 544 vstem
          177 1631 -105 callsubr
        </CharString>
        <CharString name="adieresis">
          -65 callgsubr
          164 304 8 callsubr
          -152 -6 callgsubr
          -164 212 hintmask 0000000000000000
          hintmask 1011010010000000
          22 callgsubr
          185 126 92 113 62 vhcurveto
          7 -35 7 -45 4 -30 rrcurveto
          -36 5 -5 -34 59 hhcurveto
          97 hlineto
          45 7 28 25 hvcurveto
          -2 104 -39 142 -48 136 rrcurveto
          hintmask 0111010010000000
          21 100 12 74 83 vvcurveto
          207 -98 146 -156 67 vhcurveto
          29 -68 -73 12 -72 hhcurveto
          -110 -135 -22 -56 -92 hvcurveto
          -39 -24 -27 -28 -31 vvcurveto
          -6 9 -37 18 -37 vhcurveto
          -25 12 15 -28 30 36 84 80 165 hhcurveto
          179 110 -89 -182 -22 -1 -23 -2 -23 hvcurveto
          86 -102 -121 17 -89 hhcurveto
          -98 -99 -25 -54 -77 hvcurveto
          hintmask 1011010010000000
          -88 callgsubr
          hintmask 0000101100000000
          493 970 -84 callsubr
          -496 hmoveto
          -92 callgsubr
          endchar
        </CharString>
        <CharString name="ae">
          -4 callsubr
          hstemhm
          98 236 1192 232 hintmask 00000000
          hintmask 01100111
          -54 callsubr
          hintmask 01011011
          -63 callsubr
          hintmask 01100111
          -29 callgsubr
          hintmask 10010111
          -20 callsubr
          endchar
        </CharString>
        <CharString name="aeacute">
          -4 callsubr
          127 441 hstemhm
          98 236 399 515 278 232 hintmask 0000000000000000
          hintmask 0110010101000000
          -54 callsubr
          hintmask 0101100101000000
          -63 callsubr
          hintmask 0110010101000000
          -29 callgsubr
          hintmask 1001010101000000
          -20 callsubr
          hintmask 0000001010000000
          483 934 -106 callsubr
        </CharString>
        <CharString name="agrave">
          -65 callgsubr
          128 441 8 callsubr
          -47 515 10 -103 callsubr
          356 942 -95 callsubr
        </CharString>
        <CharString name="amacron">
          -65 callgsubr
          218 205 8 callsubr
          -53 605 -74 -103 callsubr
          -10 1024 -77 callsubr
        </CharString>
        <CharString name="ampersand">
          69 -30 211 450 186 421 220 hstem
          149 254 542 229 vstem
          149 335 rmoveto
          -257 268 -108 220 286 251 178 280 74 -21 67 -29 56 vhcurveto
          97 hlineto
          30 26 17 26 hvcurveto
          101 vlineto
          32 -18 16 -38 vhcurveto
          -467 hlineto
          -144 -207 64 157 146 127 54 121 127 92 -56 -57 77 hvcurveto
          -5 7 16 -5 9 hhcurveto
          22 18 15 22 15 hvcurveto
          61 87 rlineto
          8 11 2 14 8 vvcurveto
          -1 25 -21 20 -24 19 rrcurveto
          76 -97 -158 46 -168 hhcurveto
          -230 -257 -153 -270 -199 126 -107 147 -38 hvcurveto
          -143 -57 -130 -118 -181 vvcurveto
          255 18 rmoveto
          169 155 109 285 14 14 0 -1 14 vhcurveto
          12 -15 47 -42 -103 vvcurveto
          -186 -142 -103 -163 -119 -117 61 111 vhcurveto
          endchar
        </CharString>
        <CharString name="aogonek">
          -97 -477 175 277 204 329 195 236 214 8 callsubr
          354 193 -69 212 hintmask 00000000
          hintmask 11111010
          22 callgsubr
          185 126 92 113 62 vhcurveto
          11 -33 12 -41 9 -71 rrcurveto
          -74 -58 -124 -121 -127 vvcurveto
          -131 120 -75 114 56 79 8 45 34 vhcurveto
          15 21 0 24 24 vvcurveto
          37 -13 34 -35 vhcurveto
          hintmask 11111100
          -18 -37 -18 -37 hhcurveto
          -50 -35 25 55 94 137 108 37 25 hvcurveto
          20 13 5 16 19 vvcurveto
          -2 104 -39 142 -48 136 rrcurveto
          21 100 12 74 83 vvcurveto
          207 -98 146 -156 67 vhcurveto
          29 -68 -73 12 -72 hhcurveto
          hintmask 11111010
          -110 -135 -22 -56 -92 hvcurveto
          -39 -24 -27 -28 -31 vvcurveto
          -6 9 -37 18 -37 vhcurveto
          -25 12 15 -28 30 36 84 80 165 hhcurveto
          179 110 -89 -182 -22 -1 -23 -2 -23 hvcurveto
          86 -102 -121 17 -89 hhcurveto
          -98 -99 -25 -54 -77 hvcurveto
          -88 callgsubr
          endchar
        </CharString>
        <CharString name="approxequal">
          241 187 207 -35 206 105 206 -36 208 hstemhm
          134 1265 hintmask 00000000
          hintmask 01101000
          236 672 rmoveto
          17 16 7 16 11 hvcurveto
          102 72 87 43 81 hhcurveto
          hintmask 01011000
          150 98 -170 208 hhcurveto
          97 173 32 206 110 hvcurveto
          6 11 8 21 22 vvcurveto
          17 -6 19 -16 14 vhcurveto
          -37 30 rlineto
          10 -12 -12 4 -11 hhcurveto
          -16 -15 -11 -20 -16 hvcurveto
          -103 -78 -81 -46 -85 hhcurveto
          hintmask 01101000
          -142 -108 172 -206 hhcurveto
          -95 -174 -32 -216 -115 hvcurveto
          -6 -11 -5 -14 -14 vvcurveto
          -14 5 -14 14 -11 vhcurveto
          43 -35 rlineto
          -10 12 14 -5 14 hhcurveto
          -49 -434 rmoveto
          hintmask 10101000
          38 -34 rlineto
          -11 12 13 -5 13 hhcurveto
          hintmask 01101000
          18 17 9 16 11 hvcurveto
          107 76 81 39 85 147 102 -172 205 hhcurveto
          99 163 23 216 118 hvcurveto
          6 12 8 20 20 vvcurveto
          19 -6 18 -17 14 vhcurveto
          -36 30 rlineto
          9 -12 -11 5 -11 hhcurveto
          hintmask 10101000
          -18 -16 -12 -19 -14 hvcurveto
          -102 -76 -83 -46 -85 hhcurveto
          -58 -61 33 36 -55 hvcurveto
          48 -72 -95 54 -113 hhcurveto
          -97 -171 -33 -214 -116 hvcurveto
          -6 -11 -4 -13 -13 vvcurveto
          hintmask 01101000
          -14 5 -15 16 -14 vhcurveto
          endchar
        </CharString>
        <CharString name="aring">
          -65 callgsubr
          92 24 callsubr
          8 callsubr
          -32 3 callgsubr
          -58 212 hintmask 0000000000000000
          hintmask 1011001001000000
          22 callgsubr
          185 126 92 113 62 vhcurveto
          7 -35 7 -45 4 -30 rrcurveto
          -36 5 -5 -34 59 hhcurveto
          97 hlineto
          45 7 28 25 hvcurveto
          -2 104 -39 142 -48 136 rrcurveto
          hintmask 0111001001000000
          21 100 12 74 83 vvcurveto
          207 -98 146 -156 67 vhcurveto
          29 -68 -73 12 -72 hhcurveto
          -110 -135 -22 -56 -92 hvcurveto
          -39 -24 -27 -28 -31 vvcurveto
          -6 9 -37 18 -37 vhcurveto
          -25 12 15 -28 30 36 84 80 165 hhcurveto
          179 110 -89 -182 -22 -1 -23 -2 -23 hvcurveto
          86 -102 -121 17 -89 hhcurveto
          -98 -99 -25 -54 -77 hvcurveto
          hintmask 1011001001000000
          -88 callgsubr
          hintmask 0000110110000000
          253 898 -86 callgsubr
        </CharString>
        <CharString name="asciicircum">
          -270 1534 -20 hstem
          41 940 vstem
          156 507 rmoveto
          -4 9 9 -1 9 hhcurveto
          25 20 15 31 11 hvcurveto
          270 729 270 -731 rlineto
          -30 11 19 -14 25 hhcurveto
          10 12 2 5 12 hvcurveto
          78 29 rlineto
          26 9 9 17 20 vvcurveto
          13 -4 15 -6 15 vhcurveto
          -342 849 rlineto
          58 -23 -48 0 -30 hhcurveto
          -52 hlineto
          -29 -41 -1 -54 -21 hvcurveto
          -335 -852 rlineto
          -6 -15 -3 -14 -13 vvcurveto
          -22 10 -18 28 -10 vhcurveto
          endchar
        </CharString>
        <CharString name="asciitilde">
          415 429 213 -43 212 hstemhm
          246 1240 -2 callgsubr
          305 437 rmoveto
          hintmask 10100000
          -15 17 17 -4 11 hhcurveto
          25 14 21 7 5 hvcurveto
          hintmask 01100000
          102 79 78 51 82 145 101 -170 207 hhcurveto
          99 170 38 220 113 hvcurveto
          4 9 14 23 27 vvcurveto
          14 -6 17 -13 11 vhcurveto
          -46 37 rlineto
          9 -11 -12 5 -11 hhcurveto
          -18 -17 -11 -21 -16 hvcurveto
          hintmask 10100000
          -100 -78 -80 -65 -83 -138 -108 169 -207 hhcurveto
          -97 -177 -33 -224 -111 hvcurveto
          -6 -12 -5 -17 -12 vvcurveto
          -14 6 -14 14 -12 vhcurveto
          endchar
        </CharString>
        <CharString name="asterisk">
          71 832 1064 hstem
          101 1161 vstem
          418 844 rmoveto
          -8 15 14 -4 14 hhcurveto
          29 26 18 31 13 hvcurveto
          154 363 157 -359 rlineto
          -31 13 29 -18 28 hhcurveto
          10 10 2 6 9 hvcurveto
          67 41 rlineto
          19 12 18 24 28 vvcurveto
          13 -4 15 -11 14 vhcurveto
          -243 311 384 -43 rlineto
          -1 4 3 0 4 hhcurveto
          38 44 19 54 hvcurveto
          72 vlineto
          55 -37 12 -32 -7 -7 0 -1 -6 vhcurveto
          -389 -51 242 330 rlineto
          11 15 5 15 14 vvcurveto
          26 -17 24 -26 14 vhcurveto
          35 -65 -13 3 -14 hhcurveto
          -28 -28 -13 -25 -11 hvcurveto
          -161 -373 -157 364 rlineto
          32 -14 -24 17 -28 hhcurveto
          -15 -15 -5 -9 -16 hvcurveto
          -63 -38 rlineto
          -22 -13 -13 -27 -25 vvcurveto
          -13 4 -13 8 -10 vhcurveto
          255 -319 -406 47 rlineto
          -8 hlineto
          -29 -35 -21 -39 hvcurveto
          -89 vlineto
          -47 40 -16 34 5 4 0 1 4 vhcurveto
          393 47 -243 -326 rlineto
          -9 -12 -5 -15 -17 vvcurveto
          -23 10 -23 23 -13 vhcurveto
          endchar
        </CharString>
        <CharString name="at">
          409 -380 196 299 204 329 195 266 199 hstem
          120 210 281 247 485 206 vstem
          378 -165 rmoveto
          -141 156 219 -74 217 hhcurveto
          236 158 77 29 46 hvcurveto
          25 16 18 13 23 vvcurveto
          9 -3 9 -6 13 vhcurveto
          -33 67 rlineto
          29 -14 -14 9 -16 -61 -46 -98 -302 hhcurveto
          -143 -158 52 100 -116 hvcurveto
          -131 114 -80 175 218 vvcurveto
          447 324 187 268 251 170 -113 -204 -18 -2 -18 -2 -19 vhcurveto
          86 -102 -127 20 -89 hhcurveto
          -192 -218 -91 -271 -239 199 -127 195 185 126 92 113 62 hvcurveto
          7 -35 7 -45 4 -30 rrcurveto
          -36 5 -5 -34 59 hhcurveto
          97 hlineto
          45 7 28 25 144 -63 153 -32 95 hvcurveto
          27 84 13 77 71 vvcurveto
          313 -255 178 -384 -384 -406 -292 -541 -272 95 -221 163 -147 vhcurveto
          480 652 rmoveto
          107 103 54 87 117 120 -53 -105 9 vhcurveto
          -76 -103 -95 -138 -112 -83 58 110 vhcurveto
          endchar
        </CharString>
        <CharString name="atilde">
          -65 callgsubr
          164 -7 callsubr
          98 247 -136 762 -148 212 hintmask 0000000000000000
          hintmask 1011001010000000
          22 callgsubr
          185 126 92 113 62 vhcurveto
          7 -35 7 -45 4 -30 rrcurveto
          -36 5 -5 -34 59 hhcurveto
          97 hlineto
          45 7 28 25 hvcurveto
          -2 104 -39 142 -48 136 rrcurveto
          hintmask 0111001010000000
          21 100 12 74 83 vvcurveto
          207 -98 146 -156 67 vhcurveto
          29 -68 -73 12 -72 hhcurveto
          -110 -135 -22 -56 -92 hvcurveto
          -39 -24 -27 -28 -31 vvcurveto
          -6 9 -37 18 -37 vhcurveto
          -25 12 15 -28 30 36 84 80 165 hhcurveto
          179 110 -89 -182 -22 -1 -23 -2 -23 hvcurveto
          86 -102 -121 17 -89 hhcurveto
          -98 -99 -25 -54 -77 hvcurveto
          hintmask 1011001010000000
          -88 callgsubr
          hintmask 0000000000000000
          -14 977 -75 callgsubr
          hintmask 0000100100000000
          -80 callsubr
          hintmask 0000010100000000
          -13 callsubr
        </CharString>
        <CharString name="b">
          73 -24 206 -161 -21 945 208 hstemhm
          203 243 552 253 hintmask 00000000
          hintmask 01111000
          -3 callgsubr
          hintmask 10111000
          -59 callsubr
          endchar
        </CharString>
        <CharString name="backslash">
          -439 -130 1758 hstem
          66 628 vstem
          275 1586 rmoveto
          29 -7 -26 13 -28 hhcurveto
          -5 -5 0 -1 -5 hvcurveto
          -85 -18 rlineto
          -32 -7 -16 -23 -27 vvcurveto
          -5 1 -6 1 -5 vhcurveto
          425 -1624 rlineto
          -28 7 25 -14 26 hhcurveto
          6 5 0 2 6 hvcurveto
          80 22 rlineto
          35 9 11 26 25 vvcurveto
          9 -1 8 -2 7 vhcurveto
          endchar
        </CharString>
        <CharString name="bar">
          -324 2201 hstem
          235 213 vstem
          235 -260 -73 callsubr
          102 -67 callgsubr
          2073 14 callsubr
        </CharString>
        <CharString name="braceleft">
          -268 -378 190 818 112 62 116 hstemhm
          241 187 -34 223 -181 215 hintmask 00000000
          hintmask 11110000
          899 1793 rmoveto
          5 -1 5 -1 6 vhcurveto
          hintmask 11100100
          -14 54 rlineto
          35 -9 -20 19 -34 hhcurveto
          hintmask 11101000
          -301 -125 -188 -280 hvcurveto
          -159 42 -127 -135 vvcurveto
          -60 -54 -48 -70 -56 -15 -44 -64 vhcurveto
          -78 vlineto
          -63 18 -41 53 72 52 -53 -61 vhcurveto
          hintmask 11100100
          -135 -42 -133 -158 vvcurveto
          hintmask 11110000
          -290 127 -161 291 -17 vhcurveto
          41 22 16 38 8 hvcurveto
          14 63 rlineto
          1 6 1 5 5 vvcurveto
          51 -56 6 -25 -187 -14 117 164 vhcurveto
          153 34 170 132 vvcurveto
          115 -141 79 -82 -14 -6 14 15 16 7 17 13 82 141 85 115 vhcurveto
          132 -34 166 153 vvcurveto
          176 12 86 184 19 vhcurveto
          21 2 65 1 54 vvcurveto
          endchar
        </CharString>
        <CharString name="braceright">
          -268 619 116 62 112 818 190 hstemhm
          373 215 -181 223 -34 187 hintmask 00000000
          hintmask 11100100
          125 -254 rmoveto
          -5 1 -5 1 -6 vhcurveto
          hintmask 11110000
          14 -54 rlineto
          -35 9 20 -19 34 hhcurveto
          hintmask 11101000
          301 125 188 280 hvcurveto
          159 -42 127 135 vvcurveto
          60 54 48 70 56 15 44 64 vhcurveto
          78 vlineto
          63 -18 41 -53 -72 -52 53 61 vhcurveto
          hintmask 11110000
          135 42 133 158 vvcurveto
          hintmask 11100100
          290 -127 161 -291 17 vhcurveto
          -41 -22 -16 -38 -8 hvcurveto
          -14 -63 rlineto
          -1 -6 -1 -5 -5 vvcurveto
          -51 56 -6 25 187 14 -117 -164 vhcurveto
          -153 -34 -170 -132 vvcurveto
          -115 141 -79 82 14 6 -14 -15 -16 -7 -17 -13 -82 -141 -85 -115 vhcurveto
          -132 34 -166 -153 vvcurveto
          -176 -12 -86 -184 -19 vhcurveto
          -21 -2 -65 -1 -54 vvcurveto
          endchar
        </CharString>
        <CharString name="bracketleft">
          23 callsubr
          207 210 vstem
          207 -257 -73 callsubr
          391 hlineto
          35 29 25 30 hvcurveto
          66 vlineto
          31 -29 -37 callgsubr
          -236 1863 236 hlineto
          35 29 25 30 hvcurveto
          67 vlineto
          31 -29 -37 callgsubr
          -390 hlineto
          -31 -25 -29 -35 hvcurveto
          endchar
        </CharString>
        <CharString name="bracketright">
          23 callsubr
          437 210 vstem
          647 1833 rmoveto
          35 -25 29 -31 vhcurveto
          -390 hlineto
          -35 -29 -25 -31 hvcurveto
          -67 vlineto
          -30 29 -25 35 vhcurveto
          236 -1863 -236 hlineto
          -35 -29 -25 -31 hvcurveto
          -66 vlineto
          -30 29 -25 35 vhcurveto
          391 hlineto
          30 25 29 35 hvcurveto
          endchar
        </CharString>
        <CharString name="breve">
          1319 169 hstem
          -4 687 vstem
          343 1319 -94 callsubr
        </CharString>
        <CharString name="breve.cap">
          1662 170 hstem
          -4 687 vstem
          339 1662 -93 callsubr
        </CharString>
        <CharString name="brokenbar">
          -314 2191 hstem
          235 213 vstem
          290 928 rmoveto
          102 -67 callgsubr
          821 -47 callsubr
          -102 hlineto
          -31 -25 -29 -35 hvcurveto
          -821 vlineto
          -77 callgsubr
          -55 -1178 -73 callsubr
          102 -67 callgsubr
          829 14 callsubr
        </CharString>
        <CharString name="bullet">
          -611 378 28 -28 456 hstemhm
          118 445 hintmask 00000000
          hintmask 10100000
          118 608 rmoveto
          hintmask 01100000
          -127 100 -103 124 121 100 103 127 125 -100 101 -121 vhcurveto
          hintmask 10100000
          -124 -100 -101 -125 hvcurveto
          endchar
        </CharString>
        <CharString name="c">
          -10 callsubr
          hstem
          121 253 479 230 vstem
          -92 callsubr
          endchar
        </CharString>
        <CharString name="cacute">
          -10 callsubr
          128 441 29 callgsubr
          107 515 -143 230 hintmask 11010100
          -92 callsubr
          hintmask 00101000
          444 711 -106 callsubr
        </CharString>
        <CharString name="caron">
          -439 1280 417 hstem
          86 693 vstem
          376 1280 -93 callgsubr
        </CharString>
        <CharString name="caron.cap">
          -439 1658 334 hstem
          66 728 vstem
          336 1658 -104 callgsubr
        </CharString>
        <CharString name="caronvertical">
          -779 1277 531 hstem
          119 276 vstem
          203 1277 -83 callgsubr
        </CharString>
        <CharString name="ccaron">
          -10 callsubr
          127 417 29 callgsubr
          -74 693 -140 230 hintmask 11010100
          -92 callsubr
          hintmask 00101000
          469 710 -93 callgsubr
        </CharString>
        <CharString name="ccedilla">
          -99 -477 175 303 -21 969 204 29 callgsubr
          294 193 -8 230 hintmask 00000000
          hintmask 11110100
          379 -320 rmoveto
          -42 callsubr
          100 -61 76 -63 55 vhcurveto
          hintmask 11111000
          150 19 194 75 102 vvcurveto
          12 -4 14 -11 19 vhcurveto
          -22 37 rlineto
          23 -14 -20 10 -21 -54 -90 -102 -159 hhcurveto
          -230 -82 174 215 171 81 200 204 107 87 -52 -133 -47 19 -34 63 hvcurveto
          24 hlineto
          70 54 29 92 169 -113 180 -307 -313 -229 -216 -367 -313 160 -222 269 -49 hvcurveto
          47 -44 71 -66 -79 vvcurveto
          hintmask 11110100
          -39 callgsubr
          endchar
        </CharString>
        <CharString name="ccircumflex">
          -10 callsubr
          133 411 29 callgsubr
          -79 689 -131 230 hintmask 11010100
          -92 callsubr
          hintmask 00101000
          278 717 -107 callsubr
        </CharString>
        <CharString name="cdotaccent">
          -10 callsubr
          153 325 29 callgsubr
          97 327 55 230 hintmask 11010100
          -92 callsubr
          hintmask 00101000
          514 736 -96 callgsubr
          endchar
        </CharString>
        <CharString name="cedilla">
          -785 -477 175 312 36 hstem
          121 193 vstem
          -22 10 rmoveto
          39 -41 104 -77 -95 vvcurveto
          -39 callgsubr
          -42 callsubr
          149 -134 96 -77 52 vhcurveto
          -92 hlineto
          endchar
        </CharString>
        <CharString name="cent">
          -99 3 -21 29 -21 1150 -20 27 -20 hstemhm
          121 255 164 213 100 230 hintmask 00000000
          hintmask 01011110
          539 -10 rmoveto
          -240 18 callgsubr
          233 vlineto
          144 21 171 69 99 vvcurveto
          hintmask 01101110
          12 -2 12 -7 12 vhcurveto
          -25 46 rlineto
          22 -12 -22 17 -27 -46 -83 -98 -158 hhcurveto
          -203 -107 170 214 186 97 185 186 107 87 -52 -133 hvcurveto
          hintmask 10011110
          -47 19 -34 73 vhcurveto
          47 hlineto
          72 19 29 92 151 -91 160 -239 32 hvcurveto
          255 18 callsubr
          -262 vlineto
          -245 -53 -174 -208 -299 vvcurveto
          -306 167 -227 251 -57 vhcurveto
          endchar
        </CharString>
        <CharString name="circumflex">
          -439 1286 411 hstem
          81 689 vstem
          185 1287 -107 callsubr
        </CharString>
        <CharString name="circumflex.cap">
          -439 1655 327 hstem
          75 719 vstem
          165 1655 -107 callgsubr
        </CharString>
        <CharString name="colon">
          -781 -25 7 callsubr
          785 7 callsubr
          hstemhm
          78 342 hintmask 00000000
          hintmask 01001000
          78 151 rmoveto
          hintmask 10001000
          -61 callsubr
          vhcurveto
          hintmask 01001000
          8 callgsubr
          hintmask 00000000
          785 vmoveto
          hintmask 00011000
          -61 callsubr
          vhcurveto
          hintmask 00101000
          8 callgsubr
          endchar
        </CharString>
        <CharString name="comma">
          -779 16 -21 hstemhm
          211 214 hintmask 00000000
          hintmask 11000000
          85 159 -45 callsubr
        </CharString>
        <CharString name="commaaccent">
          -779 -547 -21 hstem
          114 300 vstem
          114 -220 -104 callsubr
          endchar
        </CharString>
        <CharString name="copyright">
          412 -1 179 201 166 461 156 193 179 hstem
          85 183 239 189 276 179 286 -54 callgsubr
          239 14 rmoveto
          -237 150 -165 214 103 168 53 85 10 -2 10 -13 23 vhcurveto
          -9 18 rlineto
          23 -13 -17 7 -17 -44 -46 -63 -98 hhcurveto
          -121 -66 105 130 113 59 113 110 61 46 -30 -78 -36 15 -28 51 hvcurveto
          21 hlineto
          53 39 22 69 114 -78 123 -205 -206 -155 -150 -231 hvcurveto
          endchar
        </CharString>
        <CharString name="currency">
          -99 210 184 402 184 hstem
          214 185 400 185 vstem
          160 102 rmoveto
          -11 11 13 -5 12 hhcurveto
          13 13 7 12 12 hvcurveto
          162 160 rlineto
          -35 60 69 -20 75 hhcurveto
          69 65 18 31 56 hvcurveto
          157 -153 rlineto
          -12 12 14 -7 14 hhcurveto
          10 10 3 9 9 hvcurveto
          79 79 rlineto
          11 11 5 13 13 vvcurveto
          12 -6 12 -9 10 vhcurveto
          -158 158 rlineto
          30 54 16 64 71 vvcurveto
          76 -21 68 -34 58 vhcurveto
          166 168 rlineto
          11 11 7 14 14 vvcurveto
          11 -4 10 -8 9 vhcurveto
          -82 84 rlineto
          9 -8 -11 4 -10 hhcurveto
          -17 -15 -9 -10 -10 hvcurveto
          -172 -174 rlineto
          27 -53 -60 14 -63 hhcurveto
          -68 -65 -17 -30 -56 hvcurveto
          -177 177 rlineto
          12 -13 -13 8 -15 hhcurveto
          -11 -11 -5 -9 -9 hvcurveto
          -78 -79 rlineto
          -9 -10 -6 -13 -12 vvcurveto
          -13 7 -14 11 -11 vhcurveto
          176 -177 rlineto
          -33 -60 -16 -66 -65 vvcurveto
          -62 14 -61 27 -56 vhcurveto
          -167 -166 rlineto
          -11 -11 -7 -14 -13 vvcurveto
          -13 6 -11 8 -9 vhcurveto
          315 416 rmoveto
          118 88 82 113 111 88 -82 -118 -119 -88 -83 -111 -113 -88 83 119 vhcurveto
          endchar
        </CharString>
        <CharString name="d">
          5 callgsubr
          15 callgsubr
          hintmask 00000000
          hintmask 10111000
          -74 callgsubr
          hintmask 01111000
          -38 callsubr
          hintmask 10111000
          -70 callsubr
          endchar
        </CharString>
        <CharString name="dagger">
          -99 939 200 hstem
          488 215 vstem
          488 -260 -58 callgsubr
        </CharString>
        <CharString name="daggerdbl">
          -99 331 188 420 200 hstemhm
          107 979 -598 215 hintmask 10100000
          162 321 rmoveto
          432 21 436 -21 rlineto
          31 -1 25 23 26 vvcurveto
          112 vlineto
          27 -25 23 -31 -1 vhcurveto
          -436 -20 -432 20 rlineto
          -30 1 -25 -23 -26 vvcurveto
          -112 vlineto
          -27 25 -24 30 2 vhcurveto
          hintmask 01010000
          326 -581 -58 callgsubr
        </CharString>
        <CharString name="dcaron">
          241 -4 callgsubr
          -161 -21 945 208 99 531 15 callgsubr
          152 276 hintmask 00000000
          hintmask 10101100
          -74 callgsubr
          hintmask 01101100
          -38 callsubr
          hintmask 10101100
          -70 callsubr
          hintmask 00010010
          1046 706 -83 callgsubr
        </CharString>
        <CharString name="dcroat">
          5 callgsubr
          235 187 15 callgsubr
          hintmask 00000000
          hintmask 10111100
          -74 callgsubr
          960 110 vlineto
          24 20 16 21 hvcurveto
          112 vlineto
          22 -20 16 -24 -2 callsubr
          hintmask 01111100
          135 vlineto
          34 -23 29 -30 vhcurveto
          -139 hlineto
          -30 -24 -29 -34 hvcurveto
          -135 -331 vlineto
          -23 -20 -16 -21 hvcurveto
          -112 vlineto
          -22 20 -16 23 vhcurveto
          331 -401 hlineto
          137 -99 -128 29 -110 hhcurveto
          hintmask 10111100
          -70 callsubr
          endchar
        </CharString>
        <CharString name="degree">
          -439 911 192 372 192 hstem
          51 195 358 195 vstem
          426 911 rmoveto
          203 170 167 212 212 -170 165 -203 -206 -169 -165 -212 -212 169 -167 206 hvcurveto
          192 vmoveto
          -99 -81 80 107 106 81 79 99 97 81 -79 -106 -107 -81 -80 -97 hvcurveto
          endchar
        </CharString>
        <CharString name="dieresis">
          -252 1317 304 hstem
          124 -6 callgsubr
          vstem
          769 1317 -84 callsubr
          -496 hmoveto
          -92 callgsubr
          endchar
        </CharString>
        <CharString name="dieresis.cap">
          -779 1668 304 hstem
          -145 4 callgsubr
          vstem
          510 1668 -85 callgsubr
        </CharString>
        <CharString name="divide">
          71 17 294 180 192 176 294 hstemhm
          131 1099 -700 288 hintmask 00000000
          hintmask 10101000
          675 859 rmoveto
          78 65 67 81 81 -65 65 -78 -80 -65 -65 -81 -81 65 -67 80 hvcurveto
          -145 -694 rmoveto
          -82 65 -66 80 78 65 66 82 80 -65 66 -78 -80 -65 -66 -80 vhcurveto
          hintmask 01010000
          -344 326 -44 callsubr
        </CharString>
        <CharString name="dollar">
          -268 2 -21 26 -21 hstemhm
          74 235 90 214 -203 213 96 232 hintmask 00000000
          hintmask 01101100
          104 86 rmoveto
          73 -57 110 -33 112 -15 rrcurveto
          -231 18 callgsubr
          237 vlineto
          hintmask 10110100
          179 40 159 143 217 vvcurveto
          237 -215 123 -182 74 vhcurveto
          -110 45 -135 56 115 vvcurveto
          110 86 48 111 103 94 -38 -56 74 vhcurveto
          hintmask 01110100
          -7 10 14 -7 11 hhcurveto
          19 23 25 25 13 hvcurveto
          36 68 8 28 12 vvcurveto
          32 -30 22 -28 18 vhcurveto
          -60 39 -78 34 -92 15 rrcurveto
          235 18 callsubr
          -237 vlineto
          hintmask 01101100
          -182 -35 -154 -127 -200 vvcurveto
          -230 191 -140 187 -70 vhcurveto
          138 -51 129 -61 -113 vvcurveto
          -122 -89 -60 -132 -76 -72 22 28 -61 vhcurveto
          15 -34 -55 42 -44 hhcurveto
          -21 -19 -9 -26 -12 hvcurveto
          -35 -71 rlineto
          -10 -21 -4 -13 -8 vvcurveto
          -28 26 -20 23 -18 vhcurveto
          endchar
        </CharString>
        <CharString name="dotaccent">
          -779 1306 325 hstem
          93 327 vstem
          257 1306 -96 callgsubr
          endchar
        </CharString>
        <CharString name="dotaccent.cap">
          -779 1667 325 hstem
          104 327 vstem
          268 1667 -96 callgsubr
          endchar
        </CharString>
        <CharString name="dotlessi">
          -7 callgsubr
          hstemhm
          182 241 hintmask 00000000
          hintmask 11100000
          182 282 -97 callgsubr
          endchar
        </CharString>
        <CharString name="dotlessj">
          20 callgsubr
          hstem
          230 244 vstem
          -47 callgsubr
          endchar
        </CharString>
        <CharString name="e">
          -57 callsubr
          hstem
          114 237 493 235 vstem
          -106 callgsubr
          endchar
        </CharString>
        <CharString name="eacute">
          -57 callsubr
          127 441 7 callgsubr
          106 515 -128 235 hintmask 11101010
          -106 callgsubr
          hintmask 00010100
          179 587 -106 callsubr
        </CharString>
        <CharString name="ebreve">
          -57 callsubr
          135 169 7 callgsubr
          -75 687 -119 235 hintmask 11101010
          -106 callgsubr
          hintmask 00010100
          261 595 -94 callsubr
        </CharString>
        <CharString name="ecaron">
          -57 callsubr
          126 417 7 callgsubr
          -61 693 -139 235 hintmask 11101010
          -106 callgsubr
          hintmask 00010100
          218 586 -93 callgsubr
        </CharString>
        <CharString name="ecircumflex">
          -57 callsubr
          134 411 7 callgsubr
          -63 689 -133 235 hintmask 11101010
          -106 callgsubr
          hintmask 00010100
          30 595 -107 callsubr
        </CharString>
        <CharString name="edieresis">
          -57 callsubr
          163 304 7 callgsubr
          -122 -6 callgsubr
          -179 235 hintmask 11101001
          -106 callgsubr
          hintmask 00010110
          512 623 -84 callsubr
          -496 hmoveto
          -92 callgsubr
          endchar
        </CharString>
        <CharString name="edotaccent">
          -57 callsubr
          152 325 7 callgsubr
          111 327 55 235 hintmask 11101010
          -106 callgsubr
          hintmask 00010100
          264 612 -96 callgsubr
          endchar
        </CharString>
        <CharString name="egrave">
          -57 callsubr
          127 441 7 callgsubr
          -68 515 46 235 hintmask 11101010
          -106 callgsubr
          hintmask 00010100
          324 595 -95 callsubr
        </CharString>
        <CharString name="eight">
          -99 -25 210 1059 207 hstemhm
          93 234 -195 238 458 235 -200 238 hintmask 00000000
          hintmask 11100100
          93 374 rmoveto
          -261 248 -138 261 248 251 164 254 160 -124 120 -129 45 vhcurveto
          -12 4 -6 2 3 vvcurveto
          3 4 3 7 3 vhcurveto
          hintmask 11011000
          107 52 115 114 188 vvcurveto
          240 -219 121 -244 -205 -263 -95 -281 -171 122 -85 94 -47 vhcurveto
          4 -2 2 -3 -3 vvcurveto
          -4 -5 -1 -7 -4 vhcurveto
          hintmask 11100100
          -129 -69 -120 -119 -193 vvcurveto
          hintmask 11011000
          547 443 rmoveto
          -153 52 -117 78 108 vvcurveto
          123 112 66 120 121 105 -66 -123 -93 -53 -87 -135 -58 vhcurveto
          hintmask 11100100
          -313 -414 rmoveto
          133 119 100 85 18 vhcurveto
          158 -42 174 -71 -148 vvcurveto
          -134 -117 -74 -139 -149 -131 63 155 vhcurveto
          endchar
        </CharString>
        <CharString name="ellipsis">
          247 -25 350 hstem
          86 342 171 342 171 342 cntrmask 01110000
          1112 151 rmoveto
          -61 callsubr
          -95 -77 -78 -96 vhcurveto
          -513 hmoveto
          -61 callsubr
          -95 -77 -78 -96 vhcurveto
          -513 hmoveto
          -61 callsubr
          -95 -77 -78 -96 vhcurveto
          endchar
        </CharString>
        <CharString name="emacron">
          -57 callsubr
          217 205 7 callgsubr
          -19 605 -93 235 hintmask 11101010
          -106 callgsubr
          hintmask 00010100
          13 677 -77 callsubr
        </CharString>
        <CharString name="emdash">
          756 508 192 hstem
          239 1569 vstem
          294 508 rmoveto
          1458 -25 callgsubr
          -1458 hlineto
          -57 callgsubr
          endchar
        </CharString>
        <CharString name="endash">
          241 508 192 hstem
          237 1058 vstem
          292 508 rmoveto
          947 -25 callgsubr
          -947 hlineto
          -57 callgsubr
          endchar
        </CharString>
        <CharString name="eng">
          72 -568 208 381 21 callsubr
          487 242 hintmask 00000000
          hintmask 11101100
          -51 callsubr
          584 vlineto
          163 159 131 139 127 62 -85 -171 vhcurveto
          -859 vlineto
          -78 -12 -111 -92 vhcurveto
          -66 callsubr
          183 125 148 289 hvcurveto
          191 vlineto
          6 vlineto
          621 vlineto
          267 -79 199 -288 -165 -131 -80 -145 -87 vhcurveto
          hintmask 11011100
          -10 52 -14 54 -71 callgsubr
          endchar
        </CharString>
        <CharString name="eogonek">
          -97 -478 174 279 207 284 185 293 210 hstem
          114 237 226 192 75 235 vstem
          114 543 rmoveto
          -361 239 -207 315 17 19 1 2 20 vhcurveto
          -77 -58 -70 -86 -105 vvcurveto
          -61 callgsubr
          44 -38 vhcurveto
          -18 -61 -25 -45 hhcurveto
          -52 -34 26 45 28 callsubr
          hvcurveto
          55 65 74 53 27 17 rrcurveto
          -1 hlineto
          53 28 36 36 44 vvcurveto
          12 -3 11 -6 13 vhcurveto
          -27 56 rlineto
          31 -16 -18 6 -20 -53 -60 -101 -194 hhcurveto
          -213 -121 131 177 hvcurveto
          6 1 6 7 vvcurveto
          -19 67 104 -24 106 hhcurveto
          238 212 94 238 231 -172 125 -240 -332 -221 -180 -431 hvcurveto
          248 151 rmoveto
          183 21 126 67 143 hhcurveto
          121 71 -43 -100 -110 -108 -40 -155 -99 -94 31 12 -26 hvcurveto
          endchar
        </CharString>
        <CharString name="equal">
          14 callgsubr
          212 726 rmoveto
          938 -33 callsubr
          -938 -26 callsubr
          -450 vmoveto
          938 -33 callsubr
          -938 -26 callsubr
          endchar
        </CharString>
        <CharString name="eth">
          71 -4 callgsubr
          699 217 436 -20 hstem
          131 256 625 248 vstem
          131 566 rmoveto
          -343 203 -248 350 419 157 321 429 337 -113 336 -315 203 vhcurveto
          94 119 14 15 6 20 -4 18 rlinecurve
          -1 12 -7 11 -9 7 -53 44 rcurveline
          -16 12 -16 6 -16 -3 -13 -2 -13 -9 -10 -13 -117 -152 rcurveline
          -85 35 -96 29 -107 19 rrcurveto
          -76 14 -39 -24 -98 vvcurveto
          -51 23 -9 69 -11 vhcurveto
          69 -12 64 -19 61 -25 -96 -124 rcurveline
          -15 -17 -7 -17 4 -17 2 -12 6 -12 11 -8 57 -48 rcurveline
          12 -10 13 -4 12 2 10 1 10 6 9 9 129 164 rcurveline
          170 -123 110 -184 19 -211 -4 -1 rcurveline
          91 -58 -139 79 -170 hhcurveto
          -260 -248 -199 -333 hvcurveto
          256 -12 rmoveto
          221 121 106 157 144 113 -58 -122 88 vhcurveto
          2 -23 0 -43 -22 vvcurveto
          -221 -85 -210 -240 -167 -133 131 241 vhcurveto
          endchar
        </CharString>
        <CharString name="exclam">
          -608 -25 7 callsubr
          hstemhm
          175 342 -2 callgsubr
          307 512 rmoveto
          80 hlineto
          31 25 28 35 hvcurveto
          39 952 rlineto
          35 1 -23 28 -33 hhcurveto
          -170 hlineto
          -31 -25 -28 -35 hvcurveto
          51 -952 rlineto
          -35 25 -28 30 vhcurveto
          -132 -361 rmoveto
          hintmask 10100000
          -61 callsubr
          vhcurveto
          hintmask 01100000
          8 callgsubr
          endchar
        </CharString>
        <CharString name="exclamdown">
          -608 760 350 -21 21 hstemhm
          175 342 -2 callgsubr
          385 573 rmoveto
          -80 hlineto
          -31 -25 -28 -35 hvcurveto
          -39 -952 rlineto
          -35 -1 23 -28 33 hhcurveto
          170 hlineto
          31 25 28 35 hvcurveto
          -51 952 rlineto
          35 -25 28 -30 vhcurveto
          132 361 rmoveto
          hintmask 10100000
          17 callsubr
          hintmask 01100000
          95 77 78 96 hvcurveto
          endchar
        </CharString>
        <CharString name="f">
          -441 21 28 callgsubr
          440 212 hstemhm
          216 232 -168 239 hintmask 00000000
          hintmask 11101000
          280 71 -40 callgsubr
          hintmask 11110000
          -40 callsubr
        </CharString>
        <CharString name="ff">
          413 21 28 callgsubr
          414 211 -185 212 hstemhm
          216 231 -167 239 615 239 2 callgsubr
          674 -34 callgsubr
          -699 hlineto
          -26 72 -21 63 64 vvcurveto
          161 104 54 163 114 154 -35 -85 123 vhcurveto
          11 -7 14 15 14 19 rrcurveto
          hintmask 11101000
          46 91 rlineto
          13 18 2 5 14 vvcurveto
          29 -13 -9 -28 24 vhcurveto
          70 -82 -204 62 -168 hhcurveto
          -227 -267 -102 -257 -109 32 -73 36 -99 hvcurveto
          -52 callgsubr
          hintmask 00000000
          854 -849 -40 callgsubr
          hintmask 11010010
          -40 callsubr
        </CharString>
        <CharString name="fi">
          241 -22 callgsubr
          38 28 callgsubr
          441 211 hstemhm
          216 231 -167 239 513 241 hintmask 00000000
          hintmask 10011101
          9 callsubr
          513 -638 vlineto
          -225 84 -74 136 59 84 12 61 66 vhcurveto
          13 12 8 12 17 vvcurveto
          10 -2 11 -6 13 vhcurveto
          -31 70 rlineto
          21 -9 -9 8 -13 -33 -27 -26 -32 hhcurveto
          -27 -20 18 53 hvcurveto
          787 vlineto
          37 -23 29 -30 vhcurveto
          -20 hlineto
          -7 hlineto
          -107 hlineto
          -5 hlineto
          -587 hlineto
          -26 72 -21 90 64 vvcurveto
          hintmask 00111011
          161 114 54 140 125 142 -52 -77 109 vhcurveto
          -17 24 22 -10 19 hhcurveto
          21 14 15 28 20 hvcurveto
          34 47 rlineto
          14 20 7 19 18 vvcurveto
          27 -15 25 -28 21 vhcurveto
          93 -128 -209 54 -175 hhcurveto
          hintmask 01011011
          -214 -267 -102 -257 -109 32 -100 36 -99 hvcurveto
          -149 -24 rlineto
          hintmask 10011011
          -45 -13 -14 -12 -31 vvcurveto
          -56 vlineto
          -32 16 -25 47 vhcurveto
          141 hlineto
          endchar
        </CharString>
        <CharString name="five">
          -99 -263 217 517 193 319 215 hstem
          209 229 428 252 vstem
          108 -57 rmoveto
          1 -25 23 -18 22 -21 rrcurveto
          -99 105 168 -43 148 hhcurveto
          326 217 190 292 291 -206 154 -223 -134 -75 -39 -29 -42 hvcurveto
          387 528 vlineto
          63 0 24 42 hvcurveto
          97 vlineto
          45 -24 7 -45 vhcurveto
          -657 hlineto
          -77 -17 -32 -77 hvcurveto
          -645 vlineto
          -53 15 -5 63 -9 vhcurveto
          -3 18 15 -4 16 hhcurveto
          16 21 3 6 12 hvcurveto
          20 43 48 72 152 hhcurveto
          113 125 -92 -162 -176 -130 -87 -144 -117 -112 31 72 -85 hvcurveto
          15 -20 -10 15 -24 hhcurveto
          -22 -18 -15 -22 -15 hvcurveto
          -41 -59 rlineto
          -18 -26 -2 -14 -8 vvcurveto
          endchar
        </CharString>
        <CharString name="fl">
          236 -22 callgsubr
          38 28 callgsubr
          444 208 hstemhm
          218 230 -168 239 513 241 hintmask 00000000
          hintmask 01011011
          5 callsubr
          hintmask 10011101
          -35 callsubr
          -38 104 -8 84 39 vvcurveto
          160 100 57 145 121 135 -32 -86 83 vhcurveto
          -1172 vlineto
          -225 88 -74 136 70 74 18 53 64 vhcurveto
          17 14 12 16 19 vvcurveto
          8 -2 9 -4 10 vhcurveto
          -31 71 rlineto
          21 -9 -12 8 -15 hhcurveto
          hintmask 00111011
          -22 -45 -26 -30 hhcurveto
          -27 -23 17 54 hvcurveto
          1433 vlineto
          36 -23 29 -35 vhcurveto
          -52 hlineto
          -48 -17 -21 -38 -18 hvcurveto
          -17 -37 rlineto
          73 -114 -129 30 -132 hhcurveto
          -242 -228 -123 -247 -99 31 -104 35 -94 hvcurveto
          hintmask 00111101
          -52 callgsubr
          endchar
        </CharString>
        <CharString name="florin">
          -269 -547 -21 1101 204 498 214 hstemhm
          327 235 -232 232 hintmask 00000000
          hintmask 11110000
          319 272 rmoveto
          -18 -204 -31 -310 -129 -157 rrcurveto
          -13 -15 -12 -23 -22 vvcurveto
          -19 8 -20 24 -16 vhcurveto
          53 -36 rlineto
          -13 18 31 -5 17 hhcurveto
          60 47 76 53 26 hvcurveto
          52 104 57 184 36 425 7 78 5 86 5 95 rrcurveto
          282 hlineto
          48 15 24 32 3 hvcurveto
          7 69 rlineto
          48 5 -16 31 -56 hhcurveto
          -285 hlineto
          -1 25 -2 29 69 vvcurveto
          158 28 217 180 vhcurveto
          112 37 -64 37 hhcurveto
          12 14 6 37 26 hvcurveto
          26 36 rlineto
          hintmask 11101000
          16 23 9 15 16 vvcurveto
          71 -139 74 -149 -185 -119 -96 -120 -68 vhcurveto
          -67 -119 -5 -127 -127 vvcurveto
          -42 2 -43 2 -39 vhcurveto
          -189 -38 -48 -10 -11 -16 -3 -30 rlinecurve
          -4 -42 rlineto
          -48 -5 21 -19 42 hhcurveto
          196 hlineto
          -1 -89 -3 -87 -7 -85 rrcurveto
          endchar
        </CharString>
        <CharString name="foundry">
          1261 -311 168 92 300 -81 59 433 33 230 325 -101 -20 67 293 hstemhm
          125 186 -123 207 972 45 0 34 868 113 hintmask 0000000000000000
          hintmask 1011011011010000
          125 317 rmoveto
          -347 309 -281 347 vhcurveto
          hintmask 1101100101010000
          225 232 23 194 226 hvcurveto
          41 48 54 2 43 132 93 -117 113 hhcurveto
          293 187 505 266 546 -369 104 -427 hvcurveto
          -95 -99 -5 -104 hhcurveto
          -31 hlineto
          -289 -81 239 -255 hhcurveto
          -224 -265 -175 -226 hvcurveto
          hintmask 1011011101010000
          -174 117 -61 -10 -155 vhcurveto
          hintmask 1011011011010000
          -10 -145 -160 -7 -227 vvcurveto
          186 13 rmoveto
          hintmask 1011010100110000
          39 5 36 12 40 vhcurveto
          42 14 rlineto
          -177 97 180 -114 203 hhcurveto
          242 214 149 270 14 0 18 -4 18 hvcurveto
          -41 -18 rlineto
          -293 -18 -199 -99 -189 hhcurveto
          -268 -192 211 246 319 280 191 286 187 215 -70 -197 4 hvcurveto
          -4 vlineto
          -126 -94 -104 -154 -106 -83 93 101 116 52 73 81 71 vhcurveto
          4 -7 -43 12 -11 hhcurveto
          hintmask 1011011011010000
          -180 -206 -24 -290 -253 vvcurveto
          -61 3 -54 11 -25 vhcurveto
          36 -2 16 54 31 185 17 133 rlinecurve
          -32 23 -13 29 0 vvcurveto
          16 28 rlineto
          -40 55 102 -24 106 hhcurveto
          73 69 11 27 54 hvcurveto
          50 -95 20 -97 -99 vvcurveto
          -282 -196 -268 -356 vhcurveto
          hintmask 1101010100110000
          -293 -256 180 293 hvcurveto
          1135 -81 rmoveto
          hintmask 1011100101010000
          54 588 -33 19 -35 24 -20 30 rlinecurve
          5 13 135 4 144 24 120 38 rlinecurve
          34 -36 -106 -282 47 -27 16 94 38 109 47 54 rlinecurve
          59 55 65 31 81 hhcurveto
          145 76 -106 -124 -158 -108 -146 -167 hvcurveto
          -113 7 -52 69 75 vvcurveto
          69 42 80 73 45 vhcurveto
          -35 47 -80 -59 -29 -90 -18 -88 rlinecurve
          hintmask 1101010100110000
          -31 -131 -5 -166 -7 -66 rrcurveto
          endchar
        </CharString>
        <CharString name="four">
          -107 94 201 hstem
          729 236 vstem
          87 224 rmoveto
          -77 58 -53 88 vhcurveto
          496 -264 hlineto
          -40 21 -28 37 vhcurveto
          119 hlineto
          34 25 24 39 hvcurveto
          271 vlineto
          145 29 rlineto
          46 9 17 16 38 vvcurveto
          54 vlineto
          31 -12 22 -47 vhcurveto
          -149 377 hlineto
          33 -19 36 -54 vhcurveto
          -83 hlineto
          -42 -38 -25 -46 hvcurveto
          -375 -396 vlineto
          111 258 145 412 30 170 9 47 -14 31 -43 14 rrcurveto
          12 -39 -39 12 -38 hhcurveto
          -42 -29 -29 -43 -9 hvcurveto
          -61 -292 -107 -301 -107 -290 rrcurveto
          -9 -23 -4 -28 -21 vvcurveto
          endchar
        </CharString>
        <CharString name="fraction">
          -99 -29 1642 hstem
          -20 1221 vstem
          9 28 -91 callgsubr
        </CharString>
        <CharString name="g">
          -34 callsubr
          -15 callsubr
          489 221 -148 240 -201 181 hintmask 00000000
          hintmask 11110010
          109 -204 rmoveto
          -240 240 -124 268 253 273 126 251 242 -242 102 -219 -77 -86 -17 -29 -60 vhcurveto
          hintmask 11101100
          46 55 132 84 70 43 rrcurveto
          140 86 204 128 223 vvcurveto
          hintmask 11101001
          12 -1 12 -1 14 vhcurveto
          51 108 23 131 102 vvcurveto
          63 -5 168 -78 vhcurveto
          -86 hlineto
          -12 -47 -5 -53 hvcurveto
          -47 47 -130 -130 vvcurveto
          111 -56 -138 71 -173 hhcurveto
          -230 -232 -151 -271 hvcurveto
          hintmask 11110010
          -241 210 -136 197 -19 vhcurveto
          -188 -108 -223 -197 -234 vvcurveto
          hintmask 11101100
          483 715 rmoveto
          -143 -108 87 136 138 114 72 127 122 126 -66 -144 -136 -108 -87 -130 hvcurveto
          hintmask 11110010
          -264 -683 rmoveto
          30 8 31 29 33 vhcurveto
          43 58 140 4 47 hhcurveto
          116 177 -23 -146 -105 -140 -58 -146 -142 -147 58 133 hvcurveto
          endchar
        </CharString>
        <CharString name="gbreve">
          -34 callsubr
          136 169 -15 callsubr
          -122 687 -76 -102 callgsubr
          238 1461 -94 callsubr
        </CharString>
        <CharString name="gcircumflex">
          -34 callsubr
          133 411 -15 callsubr
          -124 689 -76 -102 callgsubr
          -7 1459 -107 callsubr
        </CharString>
        <CharString name="gcommaaccent">
          -34 callsubr
          586 21 -15 callsubr
          102 300 87 -102 callgsubr
          415 1584 rmoveto
          59 -45 49 -53 7 vhcurveto
          3 37 41 82 11 20 rrcurveto
          6 10 8 14 15 vvcurveto
          12 -5 12 -16 8 vhcurveto
          -33 16 rlineto
          5 -10 -9 2 -9 hhcurveto
          -38 -28 -29 -28 -19 hvcurveto
          -61 -87 -43 -80 -92 vvcurveto
          -91 74 -59 80 69 77 35 83 vhcurveto
          endchar
        </CharString>
        <CharString name="gdotaccent">
          -34 callsubr
          153 325 -15 callsubr
          94 327 68 -102 callgsubr
          271 1478 -96 callgsubr
          endchar
        </CharString>
        <CharString name="germandbls">
          241 -25 223 -177 -21 1560 220 hstemhm
          235 244 248 224 -16 252 20 -30 callgsubr
          hintmask 10111010
          235 65 rmoveto
          -36 23 -29 30 vhcurveto
          137 hlineto
          29 25 29 36 hvcurveto
          1067 vlineto
          256 62 172 221 133 40 -75 -81 vhcurveto
          -200 -208 -76 -222 vvcurveto
          -179 124 -109 170 -68 vhcurveto
          115 -46 71 -56 -105 vvcurveto
          -96 -72 -49 -106 vhcurveto
          hintmask 01110110
          -105 -92 53 33 -66 hvcurveto
          7 -13 -13 3 -12 hhcurveto
          -24 -21 -13 -34 -16 hvcurveto
          -29 -61 rlineto
          -7 -15 -3 -13 -12 vvcurveto
          -93 209 -78 209 197 207 140 237 245 -149 102 -172 69 vhcurveto
          -87 35 -91 41 86 vvcurveto
          47 26 45 33 42 vhcurveto
          hintmask 10111010
          108 137 69 58 178 vvcurveto
          184 -133 159 -290 -426 -103 -277 -387 vhcurveto
          endchar
        </CharString>
        <CharString name="grave">
          -605 1281 441 hstem
          13 515 vstem
          416 1289 -95 callsubr
        </CharString>
        <CharString name="grave.cap">
          -779 1628 364 hstem
          -118 544 vstem
          334 1631 -88 callsubr
        </CharString>
        <CharString name="greater">
          72 108 970 hstem
          190 1025 vstem
          1145 475 rmoveto
          62 27 8 49 33 vvcurveto
          32 -10 51 -64 29 vhcurveto
          -822 371 rlineto
          7 -15 -15 4 -14 hhcurveto
          -22 -20 -9 -29 -11 hvcurveto
          -24 -61 rlineto
          -5 -13 -3 -14 -12 vvcurveto
          -27 14 -22 33 -14 vhcurveto
          698 -289 -681 -281 -33 -14 -16 -23 -1 -27 rlinecurve
          -9 3 -11 4 -10 vhcurveto
          26 -62 rlineto
          -31 13 20 -12 23 hhcurveto
          14 14 4 7 15 hvcurveto
          809 356 rlineto
          endchar
        </CharString>
        <CharString name="greaterequal">
          71 0 197 hstem
          151 1073 vstem
          1154 643 rmoveto
          62 27 8 34 58 vvcurveto
          60 -10 33 -64 29 vhcurveto
          -871 301 rlineto
          6 -16 -14 5 -14 hhcurveto
          -22 -22 -9 -29 -9 hvcurveto
          -20 -65 rlineto
          -4 -13 -4 -14 -12 vvcurveto
          -27 13 -25 34 -11 vhcurveto
          718 -223 -706 -208 -34 -10 -15 -27 -1 -27 rlinecurve
          -9 3 -11 8 -22 vhcurveto
          18 -55 rlineto
          -32 11 22 -11 23 hhcurveto
          14 13 6 5 16 hvcurveto
          919 -218 rmoveto
          26 -25 22 -30 vhcurveto
          -948 hlineto
          -31 -25 -22 -31 hvcurveto
          -89 vlineto
          -33 25 -22 31 vhcurveto
          948 hlineto
          30 25 22 27 hvcurveto
          endchar
        </CharString>
        <CharString name="guillemotleft">
          242 66 998 hstemhm
          157 621 -23 621 hintmask 11000000
          193 482 rmoveto
          -79 callsubr
          hintmask 10100000
          598 hmoveto
          -79 callsubr
          endchar
        </CharString>
        <CharString name="guillemotright">
          242 84 998 hstemhm
          150 621 -7 621 hintmask 11000000
          735 666 rmoveto
          -79 callgsubr
          hintmask 10100000
          614 hmoveto
          -79 callgsubr
          endchar
        </CharString>
        <CharString name="guilsinglleft">
          -437 66 998 hstem
          96 621 vstem
          132 482 rmoveto
          -79 callsubr
          endchar
        </CharString>
        <CharString name="guilsinglright">
          -437 84 998 hstem
          117 621 vstem
          702 666 rmoveto
          -79 callgsubr
          endchar
        </CharString>
        <CharString name="h">
          72 -21 callsubr
          hstem
          214 243 485 243 vstem
          214 66 -70 callgsubr
          757 vlineto
          -3 callsubr
          endchar
        </CharString>
        <CharString name="hbar">
          72 -21 callsubr
          234 188 hstem
          214 243 485 243 vstem
          214 66 -70 callgsubr
          434 332 vlineto
          24 20 16 21 hvcurveto
          113 vlineto
          22 -20 16 -24 vhcurveto
          -332 135 hlineto
          -3 callsubr
          -135 -141 vlineto
          -23 -20 -16 -21 hvcurveto
          -113 vlineto
          -22 20 -16 23 vhcurveto
          141 hlineto
          endchar
        </CharString>
        <CharString name="hcircumflex">
          72 -21 callsubr
          470 361 hstemhm
          214 243 52 610 -177 243 hintmask 00101000
          613 1623 rmoveto
          11 10 5 10 11 hvcurveto
          168 155 177 -159 rlineto
          -8 9 8 -3 8 hhcurveto
          11 10 7 10 13 hvcurveto
          53 43 rlineto
          12 10 5 11 11 vvcurveto
          10 -5 11 -8 11 vhcurveto
          -153 190 rlineto
          31 -25 -25 16 -37 hhcurveto
          -102 hlineto
          -35 -30 -19 -26 -21 hvcurveto
          -156 -194 rlineto
          -7 -8 -6 -13 -11 vvcurveto
          -10 3 -7 15 -12 vhcurveto
          56 -48 rlineto
          -8 9 10 -5 11 hhcurveto
          hintmask 11010100
          -399 -1557 -70 callgsubr
          757 vlineto
          -3 callsubr
          endchar
        </CharString>
        <CharString name="hungarumlaut">
          -269 1280 442 hstem
          177 857 vstem
          671 1293 -85 callsubr
        </CharString>
        <CharString name="hungarumlaut.cap">
          -439 1629 362 hstem
          -4 925 vstem
          507 1648 -78 callgsubr
        </CharString>
        <CharString name="hyphen">
          -99 508 192 hstem
          237 719 vstem
          292 508 rmoveto
          608 -25 callgsubr
          -608 hlineto
          -57 callgsubr
          endchar
        </CharString>
        <CharString name="i">
          -22 callgsubr
          1145 -20 213 -1 callsubr
          142 327 -287 241 hintmask 00000000
          hintmask 01111000
          306 1321 -96 callgsubr
          hintmask 10110100
          -124 -1039 -97 callgsubr
          endchar
        </CharString>
        <CharString name="iacute">
          -7 callgsubr
          173 441 hstemhm
          150 515 -483 241 hintmask 00000000
          hintmask 11001000
          182 282 -97 callgsubr
          hintmask 00110000
          52 219 -106 callsubr
        </CharString>
        <CharString name="ibreve">
          -7 callgsubr
          181 169 hstemhm
          -29 687 -476 241 hintmask 00000000
          hintmask 11001000
          182 282 -97 callgsubr
          hintmask 00110000
          136 227 -94 callsubr
        </CharString>
        <CharString name="icircumflex">
          -7 callgsubr
          178 411 hstemhm
          -33 689 -474 241 hintmask 00000000
          hintmask 11001000
          182 282 -97 callgsubr
          hintmask 00110000
          -111 225 -107 callsubr
        </CharString>
        <CharString name="idieresis">
          -7 callgsubr
          209 304 hstemhm
          -90 298 -26 241 -17 298 hintmask 00000000
          hintmask 11001000
          182 282 -97 callgsubr
          hintmask 00110100
          373 255 -84 callsubr
          -496 hmoveto
          -92 callgsubr
          endchar
        </CharString>
        <CharString name="igrave">
          -7 callgsubr
          173 441 hstemhm
          -32 515 -301 241 hintmask 00000000
          hintmask 11001000
          182 282 -97 callgsubr
          hintmask 00110000
          189 227 -95 callsubr
        </CharString>
        <CharString name="ij">
          74 -568 208 343 221 -200 -21 1145 -20 213 -1 callsubr
          142 327 -287 241 202 570 -282 244 hintmask 0000000000000000
          hintmask 0011110000000000
          306 1321 -96 callgsubr
          hintmask 0101101000000000
          -124 -1039 -97 callgsubr
          hintmask 0000000000000000
          850 259 -96 callgsubr
          hintmask 1001100100000000
          22 callsubr
          hintmask 1001100010000000
          -66 callsubr
          hintmask 1001100100000000
          -13 callgsubr
        </CharString>
        <CharString name="imacron">
          -7 callgsubr
          263 205 hstemhm
          2 605 -425 241 hintmask 00000000
          hintmask 11001000
          182 282 -97 callgsubr
          hintmask 00110000
          -137 309 -77 callsubr
        </CharString>
        <CharString name="infinity">
          412 194 210 -210 217 391 218 -210 210 hstemhm
          122 218 1023 218 hintmask 00000000
          hintmask 01011100
          510 194 rmoveto
          172 107 111 106 57 hvcurveto
          -104 53 123 -113 184 hhcurveto
          243 132 172 239 hvcurveto
          hintmask 10101100
          199 -110 216 -272 -173 -106 -112 -104 -58 vhcurveto
          99 -57 -121 117 -182 hhcurveto
          -243 -137 -172 -239 hvcurveto
          hintmask 01011100
          -199 115 -216 273 vhcurveto
          436 424 rmoveto
          139 50 79 53 104 hhcurveto
          120 64 -91 -116 -118 -64 -74 -120 -104 -106 114 93 -23 hvcurveto
          hintmask 10101100
          -418 -214 rmoveto
          -119 -69 91 116 118 69 73 119 105 106 -113 -94 23 hvcurveto
          -139 -51 -78 -52 -105 hhcurveto
          endchar
        </CharString>
        <CharString name="integral">
          -269 -568 214 2078 214 hstem
          391 240 vstem
          111 -293 rmoveto
          -13 -12 -7 -20 -14 hvcurveto
          -47 -68 rlineto
          -13 -19 -6 -17 -16 vvcurveto
          -82 181 -46 89 240 115 172 214 vhcurveto
          1695 vlineto
          103 18 108 111 vhcurveto
          76 38 -61 37 hhcurveto
          13 12 7 20 14 hvcurveto
          47 68 rlineto
          13 19 6 17 16 vvcurveto
          91 -181 37 -89 -240 -115 -172 -184 vhcurveto
          -1725 vlineto
          -103 -18 -108 -111 vhcurveto
          -76 -38 61 -37 hhcurveto
          endchar
        </CharString>
        <CharString name="iogonek">
          -480 176 314 -21 1139 -20 213 -1 callsubr
          142 229 -192 290 -287 241 hintmask 00000000
          hintmask 11110100
          306 1321 rmoveto
          90 73 70 93 hvcurveto
          hintmask 11111000
          93 -73 69 -90 -91 -73 -69 -93 vhcurveto
          hintmask 11110100
          -93 73 -70 91 vhcurveto
          hintmask 11110010
          -127 -1594 rmoveto
          -43 callsubr
          hvcurveto
          hintmask 11110100
          28 callsubr
          vhcurveto
          39 47 49 40 34 25 17 9 16 12 16 14 rrcurveto
          13 12 8 12 17 vvcurveto
          10 -2 11 -6 13 vhcurveto
          hintmask 11111000
          -31 70 rlineto
          21 -9 -9 8 -13 -33 -27 -26 -32 hhcurveto
          -27 -20 18 53 hvcurveto
          787 vlineto
          37 -23 callgsubr
          -37 hvcurveto
          -780 vlineto
          hintmask 11110010
          -191 60 -82 101 -20 vhcurveto
          -84 -58 -80 -91 -113 vvcurveto
          endchar
        </CharString>
        <CharString name="itilde">
          -7 callgsubr
          209 -7 callsubr
          -54 762 -526 241 hintmask 00000000
          hintmask 11000100
          182 282 -97 callgsubr
          hintmask 00000000
          -114 262 -75 callgsubr
          hintmask 00101000
          -80 callsubr
          hintmask 00011000
          -13 callsubr
        </CharString>
        <CharString name="j">
          20 callgsubr
          213 -1 callsubr
          -58 570 -282 244 hintmask 00000000
          hintmask 11110000
          349 1321 -96 callgsubr
          hintmask 11101000
          22 callsubr
          hintmask 11110000
          -66 callsubr
          hintmask 11101000
          -13 callgsubr
        </CharString>
        <CharString name="jcircumflex">
          20 callgsubr
          178 411 hstemhm
          -5 689 -454 244 hintmask 11001000
          -47 callgsubr
          hintmask 00110000
          -131 225 -107 callsubr
        </CharString>
        <CharString name="k">
          -96 -17 221 -183 -21 hstemhm
          190 247 -2 callgsubr
          -65 callsubr
          hintmask 10100000
          -68 callsubr
          endchar
        </CharString>
        <CharString name="kcommaaccent">
          -96 -547 -21 551 221 -183 -21 hstemhm
          190 247 11 300 hintmask 00000000
          hintmask 00110000
          -65 callsubr
          hintmask 01010000
          -68 callsubr
          hintmask 10001000
          258 -1930 -104 callsubr
          endchar
        </CharString>
        <CharString name="kgreenlandic">
          -96 -17 221 -183 -21 1128 -20 hstemhm
          190 244 hintmask 00000000
          hintmask 01110000
          -65 callsubr
          hintmask 10110000
          20 -4 -14 27 -26 -2 -2 -1 -3 hhcurveto
          0 -54 -15 -23 -72 -113 211 166 -97 vhcurveto
          110 137 130 128 115 109 rrcurveto
          20 18 7 19 16 vvcurveto
          -1 27 -21 25 -12 14 -45 50 rcurveline
          23 -21 -21 9 -18 hhcurveto
          -23 -19 -13 -11 -10 hvcurveto
          -197 -217 -173 -220 -139 -259 rrcurveto
          -19 -10 -9 -7 -4 hhcurveto
          -4 -1 3 5 hvcurveto
          4 vlineto
          14 121 28 202 -2 122 -3 198 rcurveline
          36 -23 27 -30 vhcurveto
          -138 29 callsubr
          -36 hvcurveto
          endchar
        </CharString>
        <CharString name="l">
          -84 callgsubr
          endchar
        </CharString>
        <CharString name="lacute">
          -22 callgsubr
          1571 -20 hstemhm
          187 241 hintmask 00000000
          hintmask 01110000
          187 282 rmoveto
          -225 88 -74 136 70 74 18 53 64 vhcurveto
          hintmask 10110000
          17 14 12 16 19 vvcurveto
          8 -2 9 -4 10 vhcurveto
          -31 71 rlineto
          21 -9 -12 8 -15 -22 -45 -26 -30 hhcurveto
          -27 -23 17 54 hvcurveto
          1214 vlineto
          36 -23 callgsubr
          -36 hvcurveto
          hintmask 01110000
          73 140 -105 callsubr
        </CharString>
        <CharString name="lcaron">
          -435 -84 callgsubr
          hintmask 01100000
          479 -456 -83 callgsubr
        </CharString>
        <CharString name="lcommaaccent">
          -84 callgsubr
          hintmask 01100000
          83 -1928 -104 callsubr
          endchar
        </CharString>
        <CharString name="ldot">
          -96 -84 callgsubr
          hintmask 01100000
          719 -1095 -96 callgsubr
          endchar
        </CharString>
        <CharString name="less">
          72 108 970 hstem
          149 1025 vstem
          219 475 rmoveto
          809 -356 rlineto
          -7 15 14 -4 14 hhcurveto
          23 20 12 31 13 hvcurveto
          26 62 rlineto
          4 10 3 11 9 vvcurveto
          -1 27 -16 23 -33 14 -681 281 rcurveline
          698 289 rlineto
          33 14 14 22 27 vvcurveto
          12 -3 14 -5 13 vhcurveto
          -24 61 rlineto
          29 -11 -20 9 -22 hhcurveto
          -14 -15 -4 -7 -15 hvcurveto
          -822 -371 rlineto
          -64 -29 -10 -51 -32 vvcurveto
          -33 8 -49 62 -27 vhcurveto
          endchar
        </CharString>
        <CharString name="lessequal">
          71 0 197 hstem
          139 1073 vstem
          209 643 rmoveto
          863 -276 rlineto
          -5 16 13 -6 14 hhcurveto
          23 22 11 32 11 hvcurveto
          18 55 rlineto
          8 22 3 11 9 vvcurveto
          -1 27 -15 27 -34 10 -706 208 rcurveline
          718 223 rlineto
          34 11 13 25 27 vvcurveto
          12 -4 14 -4 13 vhcurveto
          -20 65 rlineto
          29 -9 -22 9 -22 hhcurveto
          -14 -14 -5 -6 -16 hvcurveto
          -871 -301 rlineto
          -64 -29 -10 -33 -60 vvcurveto
          -58 8 -34 62 -27 vhcurveto
          -56 -594 rmoveto
          -27 25 -22 30 vhcurveto
          948 -33 callsubr
          -948 -8 callsubr
          endchar
        </CharString>
        <CharString name="logicalnot">
          241 673 187 hstem
          1137 191 vstem
          187 673 rmoveto
          950 -383 hlineto
          -31 22 -25 33 vhcurveto
          83 hlineto
          31 22 25 31 hvcurveto
          517 vlineto
          31 -25 22 -31 vhcurveto
          -1085 -8 callsubr
          -90 vlineto
          -27 25 -22 30 vhcurveto
          endchar
        </CharString>
        <CharString name="lozenge">
          244 0 250 1271 252 hstem
          198 1102 vstem
          575 100 rmoveto
          -95 48 26 -5 97 hhcurveto
          26 hlineto
          95 28 16 87 42 hvcurveto
          328 677 rlineto
          23 48 12 27 29 vvcurveto
          28 -10 28 -24 48 vhcurveto
          -345 685 rlineto
          95 -48 -26 5 -97 hhcurveto
          -26 hlineto
          -95 -29 -17 -86 -41 hvcurveto
          -328 -689 rlineto
          -23 -48 -10 -27 -26 vvcurveto
          -26 10 -24 22 -44 vhcurveto
          511 -536 rmoveto
          -256 536 rlineto
          -20 43 -10 26 26 vvcurveto
          27 11 28 21 49 vhcurveto
          237 536 rlineto
          7 2 6 3 6 hhcurveto
          7 7 -4 -6 3 hvcurveto
          255 -533 rlineto
          23 -48 10 -28 -28 vvcurveto
          -28 -11 -27 -20 -46 vhcurveto
          -240 -533 rlineto
          -7 -3 -6 -3 -6 hhcurveto
          -7 -6 3 7 -3 hvcurveto
          endchar
        </CharString>
        <CharString name="lslash">
          -22 callgsubr
          1166 -20 hstemhm
          197 235 hintmask 00000000
          hintmask 01110000
          197 282 rmoveto
          -225 88 -74 136 70 74 18 53 64 vhcurveto
          hintmask 10110000
          17 14 12 16 19 vvcurveto
          8 -2 9 -4 10 vhcurveto
          -31 71 rlineto
          21 -9 -12 8 -15 -22 -50 -26 -30 hhcurveto
          -27 -24 17 54 hvcurveto
          549 vlineto
          207 148 rlineto
          14 10 9 15 17 vvcurveto
          7 0 5 -3 12 vhcurveto
          -17 77 rlineto
          27 -6 -15 7 -16 hhcurveto
          -10 -11 -3 -5 -7 hvcurveto
          -145 -108 rlineto
          675 vlineto
          36 -23 29 -30 vhcurveto
          -128 -20 callgsubr
          -36 hvcurveto
          -851 vlineto
          -148 -110 rlineto
          -19 -14 -6 -17 -18 vvcurveto
          -8 1 -7 4 -19 vhcurveto
          11 -53 rlineto
          -23 4 15 -10 15 hhcurveto
          7 7 2 4 6 hvcurveto
          103 73 rlineto
          endchar
        </CharString>
        <CharString name="m">
          751 -21 callsubr
          -209 210 -26 -20 6 callsubr
          464 243 464 243 cntrmask 00001110
          hintmask 00000000
          hintmask 11001110
          -62 callgsubr
          hintmask 10101110
          11 callsubr
          hintmask 11001110
          12 callgsubr
          hintmask 10011110
          -12 57 -10 49 -71 callgsubr
          endchar
        </CharString>
        <CharString name="macron">
          1371 205 hstem
          39 605 vstem
          82 1371 -77 callsubr
        </CharString>
        <CharString name="macron.cap">
          -779 1714 217 hstem
          -46 605 vstem
          -3 1714 -76 callgsubr
        </CharString>
        <CharString name="minus">
          71 508 192 hstem
          132 1099 vstem
          187 508 -44 callsubr
        </CharString>
        <CharString name="mu">
          72 -521 -21 518 206 -161 -21 1128 -20 -24 callsubr
          487 -30 callgsubr
          hintmask 11011100
          414 41 rmoveto
          -42 64 66 -23 71 hhcurveto
          148 148 93 132 53 hvcurveto
          14 -61 17 -55 14 -37 rrcurveto
          -33 13 23 -15 43 hhcurveto
          45 hlineto
          43 19 27 41 12 24 callgsubr
          80 -12 110 150 vvcurveto
          625 vlineto
          -38 callgsubr
          -49 -22 -29 -37 hvcurveto
          -597 vlineto
          hintmask 10111100
          -152 -154 -131 -132 -123 -78 53 235 vhcurveto
          592 -1 callgsubr
          -46 -2 callsubr
          -43 -24 -29 -37 hvcurveto
          -1530 vlineto
          -41 14 -33 49 vhcurveto
          124 hlineto
          42 19 21 49 -2 hvcurveto
          endchar
        </CharString>
        <CharString name="multiply">
          -99 169 868 hstem
          170 870 vstem
          189 251 rmoveto
          66 -66 22 -22 33 2 22 22 rlinecurve
          276 277 278 -278 22 -22 33 -2 24 23 rlinecurve
          59 59 22 22 -2 33 -22 22 rlinecurve
          -279 278 273 273 22 21 2 33 -19 18 rlinecurve
          -73 74 -19 19 -34 -2 -21 -21 rlinecurve
          -272 -273 -279 279 -21 21 -33 2 -18 -18 rlinecurve
          -68 -67 -19 -19 2 -34 22 -21 rlinecurve
          278 -279 -276 -276 -22 -22 -2 -33 23 -23 rlinecurve
          endchar
        </CharString>
        <CharString name="n">
          72 21 21 callsubr
          486 -30 callgsubr
          hintmask 11011000
          -86 callsubr
          hintmask 10111000
          -10 52 -14 54 -71 callgsubr
          endchar
        </CharString>
        <CharString name="nacute">
          72 -21 callsubr
          -25 -20 173 441 6 callsubr
          61 515 -90 -30 callgsubr
          hintmask 11001010
          -86 callsubr
          hintmask 10101010
          -10 52 -14 54 -71 callgsubr
          hintmask 00010100
          388 601 -106 callsubr
        </CharString>
        <CharString name="nbspace">
          -779 endchar
        </CharString>
        <CharString name="ncaron">
          72 -21 callsubr
          -25 -20 172 417 6 callsubr
          -98 693 -109 -30 callgsubr
          hintmask 11001010
          -86 callsubr
          hintmask 10101010
          -10 52 -14 54 -71 callgsubr
          hintmask 00010100
          435 600 -93 callgsubr
        </CharString>
        <CharString name="ncommaaccent">
          72 -547 -21 589 21 callsubr
          104 300 82 -30 callgsubr
          hintmask 01101010
          -86 callsubr
          hintmask 01011010
          -10 52 -14 54 -71 callgsubr
          hintmask 10000100
          347 -900 -104 callsubr
          endchar
        </CharString>
        <CharString name="nine">
          -99 -265 215 326 205 532 211 hstem
          58 236 541 244 vstem
          100 -60 rmoveto
          -8 -11 -3 -11 -9 vvcurveto
          -25 22 -22 28 -20 vhcurveto
          -56 79 137 -51 130 hhcurveto
          475 119 439 332 431 -130 287 -382 -280 -229 -190 -279 -299 202 -180 248 112 142 35 59 80 hvcurveto
          -229 -12 -96 -191 -245 hhcurveto
          -71 -100 27 45 -70 hvcurveto
          14 -21 -17 8 -14 hhcurveto
          -17 -15 -11 -25 -17 hvcurveto
          417 473 rmoveto
          -179 -91 113 158 157 112 104 147 199 83 -171 -278 hvcurveto
          -59 -72 -105 -24 -94 hhcurveto
          endchar
        </CharString>
        <CharString name="notequal">
          14 callgsubr
          296 36 rmoveto
          -18 13 -16 23 -12 vhcurveto
          63 -34 rlineto
          -7 12 10 -2 9 hhcurveto
          24 16 14 27 14 hvcurveto
          146 288 rlineto
          524 -33 callsubr
          -425 hlineto
          128 253 rlineto
          297 -33 callsubr
          -197 hlineto
          113 222 rlineto
          6 11 2 11 9 vvcurveto
          -1 18 -10 17 -19 9 -79 38 rcurveline
          3 -6 -6 1 -5 hhcurveto
          -26 -18 -18 -21 -11 hvcurveto
          -153 -300 rlineto
          -528 -26 callsubr
          428 hlineto
          -129 -253 rlineto
          -299 -26 callsubr
          198 hlineto
          -107 -211 rlineto
          -5 -10 -2 -11 -8 vvcurveto
          endchar
        </CharString>
        <CharString name="ntilde">
          72 -21 callsubr
          -25 -20 209 -7 callsubr
          210 243 -137 762 -139 -30 callgsubr
          hintmask 11000101
          -86 callsubr
          hintmask 10100101
          -10 52 -14 54 -71 callgsubr
          hintmask 00000000
          228 644 -75 callgsubr
          hintmask 00010010
          -80 callsubr
          hintmask 00001010
          -13 callsubr
        </CharString>
        <CharString name="numbersign">
          70 372 179 343 179 hstem
          56 1223 vstem
          217 105 rmoveto
          9 callgsubr
          288 hlineto
          -44 -267 rlineto
          9 callgsubr
          208 hlineto
          31 20 22 33 hvcurveto
          76 vlineto
          31 -26 17 -31 vhcurveto
          -172 hlineto
          57 343 rlineto
          178 hlineto
          31 20 22 33 hvcurveto
          76 vlineto
          31 -25 17 -31 vhcurveto
          -143 0 callgsubr
          -288 0 callgsubr
          -214 hlineto
          -30 -21 30 callsubr
          181 hlineto
          -57 -343 rlineto
          -185 hlineto
          -30 -20 30 callsubr
          151 hlineto
          237 179 rmoveto
          57 343 rlineto
          288 hlineto
          -57 -343 rlineto
          endchar
        </CharString>
        <CharString name="o">
          -36 callgsubr
          hstem
          120 250 628 250 vstem
          -98 callsubr
          endchar
        </CharString>
        <CharString name="oacute">
          -36 callgsubr
          128 441 -5 callsubr
          182 515 -69 250 hintmask 11010100
          -98 callsubr
          hintmask 00101000
          266 729 -106 callsubr
        </CharString>
        <CharString name="obreve">
          -36 callgsubr
          136 169 -5 callsubr
          -27 687 -32 250 hintmask 11010100
          -98 callsubr
          hintmask 00101000
          320 737 -94 callsubr
        </CharString>
        <CharString name="ocircumflex">
          -36 callgsubr
          133 411 -5 callsubr
          -29 689 -32 250 hintmask 11010100
          -98 callsubr
          hintmask 00101000
          75 735 -107 callsubr
        </CharString>
        <CharString name="odieresis">
          -36 callgsubr
          164 304 -5 callsubr
          -88 -6 callgsubr
          -78 250 hintmask 11010010
          -98 callsubr
          hintmask 00101100
          557 765 -84 callsubr
          -496 hmoveto
          -92 callgsubr
          endchar
        </CharString>
        <CharString name="oe">
          752 -4 callgsubr
          285 179 295 213 -209 208 -5 callsubr
          623 218 482 235 hintmask 00000000
          hintmask 11011110
          120 566 rmoveto
          -345 222 -246 342 178 145 74 129 93 vhcurveto
          -132 80 138 -71 199 hhcurveto
          150 260 67 119 12 -2 12 -7 12 hvcurveto
          -27 51 rlineto
          22 -12 -17 8 -21 -53 -69 -96 -184 hhcurveto
          -211 -122 141 186 9 hvcurveto
          -19 67 97 -23 106 hhcurveto
          hintmask 11101110
          238 209 93 238 231 -172 125 -240 hvcurveto
          hintmask 11011110
          -172 -140 -66 -136 -88 hvcurveto
          127 -84 -141 74 -207 hhcurveto
          -317 -247 -234 -353 hvcurveto
          250 -14 rmoveto
          197 85 196 218 253 67 -207 -177 -206 -93 -173 -216 -218 -96 183 187 vhcurveto
          hintmask 11101110
          851 134 rmoveto
          159 31 95 96 154 hhcurveto
          131 61 -51 -89 -114 -126 -41 -137 -77 -108 29 11 -24 hvcurveto
          endchar
        </CharString>
        <CharString name="ogonek">
          -480 176 hstem
          66 192 vstem
          66 -273 -45 callgsubr
        </CharString>
        <CharString name="ograve">
          -36 callgsubr
          128 441 -5 callsubr
          -18 515 131 250 hintmask 11010100
          -98 callsubr
          hintmask 00101000
          385 737 -95 callsubr
        </CharString>
        <CharString name="ohungarumlaut">
          -36 callgsubr
          127 442 -5 callsubr
          48 857 -277 250 hintmask 11010100
          -98 callsubr
          hintmask 00101000
          542 741 -85 callsubr
        </CharString>
        <CharString name="omacron">
          -36 callgsubr
          218 205 -5 callsubr
          16 605 7 250 hintmask 11010100
          -98 callsubr
          hintmask 00101000
          59 819 -77 callsubr
        </CharString>
        <CharString name="one">
          -443 21 -21 hstem
          361 245 vstem
          361 63 rmoveto
          -35 22 -28 30 vhcurveto
          139 hlineto
          29 25 28 35 hvcurveto
          1053 vlineto
          64 -38 36 -55 -68 -24 -38 -49 -88 vhcurveto
          -64 -36 -72 -14 -55 -11 rrcurveto
          -61 -13 -18 -20 -34 vvcurveto
          -17 4 -22 7 -25 vhcurveto
          -31 8 12 -30 47 hhcurveto
          70 111 40 24 39 hvcurveto
          endchar
        </CharString>
        <CharString name="onehalf">
          1089 -29 1642 -1614 182 443 1009 -799 176 hstemhm
          404 1221 -1214 210 1216 211 hintmask 00100100
          462 624 -67 callsubr
          hintmask 01010010
          921 -625 -64 callsubr
          hintmask 10001000
          -950 29 -91 callgsubr
        </CharString>
        <CharString name="onequarter">
          921 -29 1642 -1592 -21 198 178 248 1009 hstemhm
          411 210 -197 1221 103 192 hintmask 01100010
          1179 -60 callsubr
          hintmask 00011000
          -1286 248 -67 callsubr
          hintmask 10000100
          -9 -596 -91 callgsubr
        </CharString>
        <CharString name="onesuperior">
          -613 855 1009 hstem
          291 210 vstem
          342 855 -67 callsubr
          endchar
        </CharString>
        <CharString name="ordfeminine">
          -97 600 179 244 175 168 191 hstem
          119 215 362 189 vstem
          442 600 rmoveto
          140 98 61 83 55 hvcurveto
          4 -19 4 -24 3 -30 rrcurveto
          -30 2 3 -24 50 hhcurveto
          73 hlineto
          44 8 27 25 84 -25 116 -42 107 hvcurveto
          16 79 10 56 68 vvcurveto
          242 -164 136 -219 -117 -213 -48 -90 -4 22 -112 54 12 14 7 9 18 vhcurveto
          19 38 58 28 87 hhcurveto
          138 83 -67 -138 -7 0 -21 -1 -10 hvcurveto
          63 -81 -90 12 -69 hhcurveto
          -156 -180 -74 -225 -197 163 -102 160 hvcurveto
          38 179 rmoveto
          -84 -62 44 81 79 78 40 64 84 92 -48 -70 16 hvcurveto
          -55 -4 -80 -71 -104 hhcurveto
          endchar
        </CharString>
        <CharString name="ordmasculine">
          -269 600 182 594 181 hstem
          85 215 428 215 vstem
          509 600 rmoveto
          262 172 192 286 286 -154 193 -276 -275 -153 -193 -286 -278 163 -200 261 hvcurveto
          6 182 rmoveto
          -167 -48 160 136 155 53 143 158 160 57 -145 -155 -152 -57 -142 -156 hvcurveto
          endchar
        </CharString>
        <CharString name="oslash">
          74 -25 189 803 186 hstem
          120 237 654 237 vstem
          233 -30 rmoveto
          -15 7 -15 14 -7 vhcurveto
          74 -40 rlineto
          -4 7 6 -1 7 hhcurveto
          18 16 11 18 11 hvcurveto
          61 100 rlineto
          -26 68 77 -16 85 hhcurveto
          317 247 236 355 198 -62 161 -119 102 hvcurveto
          59 97 rlineto
          5 9 3 9 9 vvcurveto
          15 -8 15 -18 10 vhcurveto
          -65 36 rlineto
          4 -8 -8 2 -7 hhcurveto
          -19 -16 -12 -17 -11 hvcurveto
          -55 -90 rlineto
          26 -67 -80 13 -88 hhcurveto
          -317 -247 -234 -353 -192 68 -161 120 -105 hvcurveto
          -67 -111 rlineto
          -5 -8 -3 -10 -9 vvcurveto
          185 318 rmoveto
          -44 71 -17 102 80 vvcurveto
          229 93 197 233 51 49 -9 -11 35 vhcurveto
          -379 -624 rlineto
          117 -138 rmoveto
          396 653 rlineto
          39 -69 20 -102 -95 vvcurveto
          -212 -93 -196 -230 -50 -45 9 12 -37 vhcurveto
          endchar
        </CharString>
        <CharString name="otilde">
          -36 callgsubr
          164 -7 callsubr
          120 250 -61 762 -73 250 hintmask 11001010
          -98 callsubr
          hintmask 00000000
          61 772 -75 callgsubr
          hintmask 00100100
          -80 callsubr
          hintmask 00010100
          -13 callsubr
        </CharString>
        <CharString name="p">
          -10 callgsubr
          hstemhm
          198 246 550 255 hintmask 00000000
          hintmask 11101100
          -46 callsubr
          hintmask 11011100
          -32 callgsubr
          hintmask 11101100
          13 callsubr
          hintmask 11011100
          -146 -156 147 199 hvcurveto
          endchar
        </CharString>
        <CharString name="paragraph">
          244 -55 callgsubr
          hstem
          702 209 185 209 vstem
          1096 54 rmoveto
          -29 21 -25 26 vhcurveto
          115 hlineto
          26 21 25 29 hvcurveto
          1425 vlineto
          30 -21 24 -25 vhcurveto
          -115 hlineto
          -27 -21 -24 -30 hvcurveto
          -394 -1429 rmoveto
          -24 13 -26 41 vhcurveto
          103 hlineto
          37 15 24 26 hvcurveto
          1412 vlineto
          38 -18 33 -61 vhcurveto
          -129 hlineto
          -280 -214 -179 -268 -260 207 -169 286 hvcurveto
          endchar
        </CharString>
        <CharString name="parenleft">
          -438 -335 2247 hstem
          164 231 vstem
          531 -301 rmoveto
          -14 13 24 -20 30 hhcurveto
          16 17 5 36 37 hvcurveto
          37 35 7 18 17 vvcurveto
          32 -27 29 -13 16 vhcurveto
          -174 217 -103 358 356 vvcurveto
          331 72 390 225 237 vhcurveto
          19 21 9 20 20 vvcurveto
          25 -14 23 -24 22 vhcurveto
          33 -34 -21 6 -19 hhcurveto
          -23 -20 -10 -12 -12 hvcurveto
          -269 -290 -120 -448 -359 vvcurveto
          -387 123 -425 244 -282 vhcurveto
          endchar
        </CharString>
        <CharString name="parenright">
          -438 -335 2247 hstem
          459 231 vstem
          323 -301 rmoveto
          244 282 123 425 387 vvcurveto
          359 -120 448 -269 290 vhcurveto
          12 -12 -20 10 -23 hhcurveto
          -19 -21 -6 -33 -34 hvcurveto
          -24 -22 -14 -23 -25 vvcurveto
          -20 9 -20 19 -21 vhcurveto
          225 -237 72 -390 -331 vvcurveto
          -356 -103 -358 -174 -217 vhcurveto
          -13 -16 -27 -29 -32 vvcurveto
          -17 7 -18 37 -35 vhcurveto
          -36 37 17 -5 16 hhcurveto
          30 24 20 14 13 hvcurveto
          endchar
        </CharString>
        <CharString name="partialdiff">
          67 -25 221 685 218 475 224 hstem
          90 246 709 239 vstem
          90 519 rmoveto
          -302 170 -242 371 427 226 455 541 365 -126 462 -515 -104 -281 -44 -120 -21 6 -12 25 -48 vhcurveto
          -21 11 16 -21 37 hhcurveto
          11 25 8 7 17 hvcurveto
          22 54 68 26 92 hhcurveto
          340 85 -288 -288 hvcurveto
          -1 -37 rlineto
          93 -100 -174 45 -108 hhcurveto
          -336 -236 -231 -349 hvcurveto
          246 -9 rmoveto
          240 155 131 188 147 141 -81 -59 62 vhcurveto
          -19 -250 -132 -292 -247 -3 rrcurveto
          -171 -2 -124 112 204 vvcurveto
          endchar
        </CharString>
        <CharString name="percent">
          751 26 callsubr
          173 11 174 464 173 hstemhm
          94 202 119 1221 -964 30 callgsubr
          hintmask 0000000000000000
          hintmask 0111110111000000
          -49 callsubr
          701 -589 rmoveto
          -8 callgsubr
          vhcurveto
          hintmask 0110110111000000
          217 171 163 244 242 -134 162 -254 hvcurveto
          hintmask 0111110111000000
          -219 -171 -162 -242 hvcurveto
          hintmask 0110110111000000
          202 -9 rmoveto
          -53 callsubr
          -132 -58 107 117 vhcurveto
          hintmask 1000001000000000
          -945 -350 -91 callgsubr
        </CharString>
        <CharString name="period">
          -779 -25 7 callsubr
          hstemhm
          86 342 -2 callgsubr
          86 151 rmoveto
          hintmask 10100000
          -61 callsubr
          vhcurveto
          hintmask 01100000
          8 callgsubr
          endchar
        </CharString>
        <CharString name="periodcentered">
          -779 421 7 callsubr
          hstemhm
          85 342 -2 callgsubr
          85 597 rmoveto
          hintmask 10100000
          -61 callsubr
          vhcurveto
          hintmask 01100000
          8 callgsubr
          endchar
        </CharString>
        <CharString name="perthousand">
          1601 26 callsubr
          358 464 173 hstemhm
          94 202 118 1221 -963 30 callgsubr
          114 202 376 200 hintmask 0111101111100000
          -49 callsubr
          1593 -589 rmoveto
          -8 callgsubr
          -48 callsubr
          vhcurveto
          -892 hmoveto
          -8 callgsubr
          -48 callsubr
          vhcurveto
          1094 -9 rmoveto
          -53 callsubr
          -132 -58 107 117 vhcurveto
          -892 hmoveto
          -53 callsubr
          -132 -58 107 117 vhcurveto
          hintmask 1000010000000000
          -946 -350 -91 callgsubr
        </CharString>
        <CharString name="pi">
          241 -17 213 -192 -21 38 -21 922 206 hstemhm
          294 243 428 240 hintmask 00000000
          hintmask 00111100
          294 -5 callgsubr
          38 vhcurveto
          109 hlineto
          50 -12 callgsubr
          856 428 -651 vlineto
          -217 84 -71 136 71 72 12 58 65 vhcurveto
          14 12 8 12 17 vvcurveto
          9 -2 10 -10 22 vhcurveto
          -23 51 rlineto
          27 -12 -11 8 -13 -17 -44 -25 -31 hhcurveto
          -27 -20 17 51 hvcurveto
          658 vlineto
          hintmask 01011100
          167 hlineto
          24 20 16 21 hvcurveto
          131 vlineto
          hintmask 10011100
          22 -20 16 -24 vhcurveto
          -1252 hlineto
          -23 -20 -16 -21 hvcurveto
          -131 vlineto
          -22 20 -16 23 vhcurveto
          174 hlineto
          endchar
        </CharString>
        <CharString name="plus">
          71 508 192 440 -20 hstem
          581 201 vstem
          187 508 rmoveto
          394 -391 hlineto
          23 callgsubr
          391 393 vlineto
          -14 callsubr
          84 vlineto
          31 -25 22 -31 vhcurveto
          -393 385 19 callgsubr
          -385 -394 vlineto
          -57 callgsubr
          endchar
        </CharString>
        <CharString name="plusminus">
          71 5 192 487 192 hstemhm
          132 1099 -650 201 hintmask 01010000
          581 381 rmoveto
          23 callgsubr
          303 393 vlineto
          -14 callsubr
          84 vlineto
          31 -25 22 -31 vhcurveto
          -393 290 19 callgsubr
          -290 -394 vlineto
          -57 callgsubr
          394 hlineto
          hintmask 10100000
          -394 -679 -44 callsubr
        </CharString>
        <CharString name="product">
          415 1312 221 hstem
          230 251 745 251 vstem
          230 -283 rmoveto
          -33 callgsubr
          1595 745 -1594 vlineto
          -33 callgsubr
          1751 -47 callsubr
          -1136 hlineto
          -31 -25 -29 -35 hvcurveto
          endchar
        </CharString>
        <CharString name="q">
          -10 callgsubr
          hstemhm
          119 257 545 246 hintmask 00000000
          hintmask 11101100
          577 -25 rmoveto
          161 127 84 120 67 hvcurveto
          hintmask 11011100
          -6 -86 -5 -107 -64 vvcurveto
          -420 vlineto
          -34 24 -32 30 vhcurveto
          139 hlineto
          30 23 32 34 hvcurveto
          hintmask 11101100
          1548 vlineto
          38 -14 40 -49 vhcurveto
          -62 hlineto
          -53 -4 -22 -52 -13 hvcurveto
          -24 -96 rlineto
          130 -84 -108 65 -166 hhcurveto
          -252 -219 -251 -326 -324 164 -277 294 hvcurveto
          66 207 rmoveto
          -182 -85 190 198 195 83 179 174 161 148 -146 -228 -203 -126 -185 -173 hvcurveto
          endchar
        </CharString>
        <CharString name="question">
          -93 -25 7 callsubr
          1432 206 hstemhm
          134 233 16 342 87 253 hintmask 00000000
          hintmask 01101100
          519 503 rmoveto
          11 10 3 4 9 hvcurveto
          257 108 259 228 306 vvcurveto
          264 -150 197 -332 -259 -190 -147 -242 vhcurveto
          hintmask 01111100
          -58 21 -63 87 vhcurveto
          63 hlineto
          61 1 39 48 147 82 70 133 163 67 -138 -121 -81 -26 -107 -101 -106 hvcurveto
          -120 -127 -136 -31 -60 vvcurveto
          -13 2 -10 5 -11 vhcurveto
          hintmask 01101100
          -89 38 27 -10 18 hhcurveto
          -136 -352 rmoveto
          hintmask 10101100
          -61 callsubr
          vhcurveto
          hintmask 01101100
          8 callgsubr
          endchar
        </CharString>
        <CharString name="questiondown">
          -93 -528 206 1082 350 -21 21 hstemhm
          134 253 87 342 16 233 hintmask 00000000
          hintmask 10111000
          680 582 rmoveto
          -11 -10 -3 -4 -9 hvcurveto
          -257 -108 -259 -228 -306 vvcurveto
          -264 150 -197 332 259 190 147 242 vhcurveto
          hintmask 10111100
          58 -21 63 -87 vhcurveto
          -63 hlineto
          -61 -1 -39 -48 -147 -82 -70 -133 -163 -67 138 121 81 26 107 101 106 hvcurveto
          120 127 136 31 60 vvcurveto
          13 -2 10 -5 11 vhcurveto
          hintmask 10111000
          89 -38 -27 10 -18 hhcurveto
          136 352 rmoveto
          hintmask 11011000
          17 callsubr
          hintmask 10111000
          95 77 78 96 hvcurveto
          endchar
        </CharString>
        <CharString name="quotedbl">
          -441 1090 626 hstemhm
          100 251 149 251 hintmask 11000000
          194 1090 rmoveto
          -51 callgsubr
          hintmask 10100000
          400 hmoveto
          -51 callgsubr
          endchar
        </CharString>
        <CharString name="quotedblbase">
          -440 -321 16 callgsubr
          73 318 91 318 hintmask 00000000
          hintmask 10010000
          637 281 rmoveto
          -73 callgsubr
          hintmask 01010000
          -62 callsubr
          hintmask 10010000
          3 callsubr
          hintmask 00000000
          -409 hmoveto
          -73 callgsubr
          hintmask 10100000
          -62 callsubr
          hintmask 01100000
          3 callsubr
          endchar
        </CharString>
        <CharString name="quotedblleft">
          -440 1125 280 -280 602 hstemhm
          46 318 121 318 hintmask 00000000
          hintmask 01010000
          648 1125 rmoveto
          -43 callgsubr
          hintmask 10010000
          -29 callsubr
          hintmask 01010000
          -108 66 -77 97 vhcurveto
          hintmask 00000000
          -439 hmoveto
          -43 callgsubr
          hintmask 01100000
          -29 callsubr
          hintmask 10100000
          -108 66 -77 97 vhcurveto
          endchar
        </CharString>
        <CharString name="quotedblright">
          -440 1125 16 callgsubr
          49 318 121 318 hintmask 00000000
          hintmask 10010000
          643 1727 rmoveto
          -73 callgsubr
          hintmask 01010000
          -62 callsubr
          hintmask 10010000
          3 callsubr
          hintmask 00000000
          -439 hmoveto
          -73 callgsubr
          hintmask 10100000
          -62 callsubr
          hintmask 01100000
          3 callsubr
          endchar
        </CharString>
        <CharString name="quoteleft">
          -781 1125 280 -280 602 hstemhm
          96 318 -2 callgsubr
          259 1125 rmoveto
          -43 callgsubr
          hintmask 10100000
          -29 callsubr
          hintmask 01100000
          -108 66 -77 97 vhcurveto
          endchar
        </CharString>
        <CharString name="quoteright">
          -781 1125 16 callgsubr
          97 318 hintmask 00000000
          hintmask 10100000
          252 1727 rmoveto
          -73 callgsubr
          hintmask 01100000
          -62 callsubr
          hintmask 10100000
          3 callsubr
          endchar
        </CharString>
        <CharString name="quotesinglbase">
          -781 -321 16 callgsubr
          97 318 hintmask 00000000
          hintmask 10100000
          252 281 rmoveto
          -73 callgsubr
          hintmask 01100000
          -62 callsubr
          hintmask 10100000
          3 callsubr
          endchar
        </CharString>
        <CharString name="quotesingle">
          -781 1090 626 hstem
          130 251 vstem
          224 1090 rmoveto
          -51 callgsubr
          endchar
        </CharString>
        <CharString name="r">
          10 callsubr
          hstemhm
          182 -30 callgsubr
          hintmask 10110000
          182 66 rmoveto
          hintmask 11010000
          -64 callgsubr
          hintmask 10110000
          -75 callsubr
          endchar
        </CharString>
        <CharString name="racute">
          10 callsubr
          173 441 hstemhm
          182 243 -129 515 hintmask 00000000
          hintmask 10101000
          182 66 rmoveto
          hintmask 11001000
          -64 callgsubr
          hintmask 10101000
          -75 callsubr
          hintmask 00010100
          198 526 -106 callsubr
        </CharString>
        <CharString name="radical">
          71 -1 223 hstem
          65 1269 vstem
          507 110 rmoveto
          -89 34 42 -22 96 hhcurveto
          57 hlineto
          123 26 40 71 19 hvcurveto
          429 1585 rlineto
          1 5 0 5 6 vvcurveto
          30 -16 32 -34 vhcurveto
          -130 hlineto
          -28 -21 -19 -26 -6 hvcurveto
          -374 -1506 rlineto
          -4 -1 -4 -11 -14 hhcurveto
          -16 -4 12 3 -1 hvcurveto
          -200 592 rlineto
          39 -13 -21 24 -41 hhcurveto
          -11 -8 -2 -2 -8 hvcurveto
          -286 -73 rlineto
          -21 -5 -11 -19 -17 vvcurveto
          -8 3 -10 1 -5 vhcurveto
          23 -98 rlineto
          -22 5 23 -14 22 hhcurveto
          7 4 1 1 5 hvcurveto
          142 39 rlineto
          endchar
        </CharString>
        <CharString name="rcaron">
          10 callsubr
          172 417 hstemhm
          134 693 -645 -30 callgsubr
          hintmask 10100100
          182 66 rmoveto
          hintmask 11000100
          -64 callgsubr
          hintmask 10100100
          -75 callsubr
          hintmask 00011000
          242 525 -93 callgsubr
        </CharString>
        <CharString name="rcommaaccent">
          -439 -546 -21 588 -21 916 237 -25 -20 hstemhm
          161 300 -279 -30 callgsubr
          hintmask 01010100
          182 66 rmoveto
          hintmask 01100100
          -64 callgsubr
          hintmask 01010100
          -75 callsubr
          hintmask 10001000
          -21 -974 -104 callsubr
          endchar
        </CharString>
        <CharString name="registered">
          412 -1 179 201 164 116 115 234 147 200 179 hstem
          85 183 305 161 258 180 265 -54 callgsubr
          305 -329 rmoveto
          -18 14 -32 44 vhcurveto
          47 hlineto
          42 14 29 21 hvcurveto
          230 vlineto
          -133 72 110 -156 160 hhcurveto
          65 47 35 41 17 -11 78 -36 hvcurveto
          -21 -19 -7 -19 hhcurveto
          -68 -61 36 81 -65 hvcurveto
          -1 8 6 0 8 hhcurveto
          140 122 106 141 179 -137 70 -175 hvcurveto
          -229 hlineto
          -42 -16 -30 -34 hvcurveto
          161 -304 rmoveto
          221 106 vlineto
          84 68 -24 -82 -95 -73 -33 -86 -52 -26 10 3 -21 hvcurveto
          endchar
        </CharString>
        <CharString name="ring">
          -611 1245 24 callsubr
          hstem
          57 3 callgsubr
          vstem
          342 1245 -86 callgsubr
        </CharString>
        <CharString name="ring.cap">
          -612 1426 24 callsubr
          hstem
          55 3 callgsubr
          vstem
          340 1426 -86 callgsubr
        </CharString>
        <CharString name="s">
          -16 callsubr
          hstem
          140 245 304 234 vstem
          -102 callsubr
          endchar
        </CharString>
        <CharString name="sacute">
          -16 callsubr
          128 441 21 callgsubr
          -39 515 -172 234 hintmask 11010100
          -102 callsubr
          hintmask 00101000
          261 1223 -106 callsubr
        </CharString>
        <CharString name="scaron">
          -16 callsubr
          127 417 21 callgsubr
          -213 693 -176 234 hintmask 11010100
          -102 callsubr
          hintmask 00101000
          293 1222 -93 callgsubr
        </CharString>
        <CharString name="scedilla">
          -268 -477 175 306 -21 964 206 21 callgsubr
          144 193 -33 234 hintmask 00000000
          hintmask 11110100
          169 58 rmoveto
          64 -48 93 -24 93 -8 rrcurveto
          47 -43 63 -64 -74 vvcurveto
          -39 callgsubr
          hintmask 11111000
          -42 callsubr
          102 -62 77 -64 55 vhcurveto
          224 34 103 149 166 vvcurveto
          181 -125 74 -142 61 vhcurveto
          -157 68 -114 28 92 vvcurveto
          82 85 29 63 vhcurveto
          hintmask 11110100
          94 44 -22 -28 59 hvcurveto
          -11 20 18 -5 16 hhcurveto
          25 19 14 32 14 hvcurveto
          14 32 13 32 28 vvcurveto
          26 -11 23 -29 17 vhcurveto
          46 -79 -101 22 -111 hhcurveto
          -197 -201 -103 -214 -176 98 -81 139 -69 hvcurveto
          127 -63 185 -23 -115 vvcurveto
          -97 -74 -32 -118 -83 -88 32 54 -67 vhcurveto
          11 -14 -16 5 -15 hhcurveto
          -24 -21 -13 -23 -13 hvcurveto
          -23 -44 -17 -33 -30 vvcurveto
          -27 14 -25 39 -29 vhcurveto
          endchar
        </CharString>
        <CharString name="scircumflex">
          -16 callsubr
          133 411 21 callgsubr
          -215 689 -170 234 hintmask 11010100
          -102 callsubr
          hintmask 00101000
          105 1229 -107 callsubr
        </CharString>
        <CharString name="scommaaccent">
          -268 -547 -21 543 205 767 206 21 callgsubr
          -11 300 15 234 hintmask 01110100
          -102 callsubr
          hintmask 10001000
          205 -278 -104 callsubr
          endchar
        </CharString>
        <CharString name="section">
          71 -463 220 1822 223 hstemhm
          150 238 -166 243 419 242 -165 239 hintmask 00000000
          hintmask 11101000
          198 -156 rmoveto
          -43 -91 rlineto
          -4 -9 -2 -9 -8 vvcurveto
          -62 107 -48 44 -18 vhcurveto
          -39 96 127 -23 118 hhcurveto
          237 248 166 284 127 -72 81 -77 75 hvcurveto
          130 76 93 130 175 vvcurveto
          271 -229 120 -209 82 vhcurveto
          -130 51 -167 74 142 vvcurveto
          hintmask 11010100
          128 100 60 130 116 102 -51 -54 88 vhcurveto
          -8 13 12 -4 10 hhcurveto
          22 16 18 29 15 hvcurveto
          43 82 5 19 12 vvcurveto
          77 -245 103 -191 -245 -234 -152 -254 -134 81 -119 88 -83 vhcurveto
          -142 -66 -99 -123 -167 vvcurveto
          -247 214 -152 203 -79 vhcurveto
          154 -60 163 -60 -132 vvcurveto
          hintmask 11101000
          -140 -102 -77 -152 -140 -125 66 47 -81 vhcurveto
          5 -10 -11 3 -11 hhcurveto
          -23 -21 -12 -22 -10 hvcurveto
          hintmask 11100100
          446 603 rmoveto
          -121 57 -135 62 133 vvcurveto
          140 92 74 85 25 vhcurveto
          52 -19 169 -62 174 -72 1 -147 rlinecurve
          -123 -83 -119 -85 -18 vhcurveto
          endchar
        </CharString>
        <CharString name="semicolon">
          -779 760 7 callsubr
          hstemhm
          77 342 -2 callgsubr
          77 936 rmoveto
          hintmask 10100000
          -61 callsubr
          vhcurveto
          hintmask 01100000
          8 callgsubr
          hintmask 00000000
          11 -777 -45 callsubr
        </CharString>
        <CharString name="seven">
          -271 974 226 hstem
          50 897 vstem
          173 -65 rmoveto
          -20 -14 -22 -24 -29 vvcurveto
          -14 5 -16 14 -16 vhcurveto
          45 -52 rlineto
          -24 20 22 -9 24 hhcurveto
          53 55 48 39 35 hvcurveto
          87 97 99 145 155 412 33 89 51 144 107 325 rrcurveto
          7 23 4 22 19 vvcurveto
          60 -32 40 -49 vhcurveto
          -755 hlineto
          -52 -9 -25 -42 hvcurveto
          -74 vlineto
          -43 19 -42 79 vhcurveto
          522 hlineto
          -43 -182 -55 -130 -53 -153 -108 -310 -122 -180 -116 -84 rrcurveto
          endchar
        </CharString>
        <CharString name="six">
          -99 -25 211 503 212 336 214 hstem
          95 240 547 235 vstem
          621 -25 rmoveto
          320 176 241 260 272 -185 153 -254 -97 -165 -35 -116 -89 hvcurveto
          245 5 82 242 252 hhcurveto
          89 91 -20 -45 58 hvcurveto
          -15 19 16 -7 16 hhcurveto
          20 1 21 14 28 41 23 34 rcurveline
          14 21 6 17 17 vvcurveto
          79 -210 77 -158 -529 -75 -444 -351 -426 181 -255 345 vhcurveto
          -286 579 rmoveto
          2 vlineto
          57 33 131 76 117 hhcurveto
          162 104 -68 -169 -170 -117 -96 -138 -164 -128 111 257 hvcurveto
          endchar
        </CharString>
        <CharString name="slash">
          -439 -130 1758 hstem
          150 628 vstem
          153 -22 rmoveto
          -2 -7 -1 -8 -9 vvcurveto
          -25 11 -26 35 -9 vhcurveto
          80 -22 rlineto
          -2 6 5 0 6 hhcurveto
          26 25 14 28 7 hvcurveto
          425 1624 rlineto
          1 5 1 6 5 vvcurveto
          27 -16 23 -32 7 vhcurveto
          -85 18 rlineto
          1 -5 -5 0 -5 hhcurveto
          -28 -26 -13 -29 -7 hvcurveto
          endchar
        </CharString>
        <CharString name="space">
          -779 endchar
        </CharString>
        <CharString name="sterling">
          -273 0 216 339 191 491 214 hstemhm
          169 237 -112 217 hintmask 00000000
          hintmask 11110000
          145 98 rmoveto
          -55 44 -43 47 vhcurveto
          685 hlineto
          51 12 25 42 hvcurveto
          79 vlineto
          58 -21 12 -42 vhcurveto
          -495 hlineto
          40 88 41 121 4 130 rrcurveto
          263 hlineto
          31 25 22 26 hvcurveto
          94 vlineto
          27 -25 22 -31 vhcurveto
          -286 hlineto
          hintmask 11101000
          -19 61 -63 130 102 vvcurveto
          110 60 88 144 39 66 -4 -46 65 vhcurveto
          -15 21 22 -22 27 hhcurveto
          51 61 93 46 19 -8 14 -10 10 hvcurveto
          90 -94 -126 29 -100 hhcurveto
          -332 -123 -199 -178 -124 53 -101 37 -103 hvcurveto
          -93 -8 callsubr
          -94 vlineto
          -27 25 -22 30 vhcurveto
          128 hlineto
          hintmask 11110000
          -1 -130 -46 -135 -81 -126 rrcurveto
          -15 -23 -6 -22 -21 vvcurveto
          endchar
        </CharString>
        <CharString name="summation">
          -99 -347 223 1437 220 hstem
          66 1090 vstem
          100 -88 rmoveto
          -15 -23 -19 -31 -51 vvcurveto
          -6 0 -6 4 -41 vhcurveto
          -66 6 55 -35 43 hhcurveto
          921 hlineto
          25 36 15 38 hvcurveto
          120 vlineto
          39 -19 11 -44 vhcurveto
          -466 hlineto
          -153 -89 -10 -5 -54 hvcurveto
          405 594 rlineto
          49 72 20 35 44 vvcurveto
          48 -44 56 -19 30 vhcurveto
          -375 582 rlineto
          -3 59 72 -6 124 hhcurveto
          459 hlineto
          40 26 14 39 hvcurveto
          117 vlineto
          39 -19 11 -47 vhcurveto
          -877 hlineto
          -37 -46 -15 -72 -19 hvcurveto
          -10 -38 -2 -14 -14 vvcurveto
          -53 26 -43 21 -33 vhcurveto
          420 -648 rlineto
          endchar
        </CharString>
        <CharString name="t">
          -441 -17 207 730 208 hstem
          210 240 vstem
          -89 callsubr
          endchar
        </CharString>
        <CharString name="tbar">
          -441 -17 207 297 204 229 208 hstem
          210 240 vstem
          210 282 rmoveto
          -202 116 -97 169 155 185 81 74 8 -1 8 -12 28 vhcurveto
          -23 52 rlineto
          23 -10 -14 10 -17 hhcurveto
          -27 -24 -21 -18 -36 hvcurveto
          -18 -36 -43 -20 -41 hhcurveto
          -53 -48 24 78 hvcurveto
          195 300 vlineto
          24 20 16 21 hvcurveto
          129 vlineto
          22 -20 16 -24 vhcurveto
          -300 229 282 hlineto
          -60 callgsubr
          -282 226 hlineto
          38 -23 28 -30 vhcurveto
          -83 hlineto
          -29 -19 -28 -38 -6 hvcurveto
          -38 -235 -100 -29 rlineto
          -46 -9 -13 -16 -31 vvcurveto
          -57 vlineto
          -32 16 -25 47 vhcurveto
          84 -229 -105 hlineto
          -23 -20 -16 -21 hvcurveto
          -129 vlineto
          -22 20 -16 23 vhcurveto
          105 hlineto
          endchar
        </CharString>
        <CharString name="tcaron">
          -441 -17 207 730 208 124 531 hstemhm
          210 240 126 276 hintmask 11010000
          -89 callsubr
          hintmask 00101000
          450 332 -83 callgsubr
        </CharString>
        <CharString name="tcommaaccent">
          -441 -547 -21 551 207 730 208 hstemhm
          210 240 -175 300 hintmask 01110000
          -89 callsubr
          hintmask 10001000
          65 -1140 -104 callsubr
          endchar
        </CharString>
        <CharString name="thorn">
          76 -543 -21 540 206 763 208 hstem
          203 243 552 253 vstem
          203 69 rmoveto
          -555 vlineto
          -42 14 -36 49 vhcurveto
          124 hlineto
          42 17 24 50 hvcurveto
          413 vlineto
          37 -2 136 -8 81 vhcurveto
          -127 70 123 -74 140 hhcurveto
          271 208 243 384 304 -134 246 -305 -109 -149 -40 -146 -108 hvcurveto
          741 vlineto
          36 -24 29 -30 vhcurveto
          -136 hlineto
          -30 -23 -29 -36 hvcurveto
          -1631 vlineto
          228 492 rmoveto
          204 123 172 192 175 77 -146 -227 -191 -66 -199 -205 -173 -123 192 195 vhcurveto
          endchar
        </CharString>
        <CharString name="three">
          -98 -263 220 417 123 511 217 hstemhm
          751 245 -193 242 hintmask 00000000
          hintmask 10101000
          106 -38 rmoveto
          -8 -12 -3 -10 -10 vvcurveto
          -26 22 -23 26 -21 vhcurveto
          -89 108 148 -34 169 hhcurveto
          hintmask 11110000
          227 250 160 279 172 -143 149 -218 hvcurveto
          112 38 200 102 222 vvcurveto
          250 -217 116 -219 -191 -252 -103 -209 -43 18 -50 120 vhcurveto
          hintmask 11101000
          31 26 10 37 9 hvcurveto
          96 22 114 45 82 hhcurveto
          110 102 -58 -111 -161 -158 -84 -238 -53 hvcurveto
          -37 -8 -8 -26 -27 vvcurveto
          -30 10 -87 47 3 3 0 3 15 vhcurveto
          7 38 32 1 37 hhcurveto
          172 136 -65 -137 -153 -142 -62 -122 -102 -88 19 65 -99 hvcurveto
          hintmask 10110000
          14 -22 -15 9 -15 hhcurveto
          -17 -1 -15 -10 -17 -26 rrcurveto
          endchar
        </CharString>
        <CharString name="threequarters">
          1091 21 -21 198 178 223 13 callgsubr
          1043 192 hintmask 11000010
          1339 -60 callsubr
          hintmask 00000000
          -1760 311 -49 callgsubr
          hintmask 00110100
          -48 callgsubr
          hintmask 00111000
          463 -659 -91 callgsubr
        </CharString>
        <CharString name="threesuperior">
          -272 830 13 callgsubr
          hintmask 00000000
          hintmask 11010000
          148 918 -49 callgsubr
          hintmask 11100000
          -48 callgsubr
          endchar
        </CharString>
        <CharString name="tilde">
          -440 1317 -7 callsubr
          47 762 hintmask 00000000
          hintmask 10100000
          169 1324 -75 callgsubr
          hintmask 01100000
          -80 callsubr
          hintmask 10100000
          -13 callsubr
        </CharString>
        <CharString name="tilde.cap">
          -440 1655 -7 callsubr
          47 761 hintmask 00000000
          hintmask 10100000
          148 1666 -81 callgsubr
          hintmask 01100000
          -82 callsubr
        </CharString>
        <CharString name="trademark">
          750 1358 175 hstem
          306 195 vstem
          869 608 rmoveto
          91 hlineto
          23 26 22 22 2 hvcurveto
          35 435 -3 188 53 -163 209 -448 rlineto
          -19 8 15 -18 25 hhcurveto
          90 hlineto
          20 18 7 32 12 hvcurveto
          179 444 40 165 11 -189 55 -435 rlineto
          -24 3 21 -19 26 hhcurveto
          101 hlineto
          36 6 41 26 -3 hvcurveto
          -106 755 rlineto
          59 -31 42 -59 vhcurveto
          -76 hlineto
          -58 -16 -34 -41 -14 hvcurveto
          -213 -598 -249 602 rlineto
          69 -28 -25 4 -45 hhcurveto
          -69 hlineto
          -72 -6 -34 -73 -7 hvcurveto
          -73 -753 rlineto
          -24 -2 18 -41 32 hhcurveto
          -509 hmoveto
          87 hlineto
          31 23 26 33 hvcurveto
          691 198 vlineto
          35 19 24 31 hvcurveto
          64 vlineto
          32 -19 24 -35 vhcurveto
          -595 hlineto
          -35 -24 -24 -32 hvcurveto
          -64 vlineto
          -31 24 -24 35 vhcurveto
          202 -691 hlineto
          -33 23 -26 31 vhcurveto
          endchar
        </CharString>
        <CharString name="two">
          -98 1 209 805 210 hstem
          777 249 vstem
          143 62 rmoveto
          -46 27 -15 42 vhcurveto
          785 hlineto
          45 24 12 45 hvcurveto
          89 vlineto
          41 -8 29 -52 -1 vhcurveto
          -535 -12 43 26 rlineto
          183 110 329 196 313 vvcurveto
          291 -260 85 -184 -201 -253 -116 -214 -47 20 -26 63 -10 vhcurveto
          -3 16 16 -3 15 hhcurveto
          29 27 12 51 19 hvcurveto
          100 38 107 46 93 hhcurveto
          85 121 -42 -145 -248 -402 -256 -184 -94 hvcurveto
          -43 -22 -5 -13 -65 vvcurveto
          endchar
        </CharString>
        <CharString name="twosuperior">
          -273 854 182 653 176 hstem
          630 211 vstem
          176 854 -64 callsubr
          endchar
        </CharString>
        <CharString name="u">
          -52 callsubr
          -24 callsubr
          487 -30 callgsubr
          hintmask 10111000
          189 459 rmoveto
          -318 121 -166 261 199 139 87 139 55 vhcurveto
          14 -61 17 -55 14 -37 rrcurveto
          -33 13 23 -15 43 hhcurveto
          45 hlineto
          43 19 27 41 12 24 callgsubr
          80 -12 110 150 vvcurveto
          625 vlineto
          hintmask 01111000
          -38 callgsubr
          -49 -22 -29 -37 hvcurveto
          -597 vlineto
          -152 -154 -131 -139 -125 -69 53 235 vhcurveto
          592 -1 callgsubr
          -46 -2 callsubr
          -43 -24 -29 -37 hvcurveto
          endchar
        </CharString>
        <CharString name="uacute">
          -52 callsubr
          173 441 -24 callsubr
          74 515 -102 -98 callgsubr
          401 219 -106 callsubr
        </CharString>
        <CharString name="ubreve">
          -52 callsubr
          181 169 -24 callsubr
          -96 687 -104 -98 callgsubr
          494 227 -94 callsubr
        </CharString>
        <CharString name="ucircumflex">
          -52 callsubr
          178 411 -24 callsubr
          -109 689 -93 -98 callgsubr
          238 225 -107 callsubr
        </CharString>
        <CharString name="udieresis">
          -52 callsubr
          209 304 -24 callsubr
          -156 -6 callgsubr
          -151 -30 callgsubr
          hintmask 10101001
          189 459 rmoveto
          -318 121 -166 261 199 139 87 139 55 vhcurveto
          14 -61 17 -55 14 -37 rrcurveto
          -33 13 23 -15 43 hhcurveto
          45 hlineto
          43 19 27 41 12 24 callgsubr
          80 -12 110 150 vvcurveto
          625 vlineto
          hintmask 01101001
          -38 callgsubr
          -49 -22 -29 -37 hvcurveto
          -597 vlineto
          -152 -154 -131 -139 -125 -69 53 235 vhcurveto
          592 -1 callgsubr
          -46 -2 callsubr
          -43 -24 -29 -37 hvcurveto
          hintmask 00010110
          732 255 -84 callsubr
          -496 hmoveto
          -92 callgsubr
          endchar
        </CharString>
        <CharString name="ugrave">
          -52 callsubr
          173 441 -24 callsubr
          -98 515 70 -98 callgsubr
          548 227 -95 callsubr
        </CharString>
        <CharString name="uhungarumlaut">
          -52 callsubr
          172 442 -24 callsubr
          -32 857 -338 -98 callgsubr
          705 231 -85 callsubr
        </CharString>
        <CharString name="umacron">
          -52 callsubr
          263 205 -24 callsubr
          -64 605 -54 -98 callgsubr
          222 309 -77 callsubr
        </CharString>
        <CharString name="underscore">
          241 -362 192 hstem
          -58 1650 vstem
          -3 -170 rmoveto
          -57 callgsubr
          1539 -25 callgsubr
          endchar
        </CharString>
        <CharString name="uni0001">
          -31 callsubr
        </CharString>
        <CharString name="uni0002">
          -31 callsubr
        </CharString>
        <CharString name="uni0003">
          -31 callsubr
        </CharString>
        <CharString name="uni0004">
          -31 callsubr
        </CharString>
        <CharString name="uni0005">
          -31 callsubr
        </CharString>
        <CharString name="uni0006">
          -31 callsubr
        </CharString>
        <CharString name="uni0007">
          -31 callsubr
        </CharString>
        <CharString name="uni0008">
          -31 callsubr
        </CharString>
        <CharString name="uni0009">
          -31 callsubr
        </CharString>
        <CharString name="uni0010">
          -31 callsubr
        </CharString>
        <CharString name="uni0011">
          -31 callsubr
        </CharString>
        <CharString name="uni0012">
          -31 callsubr
        </CharString>
        <CharString name="uni0013">
          -31 callsubr
        </CharString>
        <CharString name="uni0014">
          -31 callsubr
        </CharString>
        <CharString name="uni0015">
          -31 callsubr
        </CharString>
        <CharString name="uni0016">
          -31 callsubr
        </CharString>
        <CharString name="uni0017">
          -31 callsubr
        </CharString>
        <CharString name="uni0018">
          -31 callsubr
        </CharString>
        <CharString name="uni0019">
          -31 callsubr
        </CharString>
        <CharString name="uni00AD">
          415 endchar
        </CharString>
        <CharString name="uni1E02">
          19 callsubr
          20 callsubr
          238 248 63 327 151 255 -161 266 hintmask 00000000
          hintmask 11101001
          -17 callsubr
          hintmask 11101010
          -46 callgsubr
          hintmask 11101001
          -11 callsubr
          hintmask 00010100
          -89 1454 -96 callgsubr
          endchar
        </CharString>
        <CharString name="uni1E03">
          73 -24 206 -161 -21 945 208 153 -1 callsubr
          203 243 181 327 44 253 hintmask 00000000
          hintmask 01101010
          -3 callgsubr
          hintmask 10101010
          -59 callsubr
          hintmask 00010100
          360 737 -96 callgsubr
          endchar
        </CharString>
        <CharString name="uni1E0A">
          241 0 218 1095 220 20 callsubr
          238 251 122 327 225 267 hintmask 11010100
          -72 callgsubr
          hintmask 00101000
          286 1446 -96 callgsubr
          endchar
        </CharString>
        <CharString name="uni1E0B">
          5 callgsubr
          153 -1 callsubr
          111 256 76 327 161 246 hintmask 00000000
          hintmask 10101010
          -74 callgsubr
          hintmask 01101010
          -38 callsubr
          hintmask 10101010
          -70 callsubr
          hintmask 00010100
          240 760 -96 callgsubr
          endchar
        </CharString>
        <CharString name="uni1E1E">
          25 callsubr
          20 callsubr
          236 250 74 327 hintmask 11101000
          -44 callgsubr
          hintmask 00010100
          488 198 -96 callgsubr
          endchar
        </CharString>
        <CharString name="uni1E1F">
          -441 21 28 callgsubr
          260 212 67 -1 callsubr
          234 226 -180 239 -114 327 hintmask 00000000
          hintmask 11100100
          280 71 -19 callgsubr
          -16 32 -18 58 44 vvcurveto
          90 80 36 77 vhcurveto
          131 32 -64 43 hhcurveto
          13 12 8 19 14 hvcurveto
          hintmask 11101000
          48 68 rlineto
          13 18 5 16 14 vvcurveto
          29 -28 22 -31 19 vhcurveto
          45 -76 -89 18 -88 hhcurveto
          -223 -159 -114 -188 -48 14 -60 36 -77 hvcurveto
          -52 callgsubr
          hintmask 00010010
          289 747 -96 callgsubr
          endchar
        </CharString>
        <CharString name="uni1E40">
          747 -55 callgsubr
          154 -1 callsubr
          129 1780 -1071 327 hintmask 11010000
          -81 callsubr
          hintmask 00101000
          753 279 -96 callgsubr
          endchar
        </CharString>
        <CharString name="uni1E41">
          751 -21 callsubr
          -209 210 -26 -20 198 325 6 callsubr
          463 327 -326 243 464 243 hintmask 0000000000000000
          hintmask 1100010110000000
          -62 callgsubr
          hintmask 1010010110000000
          11 callsubr
          hintmask 1100010110000000
          12 callgsubr
          hintmask 1001010110000000
          -12 57 -10 49 -71 callgsubr
          hintmask 0000101000000000
          870 626 -96 callgsubr
          endchar
        </CharString>
        <CharString name="uni1E56">
          26 callgsubr
          20 callsubr
          229 251 70 327 160 262 hintmask 11101010
          -58 callsubr
          hintmask 00010100
          234 1005 -96 callgsubr
          endchar
        </CharString>
</ttFont>
